<svg width="276" height="50" viewBox="0 0 276 50" fill="none" xmlns="http://www.w3.org/2000/svg">
<path d="M0.609375 49V0.875H11.0273C13.4518 0.875 15.3841 1.2487 16.8242 1.99609C18.2643 2.72526 19.3034 3.89193 19.9414 5.49609C20.5977 7.08203 20.9258 9.16927 20.9258 11.7578V13.2344C20.9258 15.7318 20.5977 17.7917 19.9414 19.4141C19.3034 21.0182 18.2279 22.1393 16.7148 22.7773C17.9727 23.1966 18.9753 23.9531 19.7227 25.0469C20.4883 26.1224 21.0352 27.444 21.3633 29.0117C21.6914 30.5612 21.8555 32.2656 21.8555 34.125V35.3555C21.8372 38.5638 21.4635 41.1797 20.7344 43.2031C20.0052 45.2083 18.8659 46.6758 17.3164 47.6055C15.7669 48.5352 13.7435 49 11.2461 49H0.609375ZM7.9375 43.3125H10.5352C11.5013 43.3125 12.2669 43.1029 12.832 42.6836C13.4154 42.2461 13.8346 41.526 14.0898 40.5234C14.3451 39.5208 14.4727 38.1536 14.4727 36.4219V32.5391C14.4727 30.2057 14.2448 28.5104 13.7891 27.4531C13.3516 26.3776 12.431 25.8398 11.0273 25.8398H7.9375V43.3125ZM7.9375 20.3438H10.6445C11.2826 20.3438 11.8021 20.2526 12.2031 20.0703C12.6042 19.888 12.9141 19.5781 13.1328 19.1406C13.3516 18.6849 13.4974 18.056 13.5703 17.2539C13.6615 16.4518 13.707 15.431 13.707 14.1914V11.293C13.707 9.9987 13.5885 9.01432 13.3516 8.33984C13.1146 7.66536 12.75 7.20964 12.2578 6.97266C11.7839 6.73568 11.1641 6.61719 10.3984 6.61719H7.9375V20.3438Z" fill="#E52900"/>
<path d="M37.6328 49.5469C35.1354 49.5469 33.0938 49.0182 31.5078 47.9609C29.9401 46.9036 28.7826 45.3359 28.0352 43.2578C27.2878 41.1797 26.9141 38.6094 26.9141 35.5469V13.5352C26.9141 10.7643 27.2786 8.39453 28.0078 6.42578C28.737 4.45703 29.8945 2.94401 31.4805 1.88672C33.0664 0.829427 35.1445 0.300781 37.7148 0.300781C39.6471 0.300781 41.2786 0.601562 42.6094 1.20312C43.9401 1.80469 45.0156 2.67969 45.8359 3.82812C46.6562 4.95833 47.2487 6.34375 47.6133 7.98438C47.9961 9.60677 48.1875 11.457 48.1875 13.5352V35.5469C48.1875 38.6094 47.8229 41.1797 47.0938 43.2578C46.3828 45.3359 45.2526 46.9036 43.7031 47.9609C42.1536 49.0182 40.1302 49.5469 37.6328 49.5469ZM37.6328 43.2031C38.5443 43.2031 39.2279 42.9297 39.6836 42.3828C40.1393 41.8359 40.4401 41.0065 40.5859 39.8945C40.75 38.7643 40.832 37.3424 40.832 35.6289V13.207C40.832 11.1107 40.6315 9.4974 40.2305 8.36719C39.8477 7.21875 39.0091 6.64453 37.7148 6.64453C36.3841 6.64453 35.4818 7.20052 35.0078 8.3125C34.5339 9.40625 34.2969 11.0286 34.2969 13.1797V35.6289C34.2969 37.3789 34.3698 38.819 34.5156 39.9492C34.6797 41.0612 34.9987 41.8815 35.4727 42.4102C35.9648 42.9388 36.6849 43.2031 37.6328 43.2031Z" fill="#E52900"/>
<path d="M64.9766 49.5469C62.4792 49.5469 60.4375 49.0182 58.8516 47.9609C57.2839 46.9036 56.1263 45.3359 55.3789 43.2578C54.6315 41.1797 54.2578 38.6094 54.2578 35.5469V13.5352C54.2578 10.7643 54.6224 8.39453 55.3516 6.42578C56.0807 4.45703 57.2383 2.94401 58.8242 1.88672C60.4102 0.829427 62.4883 0.300781 65.0586 0.300781C66.9909 0.300781 68.6224 0.601562 69.9531 1.20312C71.2839 1.80469 72.3594 2.67969 73.1797 3.82812C74 4.95833 74.5924 6.34375 74.957 7.98438C75.3398 9.60677 75.5312 11.457 75.5312 13.5352V35.5469C75.5312 38.6094 75.1667 41.1797 74.4375 43.2578C73.7266 45.3359 72.5964 46.9036 71.0469 47.9609C69.4974 49.0182 67.474 49.5469 64.9766 49.5469ZM64.9766 43.2031C65.888 43.2031 66.5716 42.9297 67.0273 42.3828C67.4831 41.8359 67.7839 41.0065 67.9297 39.8945C68.0938 38.7643 68.1758 37.3424 68.1758 35.6289V13.207C68.1758 11.1107 67.9753 9.4974 67.5742 8.36719C67.1914 7.21875 66.3529 6.64453 65.0586 6.64453C63.7279 6.64453 62.8255 7.20052 62.3516 8.3125C61.8776 9.40625 61.6406 11.0286 61.6406 13.1797V35.6289C61.6406 37.3789 61.7135 38.819 61.8594 39.9492C62.0234 41.0612 62.3424 41.8815 62.8164 42.4102C63.3086 42.9388 64.0286 43.2031 64.9766 43.2031Z" fill="#E52900"/>
<path d="M90.9805 49.5469C88.9753 49.5469 87.2982 49.237 85.9492 48.6172C84.6185 47.9792 83.5612 47.0586 82.7773 45.8555C82.0117 44.6341 81.4648 43.1576 81.1367 41.4258C80.8086 39.6758 80.6445 37.6888 80.6445 35.4648V31.1719H87.5898V36.0117C87.5898 38.6003 87.8086 40.4596 88.2461 41.5898C88.6836 42.7201 89.5495 43.2852 90.8438 43.2852C91.7188 43.2852 92.375 43.0846 92.8125 42.6836C93.2682 42.2643 93.569 41.6081 93.7148 40.7148C93.8789 39.8034 93.9609 38.6185 93.9609 37.1602C93.9609 35.3555 93.5781 33.7057 92.8125 32.2109C92.0651 30.7161 90.9258 29.1667 89.3945 27.5625L85.8398 23.8984C84.8555 22.8776 83.9622 21.793 83.1602 20.6445C82.3763 19.4961 81.7474 18.2201 81.2734 16.8164C80.8177 15.3945 80.5898 13.8086 80.5898 12.0586C80.5898 9.52474 80.8997 7.38281 81.5195 5.63281C82.1393 3.88281 83.1875 2.5612 84.6641 1.66797C86.1406 0.75651 88.1641 0.300781 90.7344 0.300781C92.6667 0.300781 94.2526 0.601562 95.4922 1.20312C96.75 1.78646 97.7253 2.65234 98.418 3.80078C99.1289 4.93099 99.6302 6.31641 99.9219 7.95703C100.214 9.57943 100.359 11.4388 100.359 13.5352V16.5156H93.6055V13.0703C93.6055 11.612 93.5234 10.3997 93.3594 9.43359C93.2135 8.46745 92.931 7.7474 92.5117 7.27344C92.0924 6.78125 91.4818 6.53516 90.6797 6.53516C89.9141 6.53516 89.2943 6.70833 88.8203 7.05469C88.3464 7.38281 88 7.90234 87.7812 8.61328C87.5807 9.30599 87.4805 10.2083 87.4805 11.3203C87.4805 12.3229 87.6081 13.1888 87.8633 13.918C88.1185 14.6471 88.5104 15.349 89.0391 16.0234C89.5677 16.6979 90.224 17.4544 91.0078 18.293L94.9727 22.5859C96.8685 24.6276 98.3451 26.7513 99.4023 28.957C100.46 31.1628 100.988 33.6237 100.988 36.3398C100.988 39.2201 100.678 41.6445 100.059 43.6133C99.4388 45.5638 98.3997 47.0404 96.9414 48.043C95.4831 49.0456 93.4961 49.5469 90.9805 49.5469Z" fill="#E52900"/>
<path d="M108.672 49V7.21875H103.039V0.875H121.387V7.21875H115.973V49H108.672Z" fill="#E52900"/>
<path d="M125.516 49V0.875H142.031V7.24609H132.844V20.043H141.375V26.4414H132.844V49H125.516Z" fill="black"/>
<path d="M147.336 49V0.875H154.664V49H147.336Z" fill="black"/>
<path d="M164.562 49V7.21875H158.93V0.875H177.277V7.21875H171.863V49H164.562Z" fill="black"/>
<path d="M181.406 49V0.875H187.148L197.348 29.75L196.828 16.625V0.875H203.418V49H198.223L187.75 19.1133L188.16 31.7461V49H181.406Z" fill="black"/>
<path d="M210.664 49V0.875H226.797V7.19141H217.992V21.1914H226.359V27.3711H217.992V42.6836H227.125V49H210.664Z" fill="black"/>
<path d="M241.316 49.5469C239.311 49.5469 237.634 49.237 236.285 48.6172C234.954 47.9792 233.897 47.0586 233.113 45.8555C232.348 44.6341 231.801 43.1576 231.473 41.4258C231.145 39.6758 230.98 37.6888 230.98 35.4648V31.1719H237.926V36.0117C237.926 38.6003 238.145 40.4596 238.582 41.5898C239.02 42.7201 239.885 43.2852 241.18 43.2852C242.055 43.2852 242.711 43.0846 243.148 42.6836C243.604 42.2643 243.905 41.6081 244.051 40.7148C244.215 39.8034 244.297 38.6185 244.297 37.1602C244.297 35.3555 243.914 33.7057 243.148 32.2109C242.401 30.7161 241.262 29.1667 239.73 27.5625L236.176 23.8984C235.191 22.8776 234.298 21.793 233.496 20.6445C232.712 19.4961 232.083 18.2201 231.609 16.8164C231.154 15.3945 230.926 13.8086 230.926 12.0586C230.926 9.52474 231.236 7.38281 231.855 5.63281C232.475 3.88281 233.523 2.5612 235 1.66797C236.477 0.75651 238.5 0.300781 241.07 0.300781C243.003 0.300781 244.589 0.601562 245.828 1.20312C247.086 1.78646 248.061 2.65234 248.754 3.80078C249.465 4.93099 249.966 6.31641 250.258 7.95703C250.549 9.57943 250.695 11.4388 250.695 13.5352V16.5156H243.941V13.0703C243.941 11.612 243.859 10.3997 243.695 9.43359C243.549 8.46745 243.267 7.7474 242.848 7.27344C242.428 6.78125 241.818 6.53516 241.016 6.53516C240.25 6.53516 239.63 6.70833 239.156 7.05469C238.682 7.38281 238.336 7.90234 238.117 8.61328C237.917 9.30599 237.816 10.2083 237.816 11.3203C237.816 12.3229 237.944 13.1888 238.199 13.918C238.454 14.6471 238.846 15.349 239.375 16.0234C239.904 16.6979 240.56 17.4544 241.344 18.293L245.309 22.5859C247.204 24.6276 248.681 26.7513 249.738 28.957C250.796 31.1628 251.324 33.6237 251.324 36.3398C251.324 39.2201 251.014 41.6445 250.395 43.6133C249.775 45.5638 248.736 47.0404 247.277 48.043C245.819 49.0456 243.832 49.5469 241.316 49.5469Z" fill="black"/>
<path d="M265.27 49.5469C263.264 49.5469 261.587 49.237 260.238 48.6172C258.908 47.9792 257.85 47.0586 257.066 45.8555C256.301 44.6341 255.754 43.1576 255.426 41.4258C255.098 39.6758 254.934 37.6888 254.934 35.4648V31.1719H261.879V36.0117C261.879 38.6003 262.098 40.4596 262.535 41.5898C262.973 42.7201 263.839 43.2852 265.133 43.2852C266.008 43.2852 266.664 43.0846 267.102 42.6836C267.557 42.2643 267.858 41.6081 268.004 40.7148C268.168 39.8034 268.25 38.6185 268.25 37.1602C268.25 35.3555 267.867 33.7057 267.102 32.2109C266.354 30.7161 265.215 29.1667 263.684 27.5625L260.129 23.8984C259.145 22.8776 258.251 21.793 257.449 20.6445C256.665 19.4961 256.036 18.2201 255.562 16.8164C255.107 15.3945 254.879 13.8086 254.879 12.0586C254.879 9.52474 255.189 7.38281 255.809 5.63281C256.428 3.88281 257.477 2.5612 258.953 1.66797C260.43 0.75651 262.453 0.300781 265.023 0.300781C266.956 0.300781 268.542 0.601562 269.781 1.20312C271.039 1.78646 272.014 2.65234 272.707 3.80078C273.418 4.93099 273.919 6.31641 274.211 7.95703C274.503 9.57943 274.648 11.4388 274.648 13.5352V16.5156H267.895V13.0703C267.895 11.612 267.812 10.3997 267.648 9.43359C267.503 8.46745 267.22 7.7474 266.801 7.27344C266.382 6.78125 265.771 6.53516 264.969 6.53516C264.203 6.53516 263.583 6.70833 263.109 7.05469C262.635 7.38281 262.289 7.90234 262.07 8.61328C261.87 9.30599 261.77 10.2083 261.77 11.3203C261.77 12.3229 261.897 13.1888 262.152 13.918C262.408 14.6471 262.799 15.349 263.328 16.0234C263.857 16.6979 264.513 17.4544 265.297 18.293L269.262 22.5859C271.158 24.6276 272.634 26.7513 273.691 28.957C274.749 31.1628 275.277 33.6237 275.277 36.3398C275.277 39.2201 274.967 41.6445 274.348 43.6133C273.728 45.5638 272.689 47.0404 271.23 48.043C269.772 49.0456 267.785 49.5469 265.27 49.5469Z" fill="black"/>
</svg>
