<svg width="40" height="40" viewBox="0 0 40 40" fill="none" xmlns="http://www.w3.org/2000/svg">
<path d="M17.1747 39.4777C18.123 39.4777 19.0519 39.3906 19.9614 39.2165C20.0872 39.1971 20.2033 39.1681 20.3291 39.1391C20.3678 39.1391 20.4065 39.1197 20.4549 39.11C20.5323 39.0907 20.6097 39.081 20.6774 39.0617C20.7452 39.0423 20.8032 39.0326 20.8709 39.0133C20.9193 39.0036 20.9774 38.9842 21.0258 38.9746C21.1032 38.9552 21.1709 38.9359 21.2483 38.9165C21.287 38.9068 21.3257 38.8972 21.3644 38.8875C21.4418 38.8681 21.5289 38.8391 21.6063 38.8198C21.6353 38.8101 21.6644 38.8004 21.7031 38.7907C21.7902 38.7617 21.8772 38.7327 21.9546 38.7036C21.9837 38.7036 22.003 38.6843 22.0321 38.6746C22.1191 38.6456 22.2062 38.6166 22.303 38.5779C22.3223 38.5779 22.3417 38.5682 22.361 38.5585C22.4578 38.5198 22.5546 38.4908 22.6513 38.4521C22.6513 38.4521 22.661 38.4521 22.6707 38.4521C23.0867 38.2876 23.4931 38.1134 23.8898 37.9199C23.9866 37.8715 24.0833 37.8231 24.1801 37.7748C24.1801 37.7748 24.1898 37.7748 24.1995 37.7748C24.2865 37.7264 24.3833 37.678 24.4704 37.6296C24.4704 37.6296 24.4897 37.6296 24.4994 37.6199C24.5865 37.5716 24.6736 37.5232 24.7607 37.4748C24.78 37.4651 24.7994 37.4555 24.809 37.4458C24.8864 37.3974 24.9639 37.3587 25.0413 37.3103C25.0606 37.3006 25.08 37.291 25.0993 37.2716C25.1767 37.2232 25.2638 37.1749 25.3412 37.1265C25.3509 37.1265 25.3606 37.1168 25.3702 37.1071C25.7476 36.8749 26.1153 36.6233 26.4636 36.3621C26.5507 36.304 26.6281 36.2363 26.7055 36.1782C26.7055 36.1782 26.7249 36.1686 26.7249 36.1589C26.8023 36.1008 26.8797 36.0428 26.9474 35.9847C26.9668 35.975 26.9764 35.9557 26.9958 35.946C27.0635 35.888 27.1313 35.8396 27.199 35.7815C27.2183 35.7622 27.2474 35.7428 27.2667 35.7235C27.3345 35.6654 27.4022 35.6074 27.4699 35.5493C27.4893 35.5396 27.4989 35.5203 27.5183 35.5106C27.5957 35.4429 27.6634 35.3751 27.7408 35.3074C27.7408 35.3074 27.7408 35.3074 27.7505 35.3074C28.0698 35.0171 28.3795 34.7075 28.6794 34.3979C28.6988 34.3785 28.7084 34.3688 28.7181 34.3495C28.7762 34.2818 28.8439 34.214 28.902 34.156C28.9213 34.1366 28.9503 34.1076 28.9697 34.0882C29.0181 34.0302 29.0761 33.9721 29.1245 33.9141C29.1535 33.885 29.1826 33.8463 29.2116 33.8173C29.26 33.7593 29.318 33.6915 29.3664 33.6335C29.3954 33.6044 29.4148 33.5754 29.4438 33.5464C29.5019 33.4787 29.5502 33.4206 29.5986 33.3529C29.618 33.3238 29.6373 33.3045 29.6567 33.2755C29.7051 33.2077 29.7631 33.14 29.8115 33.0723C29.8308 33.0432 29.8599 33.0142 29.8792 32.9852C29.8792 32.9852 29.8792 32.9755 29.8889 32.9658C29.9373 32.9078 29.9857 32.84 30.034 32.782C30.1695 32.5981 30.305 32.4143 30.4404 32.2305C30.4404 32.2305 30.4404 32.2305 30.4404 32.2208C30.4888 32.1531 30.5372 32.0757 30.5856 32.0079C30.6049 31.9789 30.6243 31.9499 30.6533 31.9112C30.692 31.8434 30.7404 31.7854 30.7791 31.7176C30.8081 31.6789 30.8275 31.6402 30.8565 31.6015C30.8952 31.5435 30.9339 31.4854 30.9726 31.4274C31.0016 31.379 31.0306 31.3306 31.0597 31.2822C31.0984 31.2242 31.1371 31.1564 31.1758 31.0984C31.1951 31.0597 31.2242 31.021 31.2435 30.9823C31.2822 30.9145 31.3209 30.8468 31.3596 30.7791C31.3693 30.7597 31.379 30.7404 31.3983 30.721C31.4177 30.692 31.4274 30.6726 31.4467 30.6436C31.4854 30.5856 31.5144 30.5178 31.5532 30.4598C31.5822 30.4114 31.6015 30.363 31.6306 30.3146C31.6306 30.3146 31.6306 30.3146 31.6306 30.305C31.6596 30.2469 31.6886 30.1888 31.7273 30.1308C31.766 30.0534 31.8047 29.976 31.8434 29.8986C31.8628 29.8599 31.8821 29.8308 31.8918 29.7921C31.9208 29.7438 31.9402 29.6857 31.9692 29.6276C31.9982 29.5696 32.0273 29.5115 32.0563 29.4535C32.0853 29.3954 32.1144 29.3374 32.1337 29.2793C32.1627 29.2213 32.1918 29.1632 32.2111 29.1051C32.2401 29.0471 32.2595 28.989 32.2885 28.931C32.3175 28.8729 32.3466 28.8052 32.3659 28.7471C32.3853 28.6988 32.4143 28.6407 32.4337 28.5923C32.4627 28.5343 32.482 28.4762 32.5014 28.4182C32.5014 28.4085 32.5014 28.3988 32.5111 28.3891C32.5304 28.3311 32.5594 28.273 32.5788 28.2246C32.6078 28.1569 32.6369 28.0892 32.6562 28.0214C32.6756 27.9634 32.7046 27.9053 32.7239 27.857C32.7433 27.7892 32.7723 27.7312 32.7917 27.6634C32.811 27.6054 32.84 27.5376 32.8594 27.4796C32.8787 27.4119 32.9078 27.3441 32.9271 27.2764C32.9465 27.2183 32.9658 27.1603 32.9852 27.1022C33.0239 26.9861 33.0626 26.8603 33.1013 26.7442C33.1206 26.6862 33.14 26.6281 33.1497 26.5797C33.169 26.5023 33.1981 26.4346 33.2174 26.3572C33.2368 26.3088 33.2464 26.2604 33.2561 26.212C33.2561 26.212 33.2561 26.212 33.2561 26.2024C33.2755 26.125 33.3045 26.0476 33.3238 25.9701C33.3335 25.9218 33.3529 25.8734 33.3625 25.8153C33.3625 25.8153 33.3625 25.8153 33.3625 25.8057C33.3819 25.7379 33.4013 25.6605 33.4206 25.5928C33.4303 25.5347 33.4496 25.4864 33.4593 25.4283C33.4787 25.3509 33.498 25.2735 33.5174 25.1961C33.527 25.138 33.5464 25.0896 33.5561 25.0316C33.5754 24.9445 33.5948 24.8671 33.6141 24.78C33.6238 24.7316 33.6335 24.6833 33.6431 24.6349C33.6625 24.5478 33.6819 24.4607 33.6915 24.3736C33.6915 24.3736 33.6915 24.3639 33.6915 24.3543C33.6915 24.3059 33.7109 24.2672 33.7206 24.2188C33.7399 24.1027 33.7689 23.9866 33.7883 23.8705C33.7883 23.8511 33.7883 23.8414 33.7883 23.8221C33.8076 23.706 33.827 23.5802 33.8463 23.4544C33.8463 23.4447 33.8463 23.4254 33.8463 23.4157C33.8463 23.3673 33.856 23.3189 33.8657 23.2706C33.8657 23.2512 33.8657 23.2415 33.8657 23.2222C33.8754 23.1448 33.885 23.0674 33.8947 22.99C33.8947 22.9416 33.9044 22.8932 33.9141 22.8448C33.9237 22.7577 33.9334 22.6707 33.9431 22.5933C33.9431 22.5352 33.9528 22.4771 33.9625 22.4191C33.9625 22.332 33.9818 22.2449 33.9915 22.1675C33.9915 22.1191 33.9915 22.0611 34.0108 22.0127C34.0108 21.9256 34.0302 21.8385 34.0302 21.7515C34.0302 21.6934 34.0302 21.645 34.0399 21.587C34.0399 21.4999 34.0495 21.4128 34.0592 21.3354C34.0592 21.2773 34.0592 21.2193 34.0689 21.1612C34.0689 21.0741 34.0689 20.9967 34.0786 20.9096C34.0786 20.8516 34.0786 20.7935 34.0786 20.7355C34.0786 20.5903 34.0786 20.4549 34.0882 20.3097C34.0882 20.1936 34.0882 20.0775 34.0882 19.9614C34.0882 19.8453 34.0882 19.7292 34.0882 19.6131C34.0882 19.497 34.0882 19.3905 34.0786 19.2744C34.0786 19.1583 34.0689 19.0519 34.0592 18.9358C34.0592 18.8293 34.0399 18.7132 34.0302 18.6068C34.0108 18.3842 33.9915 18.1617 33.9625 17.9488C33.9431 17.8037 33.9237 17.6585 33.8947 17.5134C33.8947 17.4844 33.885 17.4457 33.8754 17.4166C33.856 17.2715 33.827 17.1264 33.798 16.9812C33.7593 16.7684 33.7109 16.5555 33.6625 16.3523C33.6141 16.1491 33.5561 15.9362 33.498 15.733C33.44 15.5298 33.3722 15.3266 33.3045 15.1235C33.169 14.7267 33.0142 14.3397 32.8497 13.9527C32.7626 13.7591 32.6756 13.5753 32.5885 13.3915C32.5401 13.3044 32.5014 13.2076 32.453 13.1205C32.4337 13.0818 32.4143 13.0528 32.395 13.0141C32.3175 12.869 32.2401 12.7238 32.1531 12.5787C32.1047 12.4916 32.0466 12.4045 31.9982 12.3174C31.8918 12.1433 31.7854 11.9788 31.6693 11.8046C31.4757 11.5143 31.2629 11.2241 31.05 10.9531C31.021 10.9144 30.9919 10.8757 30.9629 10.8467C30.8371 10.6919 30.7113 10.5467 30.5759 10.3919C30.5469 10.3532 30.5082 10.3145 30.4791 10.2855C30.4501 10.2468 30.4114 10.2178 30.3824 10.1791C30.3146 10.1113 30.2469 10.0339 30.1792 9.96619C30.0437 9.83073 29.8986 9.69526 29.7631 9.5598C29.6954 9.49207 29.618 9.42434 29.5502 9.36628C29.4728 9.29855 29.4051 9.2405 29.3277 9.17276C29.1051 8.98892 28.8826 8.80508 28.6504 8.64059C28.0311 8.1955 27.3635 7.80846 26.6765 7.49883C26.5894 7.46013 26.5023 7.42142 26.4152 7.38272C26.3282 7.34402 26.2508 7.31499 26.1637 7.28596C26.1346 7.27629 26.1056 7.26661 26.0766 7.25693C26.0185 7.23758 25.9605 7.21823 25.9024 7.1892C25.8734 7.17953 25.8444 7.16985 25.8057 7.16018C25.7476 7.14082 25.6992 7.12147 25.6412 7.10212C25.6025 7.09244 25.5734 7.08277 25.5347 7.07309C25.4864 7.05374 25.438 7.04406 25.3896 7.02471C25.3509 7.01504 25.3122 7.00536 25.2735 6.98601C25.2251 6.97633 25.1767 6.95698 25.1283 6.9473C25.0896 6.9473 25.0509 6.92795 25.0219 6.91828C24.9735 6.9086 24.9155 6.88925 24.8671 6.87957C24.8284 6.87957 24.7897 6.86022 24.751 6.85055C24.6639 6.83119 24.5768 6.81184 24.4897 6.79249C24.4027 6.77314 24.3156 6.75379 24.2285 6.74411C24.1995 6.74411 24.1608 6.73443 24.1317 6.72476C24.0737 6.72476 24.0253 6.70541 23.9672 6.69573C23.9285 6.69573 23.8802 6.68606 23.8414 6.67638C23.7931 6.67638 23.7447 6.6667 23.6963 6.65703C23.6576 6.65703 23.6189 6.65703 23.5802 6.64735C23.5221 6.64735 23.4738 6.63768 23.4157 6.628C23.377 6.628 23.348 6.628 23.3093 6.628C23.2512 6.628 23.1932 6.628 23.1351 6.61832C23.0964 6.61832 23.0674 6.61832 23.0287 6.61832C22.9609 6.61832 22.8932 6.61832 22.8255 6.61832C22.8061 6.61832 22.7771 6.61832 22.7577 6.61832C22.661 6.61832 22.5739 6.61832 22.4771 6.61832C21.5192 6.61832 20.5903 6.75379 19.7002 7.00536C24.7607 8.4374 28.5246 13.6914 28.5246 19.9614C28.5246 26.2314 24.7703 31.4854 19.7002 32.9175C18.81 33.169 17.8811 33.3045 16.9135 33.3045C16.8167 33.3045 16.72 33.3045 16.6232 33.3045C16.5265 33.3045 16.4297 33.3045 16.3329 33.2948C16.1394 33.2851 15.9459 33.2658 15.7524 33.2464C15.6556 33.2368 15.5589 33.2271 15.4621 33.2077C15.4621 33.2077 15.4331 33.2077 15.4234 33.2077C15.4234 33.2077 15.4137 33.2077 15.4041 33.2077C15.2589 33.1884 15.1138 33.1594 14.9686 33.1303C14.9396 33.1303 14.9203 33.1303 14.8912 33.111C14.7945 33.0916 14.7074 33.0723 14.6106 33.0529C14.5332 33.0336 14.4558 33.0142 14.3687 32.9949C14.2913 32.9755 14.2139 32.9562 14.1365 32.9271C14.1365 32.9271 14.0881 32.9175 14.0591 32.9078C14.0204 32.8981 13.972 32.8788 13.9333 32.8691C13.9043 32.8691 13.8753 32.8497 13.8559 32.84C13.8366 32.84 13.8172 32.8304 13.7882 32.8207C13.7882 32.8207 13.7688 32.8207 13.7495 32.811C13.7495 32.811 13.7398 32.811 13.7301 32.811C13.5656 32.7626 13.4108 32.7046 13.2463 32.6369C13.1592 32.6078 13.0722 32.5691 12.9851 32.5304C12.869 32.482 12.7529 32.4337 12.6464 32.3853C12.6174 32.3659 12.5787 32.3562 12.5497 32.3369C12.4335 32.2885 12.3271 32.2305 12.211 32.1724C12.0949 32.1144 11.9885 32.0563 11.8723 31.9886C11.8433 31.9692 11.824 31.9595 11.7949 31.9402C11.6788 31.8725 11.5724 31.8144 11.466 31.7467C11.3885 31.6983 11.3015 31.6499 11.2241 31.5919C11.1467 31.5435 11.0692 31.4854 10.9822 31.437C10.9048 31.379 10.8273 31.3306 10.7499 31.2725C10.5951 31.1564 10.4403 31.0403 10.2952 30.9242C10.2178 30.8662 10.15 30.8081 10.0726 30.7404C9.99522 30.6823 9.92749 30.6146 9.85008 30.5469C9.78235 30.4791 9.70494 30.4211 9.63721 30.3533C9.56948 30.2856 9.49207 30.2179 9.42434 30.1501C9.35661 30.0824 9.28888 30.0147 9.22114 29.9469C9.16309 29.8889 9.11471 29.8308 9.05665 29.7825C9.05665 29.7728 9.0373 29.7631 9.02763 29.7534C9.02763 29.7534 9.02763 29.7534 9.01795 29.7438C8.9986 29.7244 8.97925 29.7051 8.95989 29.676C8.95989 29.676 8.95989 29.676 8.95989 29.6663C8.90184 29.6083 8.84378 29.5406 8.78573 29.4825C8.78573 29.4825 8.77605 29.4728 8.76638 29.4632C8.718 29.4051 8.65994 29.347 8.61156 29.2793C8.59221 29.26 8.58253 29.2406 8.56318 29.2213C8.52448 29.1729 8.4761 29.1245 8.4374 29.0664C8.40837 29.0374 8.37934 28.9987 8.35999 28.96C8.27291 28.8439 8.17615 28.7278 8.08906 28.6117C8.03101 28.5343 7.97295 28.4472 7.9149 28.3698C7.85684 28.2924 7.79879 28.2053 7.74073 28.1182C7.68267 28.0311 7.63429 27.9537 7.57624 27.8666C7.51818 27.7795 7.4698 27.6925 7.41175 27.6151C7.36337 27.528 7.30531 27.4409 7.25693 27.3538C7.20855 27.2667 7.16017 27.1796 7.1118 27.0926C7.06342 27.0055 7.01504 26.9087 6.96666 26.8216C6.91828 26.7345 6.8699 26.6378 6.83119 26.5507C6.78281 26.4636 6.74411 26.3669 6.69573 26.2701C6.65703 26.1733 6.60865 26.0863 6.56994 25.9895C6.51189 25.8637 6.46351 25.7379 6.40545 25.6025C6.39578 25.5734 6.37643 25.5444 6.36675 25.5057C6.31837 25.3799 6.26999 25.2445 6.22161 25.1187C6.15388 24.9251 6.08615 24.722 6.01842 24.5188C5.92166 24.2188 5.83457 23.9092 5.75717 23.5995C5.67976 23.2899 5.61203 22.9706 5.55397 22.6513C5.51527 22.4384 5.48624 22.2256 5.45721 22.003C5.43786 21.8966 5.42819 21.7902 5.41851 21.6837V21.6644C5.39916 21.5192 5.38948 21.3741 5.37981 21.229C5.37981 21.1999 5.37981 21.1612 5.37981 21.1322C5.37013 20.9871 5.36046 20.8419 5.35078 20.6871C5.35078 20.571 5.35078 20.4646 5.3411 20.3484C5.3411 20.2323 5.3411 20.1162 5.3411 20.0001C5.3411 19.884 5.3411 19.7679 5.3411 19.6518C5.3411 19.5066 5.3411 19.3712 5.35078 19.226C5.35078 19.1873 5.35078 19.1486 5.35078 19.1003C5.35078 19.0035 5.35078 18.8971 5.36046 18.8003C5.36046 18.7809 5.36046 18.7616 5.36046 18.7519C5.36046 18.7229 5.36046 18.6939 5.36046 18.6648C5.36046 18.5681 5.37013 18.4713 5.37981 18.3746C5.37981 18.3552 5.37981 18.3359 5.37981 18.3068C5.37981 18.2875 5.37981 18.2584 5.37981 18.2391C5.37981 18.1423 5.39916 18.0553 5.39916 17.9585C5.39916 17.9295 5.39916 17.9004 5.39916 17.8617C5.39916 17.8521 5.39916 17.8327 5.39916 17.823C5.39916 17.823 5.39916 17.823 5.39916 17.8134C5.40883 17.7166 5.41851 17.6102 5.42819 17.5134C5.42819 17.4844 5.42819 17.4553 5.42819 17.4263C5.42819 17.4263 5.42819 17.407 5.42819 17.3973C5.44754 17.2618 5.45721 17.1264 5.47657 16.9812C5.49592 16.8458 5.51527 16.7103 5.53462 16.5652C5.53462 16.5652 5.53462 16.5555 5.53462 16.5458C5.53462 16.5071 5.5443 16.4684 5.55397 16.4394C5.55397 16.4297 5.55397 16.42 5.55397 16.4103C5.56365 16.3233 5.583 16.2459 5.59268 16.1588C5.59268 16.1394 5.59268 16.1297 5.59268 16.1201C5.59268 16.091 5.60235 16.062 5.61203 16.033C5.63138 15.9362 5.65073 15.8395 5.66041 15.7427C5.66041 15.7234 5.66041 15.704 5.67008 15.6847C5.67008 15.6653 5.67976 15.6363 5.68944 15.6169C5.70879 15.5298 5.72814 15.4331 5.74749 15.346C5.74749 15.317 5.75717 15.2879 5.76684 15.2686C5.76684 15.2492 5.76684 15.2299 5.77652 15.2105C5.79587 15.1235 5.81522 15.0364 5.83458 14.9493C5.83458 14.9203 5.85393 14.8816 5.85393 14.8525C5.85393 14.8428 5.85393 14.8235 5.85393 14.8138C5.88295 14.7074 5.90231 14.601 5.93133 14.4945C5.93133 14.4752 5.94101 14.4558 5.95069 14.4365C5.95069 14.4365 5.95069 14.4365 5.95069 14.4268C5.97971 14.2913 6.01842 14.1655 6.05712 14.0301C6.05712 14.0301 6.05712 14.0301 6.05712 14.0204C6.05712 14.001 6.0668 13.972 6.07647 13.9527C6.1055 13.8462 6.13453 13.7495 6.16356 13.643C6.16356 13.6334 6.16356 13.6237 6.17323 13.6043C6.17323 13.6043 6.17323 13.585 6.17323 13.5753C6.18291 13.5463 6.19258 13.5076 6.20226 13.4785C6.22161 13.4205 6.24096 13.3624 6.26032 13.3044C6.27967 13.2366 6.29902 13.1689 6.32805 13.1012C6.3474 13.0335 6.37643 12.9657 6.39578 12.898C6.42481 12.8206 6.44416 12.7432 6.47319 12.6658C6.48286 12.6367 6.49254 12.598 6.51189 12.569C6.53124 12.511 6.55059 12.4529 6.56994 12.4045C6.56994 12.3852 6.57962 12.3755 6.5893 12.3561C6.61832 12.2884 6.63768 12.2207 6.6667 12.1433C6.68606 12.1046 6.69573 12.0562 6.71508 12.0175C6.71508 12.0175 6.71508 11.9981 6.72476 11.9885C6.75379 11.911 6.78281 11.8336 6.81184 11.7659C6.83119 11.7175 6.85055 11.6788 6.86022 11.6304C6.87957 11.5821 6.89893 11.5434 6.91828 11.495C6.94731 11.4273 6.97633 11.3498 7.00536 11.2821C7.00536 11.2724 7.01504 11.2531 7.02471 11.2434C7.04406 11.195 7.06342 11.1563 7.08277 11.1079C7.1118 11.0499 7.13115 10.9918 7.16018 10.9338C7.16018 10.9144 7.17953 10.8951 7.1892 10.866C7.1892 10.866 7.1892 10.8564 7.19888 10.8467C7.21823 10.8177 7.22791 10.779 7.24726 10.7499C7.27629 10.6919 7.29564 10.6338 7.32467 10.5854C7.33434 10.5564 7.35369 10.5274 7.36337 10.4984C7.37305 10.4693 7.3924 10.45 7.40207 10.421C7.4311 10.3532 7.4698 10.2952 7.49883 10.2274C7.51818 10.1984 7.52786 10.1597 7.54721 10.1307C7.55689 10.1113 7.56656 10.092 7.57624 10.0726C7.60527 10.0146 7.63429 9.96619 7.66332 9.90813C7.66332 9.90813 7.66332 9.89846 7.673 9.88878C7.69235 9.85008 7.7117 9.81138 7.73105 9.77267C7.73105 9.763 7.74073 9.74364 7.75041 9.73397C7.76976 9.69526 7.79879 9.65656 7.81814 9.60818C7.81814 9.58883 7.83749 9.57915 7.84716 9.5598C7.87619 9.51142 7.90522 9.45337 7.93425 9.40499C7.96328 9.35661 7.9923 9.30823 8.02133 9.25017C8.05036 9.19212 8.08906 9.13406 8.11809 9.07601C8.11809 9.07601 8.12777 9.05665 8.13744 9.04698C8.16647 8.9986 8.1955 8.95022 8.22453 8.89216C8.25355 8.84378 8.2729 8.80508 8.30193 8.7567C8.31161 8.73735 8.33096 8.718 8.34064 8.69864C8.36966 8.65994 8.38902 8.61156 8.41804 8.57286C8.44707 8.52448 8.4761 8.48577 8.49545 8.44707C8.5148 8.41804 8.53415 8.38902 8.54383 8.35999C8.56318 8.32128 8.59221 8.28258 8.61156 8.25355C8.63091 8.21485 8.65994 8.18582 8.67929 8.14712C8.70832 8.10841 8.73735 8.06003 8.7567 8.02133C8.77605 7.9923 8.7954 7.96328 8.81476 7.93425C8.83411 7.90522 8.85346 7.87619 8.87281 7.84716C8.91152 7.79878 8.94054 7.74073 8.97925 7.69235C8.98892 7.673 9.00827 7.65365 9.01795 7.63429C9.02763 7.61494 9.04698 7.59559 9.05665 7.57624C9.07601 7.55689 9.08568 7.52786 9.10503 7.50851C9.14374 7.46013 9.17277 7.41175 9.21147 7.36337C9.2792 7.26661 9.35661 7.16985 9.43401 7.06342C9.43401 7.06342 9.44369 7.04406 9.45337 7.04406C9.50175 6.97633 9.55013 6.91828 9.58883 6.86022C9.60818 6.83119 9.62753 6.81184 9.64688 6.78281C9.66624 6.76346 9.67591 6.74411 9.69526 6.72476C9.73397 6.67638 9.78235 6.61832 9.82105 6.56994C9.8404 6.55059 9.85975 6.52156 9.87911 6.50221C9.89846 6.47319 9.92749 6.44416 9.94684 6.41513C9.97587 6.37643 10.0049 6.3474 10.0339 6.30869C10.0629 6.27967 10.0823 6.25064 10.1113 6.21194C10.1404 6.18291 10.1694 6.1442 10.1984 6.11518C10.2178 6.08615 10.2468 6.05712 10.2758 6.02809C10.2952 5.99907 10.3242 5.97004 10.3435 5.95069C10.3823 5.91198 10.421 5.8636 10.4597 5.8249C10.479 5.80555 10.4984 5.7862 10.508 5.76684C10.5274 5.74749 10.5467 5.72814 10.5661 5.69911C10.6145 5.64106 10.6725 5.583 10.7209 5.53462C10.7209 5.52495 10.7403 5.51527 10.7499 5.50559C10.8273 5.41851 10.9144 5.3411 10.9918 5.25402C11.0789 5.15726 11.1757 5.07018 11.2628 4.98309C11.3208 4.92504 11.3789 4.86698 11.4466 4.80893C11.4466 4.80893 11.4563 4.80893 11.466 4.79925C11.495 4.77022 11.5143 4.75087 11.5434 4.72185C11.5917 4.68314 11.6304 4.63476 11.6788 4.59606C11.6982 4.58638 11.7079 4.56703 11.7175 4.55735C11.7562 4.52833 11.7853 4.48962 11.824 4.4606C11.8627 4.43157 11.8917 4.40254 11.9304 4.37351C11.9498 4.35416 11.9594 4.34448 11.9788 4.33481C12.0272 4.29611 12.0755 4.2574 12.1142 4.20902C12.1433 4.18967 12.1626 4.17032 12.1916 4.15097C12.2013 4.14129 12.211 4.13161 12.2304 4.12194C12.2884 4.07356 12.3561 4.0155 12.4142 3.96712C12.511 3.88972 12.6174 3.80263 12.7141 3.72523C12.8109 3.64782 12.9173 3.57041 13.0238 3.493C13.1012 3.43495 13.1786 3.37689 13.256 3.32851C13.285 3.30916 13.3141 3.28981 13.3334 3.27046C13.3915 3.23175 13.4495 3.19305 13.5076 3.15435C13.5172 3.15435 13.5269 3.14467 13.5366 3.135C13.5753 3.10597 13.614 3.08662 13.6527 3.05759C13.6914 3.02856 13.7398 2.99953 13.7785 2.9705C13.7979 2.9705 13.8075 2.95115 13.8269 2.94148C13.8753 2.91245 13.9236 2.87375 13.972 2.84472C14.001 2.82537 14.0397 2.80601 14.0688 2.77699C14.0688 2.77699 14.0688 2.77699 14.0785 2.77699C14.1462 2.73828 14.2139 2.6899 14.2816 2.6512C14.3881 2.58347 14.4945 2.51574 14.6106 2.45768C14.7171 2.38995 14.8332 2.33189 14.9396 2.27384C14.9686 2.26416 14.988 2.24481 15.017 2.23514C15.0654 2.21578 15.1041 2.18676 15.1525 2.1674C15.1815 2.15773 15.2009 2.13838 15.2299 2.1287C15.317 2.08032 15.3944 2.04162 15.4815 2.00291C15.4911 2.00291 15.5008 1.99324 15.5105 1.98356C15.5492 1.96421 15.5879 1.94486 15.6169 1.92551C15.675 1.89648 15.7234 1.87713 15.7814 1.8481C15.8685 1.8094 15.9459 1.77069 16.033 1.73199C16.062 1.72231 16.091 1.70296 16.1201 1.69328C16.1588 1.67393 16.1878 1.66426 16.2265 1.64491C16.2459 1.64491 16.2652 1.62555 16.2846 1.61588C16.2846 1.61588 16.3426 1.59653 16.362 1.57717C16.4491 1.53847 16.5361 1.49977 16.6329 1.46106C16.749 1.41268 16.8651 1.3643 16.9909 1.3256C17.107 1.27722 17.2328 1.23852 17.3489 1.19981C17.3973 1.18046 17.4457 1.17079 17.5037 1.15143C17.7263 1.07403 17.9488 1.00629 18.1714 0.938564C18.3842 0.880508 18.6068 0.822453 18.8197 0.764397C19.0712 0.706342 19.3131 0.648286 19.5744 0.599907C20.8613 0.0870832 21.7902 0 22.7287 0H17.1651C7.68267 0 0 8.84378 0 19.7389C0 30.6339 7.68267 39.4777 17.1651 39.4777H17.1747Z" fill="#CDF200"/>
<mask id="mask0_1077_7724" style="mask-type:luminance" maskUnits="userSpaceOnUse" x="0" y="0" width="35" height="40">
<path d="M17.1652 0C7.95378 0 0.425919 8.35999 0.0195312 18.839V20.6387C0.425919 31.1177 7.95378 39.4777 17.1749 39.4777C18.1232 39.4777 19.052 39.3906 19.9616 39.2261C20.0874 39.2068 20.2035 39.1778 20.3293 39.1487C20.368 39.1487 20.4067 39.1294 20.4551 39.1197C20.5325 39.1004 20.6099 39.0907 20.6776 39.0713C20.7453 39.052 20.8034 39.0423 20.8711 39.023C20.9195 39.0133 20.9776 38.9939 21.0259 38.9843C21.1033 38.9649 21.1711 38.9455 21.2485 38.9262C21.2872 38.9165 21.3259 38.9068 21.3646 38.8972C21.442 38.8778 21.5291 38.8488 21.6065 38.8294C21.6355 38.8294 21.6645 38.8101 21.7032 38.8004C21.7903 38.7714 21.8774 38.7424 21.9548 38.7133C21.9838 38.7133 22.0032 38.694 22.0322 38.6843C22.1193 38.6553 22.2064 38.6262 22.3032 38.5875C22.3225 38.5875 22.3419 38.5779 22.3612 38.5682C22.458 38.5295 22.5547 38.5005 22.6515 38.4618C22.6515 38.4618 22.6612 38.4618 22.6708 38.4618C23.0869 38.2973 23.4933 38.1231 23.89 37.9296C23.9868 37.8812 24.0835 37.8328 24.1803 37.7844C24.1803 37.7844 24.19 37.7844 24.1996 37.7844C24.2867 37.7361 24.3835 37.6877 24.4706 37.6393C24.4706 37.6393 24.4899 37.6393 24.4996 37.6296C24.5867 37.5812 24.6737 37.5329 24.7608 37.4845C24.7802 37.4845 24.7995 37.4651 24.8092 37.4555C24.8866 37.4071 24.964 37.3684 25.0414 37.32C25.0608 37.3103 25.0801 37.3006 25.0995 37.2813C25.1769 37.2329 25.264 37.1845 25.3414 37.1362C25.3511 37.1362 25.3607 37.1265 25.3704 37.1168C25.7478 36.8846 26.1058 36.633 26.4638 36.3718C26.5509 36.3137 26.6283 36.246 26.7057 36.1879C26.7057 36.1879 26.725 36.1782 26.725 36.1686C26.8025 36.1105 26.8799 36.0524 26.9476 35.9944C26.9669 35.9847 26.9766 35.9654 26.996 35.9557C27.0637 35.8976 27.1314 35.8493 27.1992 35.7912C27.2185 35.7718 27.2475 35.7525 27.2669 35.7331C27.3346 35.6751 27.4024 35.617 27.4701 35.559C27.4894 35.5396 27.4991 35.5299 27.5185 35.5203C27.5959 35.4525 27.6636 35.3848 27.741 35.3171C27.741 35.3171 27.741 35.3171 27.7507 35.3171C28.07 35.0268 28.3796 34.7172 28.6796 34.4075L28.728 34.3592C28.786 34.2914 28.8537 34.2237 28.9118 34.1656C28.9311 34.1463 28.9602 34.1173 28.9795 34.0979C29.0279 34.0399 29.086 33.9818 29.1343 33.9237C29.1634 33.8947 29.1924 33.856 29.2214 33.827C29.2698 33.7689 29.3279 33.7012 29.3762 33.6431C29.4053 33.6141 29.4246 33.5851 29.4536 33.5561C29.502 33.4883 29.5601 33.4303 29.6085 33.3625C29.6278 33.3335 29.6472 33.3142 29.6665 33.2851C29.7149 33.2174 29.773 33.1497 29.8213 33.0819C29.8407 33.0529 29.8697 33.0239 29.8891 32.9949C29.8891 32.9949 29.8891 32.9852 29.8987 32.9755C29.9471 32.9175 29.9955 32.8497 30.0439 32.7917C30.1793 32.6078 30.3148 32.424 30.4503 32.2401C30.4503 32.2401 30.4503 32.2401 30.4503 32.2305C30.4986 32.1627 30.547 32.0853 30.5954 32.0176C30.6148 31.9886 30.6341 31.9595 30.6631 31.9208C30.7018 31.8531 30.7502 31.795 30.7889 31.7273C30.818 31.6886 30.8373 31.6499 30.8663 31.6112C30.905 31.5531 30.9437 31.4951 30.9824 31.437C31.0115 31.3887 31.0405 31.3403 31.0695 31.2919C31.1082 31.2338 31.1469 31.1661 31.1856 31.1081C31.2147 31.0694 31.234 31.0306 31.2534 30.9919C31.2921 30.9242 31.3308 30.8565 31.3695 30.7888C31.3792 30.7694 31.3888 30.75 31.4082 30.7307C31.4275 30.7017 31.4372 30.6823 31.4566 30.6533C31.4953 30.5952 31.5243 30.5275 31.563 30.4694C31.592 30.4211 31.6114 30.3727 31.6404 30.3243C31.6404 30.3243 31.6404 30.3243 31.6404 30.3146C31.6694 30.2566 31.7081 30.1985 31.7372 30.1405C31.7759 30.0631 31.8146 29.9857 31.8533 29.9082C31.8726 29.8792 31.892 29.8405 31.9017 29.8018C31.9307 29.7534 31.95 29.6954 31.9791 29.6373C32.0081 29.5793 32.0371 29.5212 32.0661 29.4632C32.0952 29.4051 32.1242 29.347 32.1436 29.289C32.1726 29.2309 32.2016 29.1729 32.221 29.1148C32.25 29.0568 32.2693 28.9987 32.2984 28.9407C32.3274 28.8826 32.3564 28.8149 32.3758 28.7568C32.3951 28.7084 32.4242 28.6504 32.4435 28.602C32.4725 28.5439 32.4919 28.4859 32.5112 28.4278C32.5112 28.4182 32.5112 28.4085 32.5209 28.3988C32.5403 28.3407 32.5693 28.2827 32.5886 28.2343C32.6177 28.1666 32.6467 28.0988 32.666 28.0311C32.6854 27.9731 32.7144 27.915 32.7338 27.8666C32.7531 27.7989 32.7822 27.7408 32.8015 27.6731C32.8209 27.6151 32.8499 27.5473 32.8692 27.4893C32.8886 27.4215 32.9176 27.3538 32.937 27.2861C32.9563 27.228 32.9757 27.17 32.995 27.1119C33.0337 26.9958 33.0724 26.87 33.1111 26.7539C33.1305 26.6958 33.1498 26.6378 33.1595 26.5797C33.1789 26.5023 33.2079 26.4346 33.2273 26.3572C33.2466 26.3088 33.2563 26.2604 33.266 26.212C33.266 26.212 33.266 26.212 33.266 26.2024C33.2853 26.125 33.3143 26.0476 33.3337 25.9701C33.3434 25.9218 33.3627 25.8734 33.3724 25.8153C33.3724 25.8153 33.3724 25.8057 33.3724 25.796C33.3917 25.7283 33.4111 25.6508 33.4304 25.5831C33.4401 25.5251 33.4595 25.4767 33.4692 25.4186C33.4885 25.3412 33.5079 25.2638 33.5272 25.1864C33.5369 25.1283 33.5562 25.08 33.5659 25.0219C33.5853 24.9348 33.6046 24.8574 33.624 24.7703C33.6336 24.722 33.6433 24.6736 33.653 24.6252C33.6723 24.5381 33.6917 24.451 33.7014 24.3639C33.7014 24.3639 33.7014 24.3543 33.7014 24.3446C33.7014 24.2962 33.7207 24.2575 33.7304 24.2091C33.7498 24.093 33.7788 23.9769 33.7981 23.8608C33.7981 23.8414 33.7981 23.8318 33.7981 23.8124C33.8175 23.6963 33.8368 23.5705 33.8562 23.4447C33.8562 23.4351 33.8562 23.4157 33.8562 23.406C33.8562 23.3577 33.8659 23.3093 33.8755 23.2609C33.8755 23.2415 33.8755 23.2319 33.8755 23.2125C33.8852 23.1351 33.8949 23.0577 33.9046 22.9803C33.9046 22.9319 33.9142 22.8739 33.9239 22.8255C33.9336 22.7384 33.9433 22.6513 33.9529 22.5739C33.9529 22.5158 33.9626 22.4578 33.9723 22.3997C33.9723 22.3127 33.9916 22.2352 34.0013 22.1482C34.0013 22.0998 34.011 22.0417 34.0207 21.9933C34.0207 21.9063 34.04 21.8192 34.04 21.7321C34.04 21.674 34.04 21.6257 34.0497 21.5676C34.0497 21.4805 34.0594 21.3934 34.0691 21.316C34.0691 21.258 34.0691 21.1999 34.0787 21.1419C34.0787 21.0548 34.0787 20.9774 34.0884 20.8903C34.0884 20.8322 34.0884 20.7742 34.0884 20.7161C34.0884 20.571 34.0884 20.4355 34.0981 20.2904C34.0981 20.1743 34.0981 20.0582 34.0981 19.9421C34.0981 19.8259 34.0981 19.7098 34.0981 19.5937C34.0981 19.4776 34.0981 19.3712 34.0884 19.2551C34.0884 19.139 34.0787 19.0325 34.0691 18.9164C34.0691 18.8003 34.0497 18.6939 34.04 18.5874C34.0207 18.3649 34.0013 18.152 33.9723 17.9295C33.9529 17.7843 33.9336 17.6392 33.9046 17.494C33.9046 17.465 33.8949 17.4263 33.8852 17.3973C33.8659 17.2522 33.8368 17.107 33.8078 16.9619C33.7691 16.749 33.7207 16.5361 33.6723 16.3329C33.624 16.1201 33.5659 15.9169 33.5079 15.7137C33.4498 15.5105 33.3821 15.3073 33.3143 15.1041C33.1789 14.7074 33.0241 14.3203 32.8596 13.9333C32.7725 13.7398 32.6854 13.556 32.5983 13.3721C32.5499 13.2754 32.5112 13.1883 32.4629 13.1012C32.4435 13.0625 32.4242 13.0335 32.4048 12.9948C32.3274 12.8496 32.25 12.7045 32.1629 12.5593C32.1145 12.4723 32.0565 12.3852 32.0081 12.2981C31.9017 12.1239 31.7952 11.9594 31.6791 11.7853C31.4856 11.495 31.2727 11.2047 31.0598 10.9338C31.0308 10.8951 31.0018 10.8564 30.9728 10.8177C30.847 10.6629 30.7212 10.5177 30.5857 10.3629C30.5567 10.3242 30.518 10.2855 30.489 10.2468C30.4599 10.2081 30.4212 10.1791 30.3922 10.1404C30.3245 10.0726 30.2567 9.99522 30.189 9.92749C30.0536 9.79202 29.9084 9.65656 29.773 9.5211C29.7052 9.45337 29.6278 9.38564 29.5601 9.32758C29.4827 9.25985 29.4149 9.20179 29.3375 9.13406C29.115 8.95022 28.8924 8.76638 28.6505 8.60189C28.0313 8.14712 27.3637 7.76976 26.6767 7.46013C26.5896 7.42142 26.5025 7.38272 26.4154 7.34402C26.3283 7.30531 26.2509 7.27629 26.1638 7.24726C26.1348 7.23758 26.1058 7.22791 26.0768 7.21823C26.0187 7.19888 25.9606 7.17953 25.9026 7.16018C25.8736 7.1505 25.8445 7.14082 25.8058 7.13115C25.7478 7.1118 25.6994 7.09244 25.6413 7.07309C25.6026 7.06342 25.5736 7.05374 25.5349 7.04406C25.4865 7.02471 25.4381 7.01504 25.3898 6.99568C25.3511 6.98601 25.3124 6.97633 25.2737 6.95698C25.2253 6.94731 25.1769 6.92795 25.1285 6.91828C25.0898 6.9086 25.0511 6.89893 25.0221 6.88925C24.9737 6.87957 24.9156 6.86022 24.8673 6.85055C24.8286 6.85055 24.7899 6.83119 24.7512 6.82152C24.6641 6.80217 24.577 6.78281 24.4899 6.76346C24.4028 6.74411 24.3157 6.72476 24.2287 6.71508C24.1996 6.71508 24.1609 6.70541 24.1319 6.69573C24.0738 6.69573 24.0255 6.67638 23.9674 6.6667C23.9287 6.6667 23.8803 6.65703 23.8416 6.64735C23.7932 6.64735 23.7449 6.63768 23.6965 6.628C23.6578 6.628 23.6191 6.628 23.5707 6.61832C23.5126 6.61832 23.4643 6.60865 23.4062 6.59897C23.3675 6.59897 23.3385 6.59897 23.2998 6.59897C23.2417 6.59897 23.1837 6.59897 23.1256 6.5893C23.0869 6.5893 23.0579 6.5893 23.0192 6.5893C22.9514 6.5893 22.8837 6.5893 22.816 6.5893C22.7966 6.5893 22.7676 6.5893 22.7482 6.5893C22.6515 6.5893 22.5644 6.5893 22.4676 6.5893C21.5097 6.5893 20.5808 6.72476 19.681 6.97633C24.7415 8.40837 28.5054 13.6624 28.5054 19.9324C28.5054 26.2024 24.7512 31.4564 19.681 32.8884C18.7908 33.14 17.8619 33.2755 16.8943 33.2755C16.7976 33.2755 16.7008 33.2755 16.604 33.2755C16.5073 33.2755 16.4105 33.2755 16.3138 33.2658C16.1202 33.2561 15.9267 33.2368 15.7332 33.2174C15.6364 33.2077 15.5397 33.1981 15.4429 33.1787C15.4429 33.1787 15.4139 33.1787 15.4042 33.1787C15.4042 33.1787 15.3946 33.1787 15.3849 33.1787C15.2397 33.1594 15.0946 33.1303 14.9495 33.1013C14.9204 33.1013 14.9011 33.1013 14.8721 33.0819C14.7753 33.0626 14.6882 33.0432 14.5915 33.0239C14.514 33.0045 14.4366 32.9852 14.3496 32.9658C14.2721 32.9465 14.1947 32.9271 14.1173 32.8981C14.0883 32.8981 14.069 32.8884 14.0399 32.8787C14.0012 32.8691 13.9528 32.8497 13.9141 32.84C13.8851 32.84 13.8561 32.8207 13.8367 32.811C13.8174 32.811 13.7884 32.8013 13.769 32.7917C13.7593 32.7917 13.7496 32.7917 13.7303 32.782C13.7303 32.782 13.7206 32.782 13.7109 32.782C13.5465 32.7336 13.3916 32.6756 13.2271 32.6078C13.1401 32.5788 13.053 32.5401 12.9659 32.5014C12.8498 32.453 12.7337 32.4046 12.6272 32.3562C12.5982 32.3369 12.5595 32.3272 12.5305 32.3079C12.4144 32.2595 12.3079 32.2014 12.1918 32.1434C12.0757 32.0853 11.9693 32.0273 11.8532 31.9595C11.8241 31.9402 11.8048 31.9305 11.7758 31.9208C11.6597 31.8531 11.5532 31.795 11.4468 31.7273C11.3694 31.6789 11.2823 31.6306 11.2049 31.5725C11.1275 31.5241 11.0501 31.4661 10.963 31.4177C10.8856 31.3596 10.8082 31.3113 10.7308 31.2532C10.5759 31.1371 10.4211 31.021 10.276 30.9049C10.1986 30.8468 10.1309 30.7888 10.0534 30.721C9.97604 30.6533 9.90831 30.5952 9.8309 30.5275C9.76317 30.4598 9.68576 30.4017 9.61803 30.334C9.5503 30.2663 9.4729 30.1985 9.40516 30.1308C9.33743 30.0631 9.2697 29.9953 9.20197 29.9276C9.14391 29.8695 9.09553 29.8115 9.03748 29.7631C9.03748 29.7534 9.01813 29.7438 9.00845 29.7341C9.00845 29.7341 9.00845 29.7341 8.99878 29.7244C8.97942 29.705 8.96007 29.6857 8.94072 29.6567C8.94072 29.6567 8.94072 29.6567 8.94072 29.647C8.88266 29.5889 8.82461 29.5212 8.77623 29.4632C8.77623 29.4632 8.76655 29.4535 8.75688 29.4438C8.7085 29.3857 8.65044 29.3277 8.60206 29.26C8.58271 29.2406 8.57304 29.2213 8.55368 29.2019C8.51498 29.1535 8.4666 29.0955 8.4279 29.0471C8.39887 29.0084 8.36984 28.9794 8.35049 28.9407C8.26341 28.8245 8.16665 28.7084 8.07956 28.5923C8.02151 28.5149 7.96345 28.4278 7.9054 28.3504C7.84734 28.273 7.78929 28.1859 7.73123 28.0989C7.67318 28.0118 7.6248 27.9344 7.56674 27.8473C7.50869 27.7602 7.46031 27.6731 7.40225 27.586C7.35387 27.4989 7.29582 27.4119 7.24744 27.3248C7.19906 27.2377 7.15068 27.1506 7.1023 27.0635C7.05392 26.9764 7.00554 26.8797 6.95716 26.7926C6.90878 26.7055 6.8604 26.6088 6.8217 26.5217C6.77332 26.4249 6.73461 26.3378 6.68623 26.2411C6.64753 26.1443 6.59915 26.0572 6.56045 25.9605C6.50239 25.8347 6.45401 25.7089 6.39596 25.5734C6.38628 25.5444 6.3766 25.5154 6.35725 25.4767C6.30887 25.3509 6.26049 25.2154 6.21211 25.0896C6.14438 24.8961 6.07665 24.6929 6.00892 24.4897C5.91216 24.1898 5.82508 23.8802 5.74767 23.5705C5.67026 23.2609 5.60253 22.9416 5.54448 22.6223C5.50577 22.4094 5.47674 22.1965 5.44772 21.974C5.43804 21.8676 5.41869 21.7611 5.40901 21.6547V21.6353C5.38966 21.4902 5.37999 21.3451 5.37031 21.1999C5.37031 21.1709 5.37031 21.1322 5.37031 21.1032C5.36063 20.958 5.35096 20.8129 5.34128 20.6581C5.34128 20.542 5.34128 20.4355 5.33161 20.3194C5.33161 20.2033 5.33161 20.0872 5.33161 19.9711C5.33161 19.855 5.33161 19.7389 5.33161 19.6228C5.33161 19.4776 5.33161 19.3421 5.34128 19.197C5.34128 19.1583 5.34128 19.1196 5.34128 19.0712C5.34128 18.9745 5.34128 18.868 5.35096 18.7713C5.35096 18.7519 5.35096 18.7326 5.35096 18.7229C5.35096 18.6939 5.35096 18.6648 5.35096 18.6358C5.35096 18.539 5.36063 18.4423 5.37031 18.3455C5.37031 18.3262 5.37031 18.3068 5.37031 18.2778C5.37031 18.2584 5.37031 18.2391 5.37031 18.2101C5.37031 18.1133 5.38966 18.0262 5.38966 17.9295C5.38966 17.9004 5.38966 17.8714 5.38966 17.8327C5.38966 17.823 5.38966 17.8037 5.38966 17.794C5.38966 17.794 5.38966 17.794 5.38966 17.7843C5.38966 17.6876 5.40901 17.5811 5.41869 17.4844C5.41869 17.4553 5.41869 17.4263 5.41869 17.3973V17.3779C5.43804 17.2425 5.44772 17.107 5.46707 16.9619C5.48642 16.8264 5.50577 16.6909 5.52512 16.5458C5.52512 16.5458 5.52512 16.5361 5.52512 16.5265C5.52512 16.4878 5.5348 16.4491 5.54448 16.42C5.54448 16.42 5.54448 16.4007 5.54448 16.391C5.55415 16.3039 5.5735 16.2265 5.58318 16.1394C5.58318 16.1297 5.58318 16.1104 5.58318 16.1007C5.58318 16.0717 5.59286 16.0427 5.60253 16.0136C5.62188 15.9169 5.64124 15.8201 5.65091 15.7234C5.65091 15.704 5.65091 15.6847 5.66059 15.6653C5.66059 15.646 5.67026 15.6169 5.67994 15.5879C5.69929 15.5008 5.71864 15.4041 5.73799 15.317C5.73799 15.2879 5.74767 15.2589 5.75735 15.2396C5.75735 15.2202 5.75735 15.2009 5.76702 15.1815C5.78637 15.0944 5.80573 15.0073 5.82508 14.9203C5.82508 14.8912 5.84443 14.8525 5.84443 14.8235C5.84443 14.8138 5.84443 14.7945 5.84443 14.7848C5.87346 14.6784 5.89281 14.5719 5.92184 14.4655C5.92184 14.4461 5.92184 14.4268 5.94119 14.4074C5.97022 14.272 6.00892 14.1462 6.04762 14.0107C6.04762 14.0107 6.04762 14.0107 6.04762 14.001C6.04762 13.9817 6.0573 13.9527 6.06697 13.9333C6.096 13.8269 6.12503 13.7301 6.15406 13.6237C6.15406 13.614 6.15406 13.6043 6.16373 13.585C6.16373 13.585 6.16373 13.5656 6.16373 13.556C6.17341 13.5172 6.18309 13.4882 6.19276 13.4592C6.21211 13.4011 6.23147 13.3431 6.25082 13.285C6.27017 13.2173 6.28952 13.1496 6.31855 13.0818C6.3379 13.0141 6.36693 12.9464 6.38628 12.8786C6.41531 12.8012 6.43466 12.7238 6.46369 12.6464C6.47336 12.6174 6.48304 12.5787 6.50239 12.5497C6.52174 12.4916 6.54109 12.4335 6.56045 12.3852C6.56045 12.3658 6.57012 12.3561 6.5798 12.3368C6.60883 12.2691 6.62818 12.2013 6.65721 12.1239C6.67656 12.0755 6.68623 12.0368 6.70558 11.9981C6.70558 11.9981 6.70559 11.9788 6.71526 11.9691C6.74429 11.8917 6.77332 11.8143 6.80234 11.7466C6.8217 11.6982 6.84105 11.6595 6.85072 11.6111C6.87008 11.5627 6.88943 11.524 6.90878 11.4756C6.93781 11.4079 6.96683 11.3305 6.99586 11.2628C6.99586 11.2531 7.00554 11.2337 7.01521 11.2241C7.03457 11.1757 7.05392 11.137 7.07327 11.0886C7.1023 11.0305 7.12165 10.9725 7.15068 10.9144C7.16035 10.8951 7.17003 10.8757 7.1797 10.8467C7.1797 10.8467 7.1797 10.837 7.1797 10.8273C7.19906 10.7983 7.20873 10.7596 7.22808 10.7306L7.30549 10.5661C7.30549 10.5661 7.33452 10.508 7.3442 10.479C7.35387 10.45 7.37322 10.4306 7.3829 10.4016C7.41193 10.3339 7.45063 10.2758 7.47966 10.2081C7.49901 10.1791 7.50869 10.1404 7.52804 10.1113C7.53771 10.092 7.54739 10.0726 7.55707 10.0533C7.58609 9.99522 7.61512 9.94684 7.64415 9.88878C7.64415 9.88878 7.64415 9.87911 7.65382 9.86943C7.67318 9.83073 7.69253 9.79202 7.71188 9.75332C7.71188 9.74364 7.72156 9.72429 7.73123 9.71462C7.75058 9.67591 7.77961 9.63721 7.79896 9.58883C7.79896 9.56948 7.81831 9.5598 7.82799 9.54045C7.85702 9.49207 7.88605 9.43401 7.91507 9.38563C7.9441 9.33726 7.97313 9.28888 8.00216 9.23082C8.03118 9.17276 8.06989 9.11471 8.09892 9.05665C8.09892 9.04698 8.10859 9.0373 8.11827 9.02763C8.1473 8.97925 8.17632 8.93087 8.20535 8.87281C8.23438 8.82443 8.25373 8.78573 8.28276 8.73735C8.29243 8.718 8.31179 8.69865 8.32146 8.67929C8.35049 8.64059 8.36984 8.59221 8.39887 8.55351C8.4279 8.5148 8.45692 8.46642 8.47628 8.42772C8.49563 8.39869 8.51498 8.36966 8.52466 8.34064C8.54401 8.30193 8.57304 8.26323 8.59239 8.2342C8.61174 8.1955 8.64077 8.16647 8.66012 8.13744C8.68915 8.09874 8.71817 8.05036 8.73753 8.01166C8.75688 7.98263 8.77623 7.9536 8.79558 7.92457C8.81493 7.89554 8.83428 7.86652 8.85364 7.83749C8.89234 7.78911 8.92137 7.73105 8.96007 7.68267C8.96975 7.66332 8.9891 7.64397 8.99878 7.62462C9.00845 7.60527 9.0278 7.58592 9.03748 7.56656C9.05683 7.54721 9.06651 7.51818 9.08586 7.49883C9.12456 7.45045 9.15359 7.40207 9.19229 7.35369C9.2697 7.25693 9.33743 7.1505 9.41484 7.05374C9.41484 7.05374 9.42452 7.03439 9.43419 7.03439C9.48257 6.97633 9.53095 6.91828 9.56965 6.85055C9.58901 6.83119 9.60836 6.80217 9.62771 6.77314C9.64706 6.75379 9.65674 6.73443 9.67609 6.71508C9.71479 6.6667 9.76317 6.60865 9.80188 6.56027C9.82123 6.54092 9.84058 6.51189 9.85993 6.49254C9.87928 6.46351 9.90831 6.43448 9.92766 6.40545C9.95669 6.36675 9.98572 6.33772 10.0147 6.29902C10.0438 6.26999 10.0631 6.24096 10.0922 6.20226C10.1212 6.17323 10.1502 6.13453 10.1792 6.1055C10.1986 6.07647 10.2276 6.04744 10.2566 6.01842C10.276 5.98939 10.305 5.96036 10.3244 5.94101C10.3631 5.89263 10.4018 5.85393 10.4405 5.81522C10.4598 5.79587 10.4792 5.77652 10.4889 5.75717C10.5082 5.73782 10.5276 5.71846 10.5469 5.69911C10.5953 5.64106 10.6534 5.583 10.7017 5.53462C10.7017 5.52495 10.7211 5.51527 10.7308 5.50559C10.8082 5.41851 10.8953 5.33143 10.9727 5.25402C11.0597 5.15726 11.1565 5.07018 11.2436 4.98309C11.3016 4.92504 11.3597 4.86698 11.4274 4.80893C11.4274 4.80893 11.4274 4.80893 11.4371 4.79925C11.4661 4.77022 11.4855 4.75087 11.5145 4.72185C11.5629 4.68314 11.6016 4.63476 11.65 4.59606C11.6693 4.58638 11.679 4.56703 11.6887 4.55735C11.7274 4.52833 11.7564 4.48962 11.7951 4.4606C11.8338 4.43157 11.8628 4.40254 11.9015 4.37351C11.9209 4.36384 11.9306 4.34448 11.9499 4.33481C11.9983 4.29611 12.0467 4.2574 12.0854 4.20902C12.1144 4.18967 12.1338 4.17032 12.1628 4.15097C12.1725 4.15097 12.1821 4.13161 12.2015 4.12194C12.2596 4.07356 12.3273 4.0155 12.3853 3.96712C12.4821 3.88972 12.5885 3.80263 12.6853 3.72523C12.7821 3.64782 12.8885 3.57041 12.9949 3.493C13.0723 3.43495 13.1497 3.37689 13.2271 3.32851C13.2562 3.30916 13.2755 3.28981 13.3046 3.27046C13.3626 3.23175 13.4207 3.19305 13.4787 3.15435C13.4884 3.15435 13.4981 3.135 13.5077 3.135C13.5465 3.10597 13.5852 3.08662 13.6239 3.05759C13.6626 3.02856 13.7109 2.99953 13.7496 2.9705C13.769 2.96083 13.7787 2.95115 13.798 2.94148C13.8464 2.91245 13.8948 2.87375 13.9432 2.84472C13.9722 2.82537 14.0109 2.80601 14.0399 2.77699C14.0399 2.77699 14.0399 2.77699 14.0496 2.77699C14.1173 2.73828 14.1851 2.6899 14.2528 2.6512C14.3592 2.58347 14.4753 2.51574 14.5818 2.45768C14.6882 2.38995 14.8043 2.33189 14.9108 2.27384C14.9398 2.26416 14.9591 2.24481 14.9882 2.23514C15.0365 2.21578 15.0752 2.18676 15.1236 2.1674C15.1527 2.15773 15.172 2.13838 15.201 2.1287C15.2881 2.09 15.3655 2.04162 15.4526 2.00291C15.4623 2.00291 15.472 1.99324 15.4816 1.98356C15.5203 1.96421 15.559 1.94486 15.5881 1.92551C15.6461 1.89648 15.6945 1.87713 15.7526 1.8481C15.8396 1.8094 15.9171 1.77069 16.0041 1.73199C16.0332 1.72231 16.0622 1.70296 16.0912 1.69328C16.1299 1.67393 16.1589 1.66426 16.1977 1.64491C16.217 1.64491 16.2364 1.62555 16.2557 1.61588C16.2557 1.61588 16.3138 1.59653 16.3331 1.58685C16.4202 1.54815 16.5073 1.50944 16.604 1.47074C16.7202 1.42236 16.8363 1.37398 16.962 1.33528C17.0782 1.2869 17.2039 1.24819 17.3201 1.20949C17.3684 1.19014 17.4168 1.18046 17.4749 1.16111C17.6974 1.0837 17.92 1.01597 18.1425 0.948239C18.3554 0.890184 18.5683 0.832128 18.7908 0.774073C19.0424 0.716018 19.2843 0.657962 19.5455 0.609582C20.8614 0.0967591 21.7903 0 22.7289 0H17.1652Z" fill="white"/>
</mask>
<g mask="url(#mask0_1077_7724)">
<path d="M34.3497 0H0.0195312V39.4777H34.3497V0Z" fill="#00A997"/>
</g>
<path d="M22.7383 39.4777C32.2207 39.4777 39.9033 30.6436 39.9033 19.7389C39.9033 8.83411 32.2207 0 22.7383 0C21.79 0 20.8611 0.0870832 19.9516 0.26125C19.7 0.309629 19.4485 0.358009 19.1969 0.42574C18.9743 0.47412 18.7615 0.532175 18.5486 0.599907C18.3261 0.667638 18.1035 0.735369 17.881 0.812777C17.8326 0.832128 17.7842 0.841804 17.7261 0.861156C17.61 0.89986 17.4843 0.948239 17.3681 0.986943C17.252 1.03532 17.1359 1.07403 17.0101 1.12241C16.894 1.17079 16.7779 1.21916 16.6618 1.26754C16.6618 1.26754 16.6231 1.2869 16.6037 1.29657C16.3909 1.39333 16.178 1.49009 15.9748 1.58685C15.7716 1.68361 15.5781 1.79004 15.3749 1.89648C15.3459 1.90615 15.3265 1.92551 15.2975 1.93518C15.1911 1.99324 15.0749 2.06097 14.9685 2.11902C14.8621 2.18676 14.746 2.24481 14.6395 2.31254C14.5331 2.38027 14.4267 2.44801 14.3202 2.51574C14.2622 2.55444 14.2041 2.59314 14.1461 2.63185C14.0977 2.66088 14.0493 2.69958 14.0009 2.72861C13.8945 2.79634 13.7881 2.87375 13.6913 2.95115C13.5849 3.02856 13.4881 3.10597 13.3817 3.1737C13.2752 3.25111 13.1785 3.32851 13.072 3.40592C12.9753 3.48333 12.8688 3.56074 12.7721 3.64782C12.6753 3.7349 12.5786 3.81231 12.4721 3.89939C12.3754 3.98648 12.2786 4.06388 12.1819 4.15097C12.1335 4.19935 12.0851 4.24773 12.027 4.28643C11.9787 4.32513 11.94 4.37351 11.8916 4.41222C11.7948 4.4993 11.7077 4.58638 11.611 4.68314C11.5142 4.77022 11.4271 4.86698 11.34 4.95407C11.253 5.05083 11.1562 5.13791 11.0691 5.23467C10.982 5.33143 10.895 5.42819 10.8079 5.52495C10.7208 5.62171 10.6337 5.71846 10.5466 5.81522C10.4595 5.91198 10.3725 6.01842 10.295 6.11518C10.266 6.15388 10.237 6.19258 10.1983 6.23129C10.1499 6.29902 10.0919 6.35707 10.0435 6.42481C9.96607 6.53124 9.87898 6.628 9.80158 6.73443C9.72417 6.84087 9.64676 6.9473 9.56935 7.05374C9.53065 7.10212 9.50162 7.1505 9.46292 7.19888C9.42422 7.25693 9.37584 7.31499 9.33713 7.38272C9.28875 7.45045 9.24037 7.51818 9.20167 7.58592C9.17264 7.62462 9.14361 7.673 9.11459 7.7117C9.03718 7.81814 8.96945 7.93425 8.89204 8.05036C8.82431 8.16647 8.7469 8.27291 8.67917 8.38902C8.61144 8.50513 8.54371 8.62124 8.47598 8.73735C8.40825 8.85346 8.34051 8.96957 8.27278 9.08568C8.23408 9.15341 8.20505 9.22114 8.16635 9.28888C8.13732 9.33726 8.10829 9.39531 8.07926 9.44369C8.05991 9.48239 8.04056 9.5211 8.02121 9.5598C7.9825 9.63721 7.93412 9.72429 7.89542 9.81138C7.83737 9.93716 7.76963 10.0533 7.71158 10.1791C7.65352 10.2952 7.60514 10.4113 7.54709 10.5371C7.54709 10.5371 7.54709 10.5467 7.54709 10.5564C7.48903 10.6822 7.43098 10.808 7.3826 10.9338C7.32454 11.0596 7.27616 11.1854 7.21811 11.3111C7.16973 11.4369 7.11167 11.5627 7.06329 11.6982C7.01491 11.824 6.96653 11.9594 6.91815 12.0852C6.78269 12.4723 6.64723 12.8593 6.53112 13.2657C6.53112 13.2657 6.53112 13.285 6.53112 13.2947C6.49241 13.4302 6.45371 13.5656 6.41501 13.7011C6.3763 13.8366 6.3376 13.972 6.30857 14.1172C6.27954 14.2333 6.25052 14.3494 6.22149 14.4752C6.22149 14.4945 6.21181 14.5139 6.20214 14.5332C6.17311 14.6687 6.13441 14.8138 6.10538 14.9493C6.07635 15.0944 6.04732 15.2299 6.01829 15.375C5.98927 15.5202 5.96024 15.6556 5.94089 15.8008C5.92154 15.8975 5.91186 15.9943 5.89251 16.091C5.89251 16.1394 5.87316 16.1878 5.87316 16.2265C5.8538 16.3716 5.83445 16.5168 5.8151 16.6522C5.79575 16.7974 5.7764 16.9425 5.75704 17.0877C5.73769 17.2231 5.72802 17.3586 5.71834 17.494C5.71834 17.5037 5.71834 17.5231 5.71834 17.5328C5.70867 17.6779 5.68931 17.823 5.67964 17.9682C5.66996 18.1133 5.66029 18.2681 5.65061 18.4133C5.63126 18.7132 5.62158 19.0132 5.62158 19.3131C5.62158 19.4292 5.62158 19.555 5.62158 19.6711C5.62158 19.7872 5.62158 19.9034 5.62158 20.0195C5.62158 20.1356 5.62158 20.242 5.63126 20.3581C5.65061 20.6871 5.66996 21.0064 5.70867 21.3354V21.3547C5.71834 21.4612 5.73769 21.5676 5.74737 21.674C5.7764 21.8869 5.80542 22.1095 5.84413 22.3223C5.99894 23.1738 6.21181 24.0059 6.50209 24.7897C6.60852 25.08 6.72464 25.3702 6.85042 25.6605C6.93751 25.854 7.02459 26.0379 7.11167 26.2217C7.16005 26.3088 7.19876 26.4056 7.24714 26.4926C7.29551 26.5797 7.34389 26.6765 7.39227 26.7636C7.44065 26.8507 7.48903 26.9377 7.53741 27.0248C7.58579 27.1119 7.63417 27.199 7.69223 27.2861C7.74061 27.3732 7.79866 27.4602 7.85672 27.5473C7.91477 27.6344 7.96315 27.7118 8.02121 27.7989C8.07926 27.886 8.13732 27.9634 8.19538 28.0505C8.31149 28.215 8.4276 28.3698 8.55338 28.5343C8.77593 28.8245 9.01783 29.1051 9.25972 29.3761C9.27908 29.3954 9.29843 29.4148 9.31778 29.4438C9.32746 29.4535 9.34681 29.4728 9.35648 29.4825C9.40486 29.5406 9.46292 29.5986 9.52097 29.647C9.58871 29.7147 9.65644 29.7825 9.72417 29.8502C9.85963 29.9857 10.0048 30.1211 10.1499 30.2469C10.2176 30.3146 10.295 30.3727 10.3725 30.4404C10.4499 30.4985 10.5176 30.5662 10.595 30.6243C10.7498 30.7404 10.895 30.8565 11.0498 30.9726C11.2046 31.0887 11.3594 31.1951 11.5239 31.2919C11.6013 31.3403 11.6884 31.3983 11.7658 31.4467C12.0077 31.5919 12.2593 31.737 12.5108 31.8628C12.7624 31.9886 13.0237 32.1144 13.2849 32.2208C13.372 32.2595 13.4591 32.2885 13.5462 32.3272C13.5462 32.3272 13.5849 32.3369 13.6042 32.3466C13.7493 32.4046 13.9042 32.453 14.0493 32.5014C14.059 32.5014 14.0687 32.5014 14.088 32.5111C14.088 32.5111 14.1364 32.5207 14.1557 32.5304C14.2235 32.5498 14.2912 32.5691 14.3589 32.5981C14.388 32.5981 14.4073 32.6078 14.4363 32.6175C14.5912 32.6659 14.7556 32.7046 14.9105 32.7433C15.0072 32.7626 15.0943 32.782 15.1911 32.8013C15.1911 32.8013 15.2394 32.8013 15.2685 32.8207C15.4136 32.8497 15.5684 32.8787 15.7136 32.8981C15.7232 32.8981 15.7426 32.8981 15.7523 32.8981C15.849 32.9078 15.9458 32.9271 16.0425 32.9368C16.2361 32.9562 16.4296 32.9755 16.6231 32.9852C16.7199 32.9852 16.8166 32.9852 16.9134 32.9949C17.0101 32.9949 17.1069 32.9949 17.2037 32.9949C18.1616 32.9949 19.0905 32.8594 19.9903 32.6078C14.9298 31.1758 11.1659 25.9218 11.1659 19.6518C11.1659 13.3818 14.9201 8.12777 19.9903 6.69573C20.8805 6.44416 21.8094 6.30869 22.777 6.30869C24.1606 6.30869 25.4766 6.5893 26.7054 7.09244C26.7925 7.13115 26.8796 7.16985 26.9666 7.20855C27.6633 7.51818 28.3213 7.90522 28.9405 8.35031C29.2502 8.57286 29.5501 8.81476 29.8404 9.07601C29.9178 9.14374 29.9855 9.20179 30.0533 9.26952C31.195 10.3242 32.1529 11.6304 32.8786 13.1012C32.9657 13.285 33.0528 13.4689 33.1399 13.6624C33.3044 14.0397 33.4592 14.4268 33.5946 14.8332C33.6624 15.0364 33.7204 15.2299 33.7882 15.4428C33.8462 15.646 33.9043 15.8491 33.9527 16.062C34.001 16.2749 34.0494 16.4781 34.0881 16.6909C34.1558 17.0103 34.2042 17.3296 34.2429 17.6585C34.272 17.8714 34.2913 18.094 34.3107 18.3165C34.3107 18.4229 34.33 18.539 34.3397 18.6455C34.3397 18.7616 34.3494 18.868 34.359 18.9841C34.3687 19.1003 34.359 19.2067 34.3687 19.3228C34.3687 19.4389 34.3687 19.555 34.3687 19.6711C34.3687 19.7872 34.3687 19.9034 34.3687 20.0195C34.3687 20.1646 34.3687 20.3001 34.359 20.4452C34.359 20.5033 34.359 20.5613 34.359 20.6194C34.359 20.7065 34.359 20.7839 34.3494 20.8709C34.3494 20.929 34.3494 20.9871 34.3397 21.0451C34.3397 21.1322 34.33 21.2193 34.3203 21.2967C34.3203 21.3547 34.3203 21.4128 34.3107 21.4612C34.3107 21.5483 34.301 21.6353 34.2913 21.7224C34.2913 21.7805 34.2913 21.8289 34.272 21.8869C34.272 21.974 34.2526 22.0611 34.2429 22.1385C34.2429 22.1965 34.2333 22.2546 34.2236 22.3127C34.2139 22.3997 34.2042 22.4868 34.1946 22.5642C34.1946 22.6126 34.1849 22.661 34.1752 22.719C34.1655 22.8158 34.1462 22.9029 34.1365 22.99C34.1365 23.0383 34.1268 23.0867 34.1171 23.1351C34.0978 23.2706 34.0784 23.406 34.0494 23.5415C34.0494 23.5608 34.0494 23.5705 34.0494 23.5899C34.0301 23.706 34.0107 23.8221 33.9817 23.9382C33.9817 23.9866 33.9623 24.035 33.9527 24.093C33.9333 24.1801 33.914 24.2672 33.9043 24.3543C33.8946 24.4027 33.8849 24.451 33.8752 24.4994C33.8559 24.5865 33.8365 24.6639 33.8172 24.751C33.8075 24.809 33.7882 24.8671 33.7785 24.9252C33.7591 24.9929 33.7398 25.0703 33.7301 25.138C33.7108 25.1961 33.7011 25.2638 33.6817 25.3219C33.6624 25.3896 33.643 25.467 33.6237 25.5347C33.6043 25.5928 33.5946 25.6508 33.5753 25.7089C33.5559 25.7863 33.5366 25.8637 33.5076 25.9411C33.4882 25.9895 33.4785 26.0476 33.4592 26.0959C33.4398 26.1733 33.4108 26.2411 33.3914 26.3185C33.3721 26.3765 33.3527 26.4346 33.3431 26.4926C33.3044 26.6088 33.2657 26.7345 33.227 26.8507C33.2076 26.9087 33.1883 26.9668 33.1689 27.0248C33.1496 27.0926 33.1205 27.1603 33.1012 27.228C33.0818 27.2861 33.0528 27.3538 33.0334 27.4119C33.0141 27.4796 32.9851 27.5376 32.9657 27.6054C32.9464 27.6634 32.9173 27.7215 32.898 27.7699C32.869 27.8376 32.8399 27.9053 32.8206 27.9731C32.8012 28.0311 32.7722 28.0892 32.7528 28.1472C32.7238 28.2053 32.7045 28.273 32.6754 28.3311C32.6464 28.3891 32.6271 28.4569 32.598 28.5149C32.569 28.573 32.54 28.6407 32.5206 28.6988C32.4916 28.7568 32.4722 28.8149 32.4432 28.8729C32.4142 28.931 32.3852 28.989 32.3658 29.0471C32.3368 29.1051 32.3077 29.1632 32.2787 29.2309C32.2497 29.289 32.2207 29.347 32.1916 29.4051C32.1626 29.4632 32.1336 29.5212 32.1046 29.5696C32.0852 29.6083 32.0659 29.6373 32.0562 29.676C32.0175 29.7534 31.9788 29.8308 31.9401 29.9082C31.911 29.9663 31.8723 30.034 31.8433 30.0921C31.8143 30.1405 31.7949 30.1888 31.7659 30.2372C31.7272 30.305 31.6885 30.3727 31.6595 30.4307C31.6304 30.4791 31.6111 30.5275 31.5821 30.5662C31.5434 30.6339 31.5046 30.7017 31.4659 30.7694C31.4466 30.8081 31.4176 30.8468 31.3982 30.8855C31.3595 30.9532 31.3208 31.0113 31.2821 31.079C31.2531 31.1274 31.224 31.1758 31.195 31.2242C31.1563 31.2822 31.1176 31.3403 31.0789 31.408C31.0499 31.4467 31.0305 31.4854 31.0015 31.5241C30.9531 31.5919 30.9144 31.6596 30.866 31.7273C30.8467 31.7563 30.8273 31.7854 30.7983 31.8241C30.7499 31.9015 30.7015 31.9692 30.6532 32.0369C30.6532 32.0369 30.6532 32.0369 30.6532 32.0466C30.5177 32.2305 30.3822 32.424 30.2468 32.5981C30.1984 32.6659 30.1403 32.7336 30.092 32.8013C30.0726 32.8304 30.0436 32.8594 30.0242 32.8884C29.9662 32.9562 29.9178 33.0239 29.8597 33.0916C29.8404 33.1206 29.821 33.14 29.8017 33.169C29.7436 33.2368 29.6856 33.3045 29.6275 33.3722C29.6082 33.3916 29.5888 33.4206 29.5695 33.44C29.5114 33.5077 29.4534 33.5754 29.3953 33.6431C29.3759 33.6722 29.3469 33.6915 29.3276 33.7206C29.2695 33.7883 29.2115 33.8463 29.1534 33.9141C29.134 33.9334 29.105 33.9625 29.0857 33.9818C29.0276 34.0495 28.9599 34.1173 28.8922 34.185C28.5728 34.514 28.2535 34.8333 27.9149 35.1429C27.9149 35.1429 27.9149 35.1429 27.9052 35.1429C27.8278 35.2106 27.7601 35.2784 27.6827 35.3461C27.6633 35.3558 27.6536 35.3751 27.6343 35.3848C27.5666 35.4429 27.4988 35.5009 27.4311 35.559C27.4117 35.5783 27.3827 35.5977 27.3634 35.617C27.2956 35.6751 27.2182 35.7331 27.1505 35.7912L27.1021 35.8299C27.0247 35.888 26.9473 35.9557 26.8699 36.0137C26.8699 36.0137 26.8505 36.0234 26.8505 36.0331C26.7635 36.1008 26.686 36.1589 26.599 36.2266C26.241 36.4879 25.8733 36.7394 25.4959 36.9813C25.4862 36.9813 25.4766 36.991 25.4669 37.0007C25.3895 37.0491 25.3024 37.0974 25.225 37.1458C25.2056 37.1555 25.1863 37.1749 25.1669 37.1845C25.0895 37.2329 25.0024 37.2813 24.925 37.3297C24.9057 37.3393 24.8863 37.349 24.8766 37.3587C24.7896 37.4071 24.7025 37.4555 24.6154 37.5038C24.6154 37.5038 24.596 37.5038 24.5864 37.5135C24.4896 37.5619 24.4025 37.6103 24.3058 37.6586H24.2864C24.1897 37.7167 24.0929 37.7651 23.9961 37.8135C23.5994 38.007 23.193 38.1812 22.777 38.3456C22.777 38.3456 22.7673 38.3456 22.7576 38.3456C21.8965 38.6746 20.9966 38.9359 20.0774 39.11C19.1679 39.2842 18.239 39.3713 17.2907 39.3713H22.8544L22.7383 39.4777Z" fill="#00390D"/>
<mask id="mask1_1077_7724" style="mask-type:luminance" maskUnits="userSpaceOnUse" x="5" y="0" width="35" height="40">
<path d="M19.9516 0.26125C19.7 0.309629 19.4485 0.358009 19.1969 0.42574C18.9743 0.47412 18.7615 0.532175 18.5486 0.599907C18.3261 0.667638 18.1035 0.735369 17.881 0.803101C17.8326 0.822452 17.7842 0.832128 17.7261 0.85148C17.61 0.890184 17.4843 0.938563 17.3681 0.977267C17.252 1.02565 17.1359 1.06435 17.0101 1.11273C16.894 1.16111 16.7779 1.20949 16.6618 1.25787C16.6618 1.25787 16.6231 1.27722 16.6037 1.2869C16.3909 1.38366 16.178 1.48041 15.9748 1.57717C15.7716 1.67393 15.5781 1.78037 15.3749 1.8868C15.3459 1.89648 15.3265 1.91583 15.2975 1.92551C15.1814 1.98356 15.0749 2.05129 14.9685 2.10935C14.8621 2.17708 14.746 2.23514 14.6395 2.30287C14.5331 2.3706 14.4267 2.43833 14.3202 2.50606C14.2622 2.54476 14.2041 2.58347 14.1461 2.62217C14.0977 2.6512 14.0493 2.6899 14.0009 2.71893C13.8945 2.78666 13.7881 2.86407 13.6913 2.94148C13.5849 3.01888 13.4881 3.08662 13.3817 3.16402C13.2752 3.24143 13.1785 3.31884 13.072 3.39624C12.9753 3.47365 12.8688 3.55106 12.7721 3.63814C12.6753 3.71555 12.5786 3.80263 12.4818 3.88972C12.385 3.9768 12.2883 4.05421 12.1915 4.14129C12.1431 4.18967 12.0948 4.23805 12.0367 4.27675C11.9883 4.31546 11.9496 4.36384 11.9012 4.40254C11.8045 4.48962 11.7174 4.57671 11.6206 4.67347C11.5239 4.76055 11.4368 4.85731 11.3497 4.94439C11.2626 5.04115 11.1659 5.12823 11.0788 5.22499C10.9917 5.32175 10.9046 5.41851 10.8175 5.51527C10.7305 5.61203 10.6434 5.70879 10.5563 5.80555C10.4692 5.90231 10.3821 6.00874 10.3047 6.1055C10.2757 6.1442 10.2467 6.18291 10.208 6.22161C10.1596 6.28934 10.1015 6.3474 10.0531 6.41513C9.97574 6.52156 9.88866 6.61832 9.81125 6.72476C9.73384 6.83119 9.65644 6.93763 9.57903 7.04406C9.57903 7.04406 9.5113 7.14082 9.47259 7.1892C9.43389 7.24726 9.38551 7.30531 9.34681 7.37304C9.29843 7.44078 9.25005 7.50851 9.21135 7.57624C9.18232 7.61494 9.15329 7.66332 9.12426 7.70203C9.04686 7.80846 8.97912 7.92457 8.90172 8.04068C8.83398 8.15679 8.75658 8.26323 8.68885 8.37934C8.62111 8.49545 8.55338 8.61156 8.48565 8.72767C8.41792 8.84378 8.35019 8.95989 8.28246 9.07601C8.24375 9.14374 8.21473 9.21147 8.17602 9.2792C8.14699 9.32758 8.11797 9.38563 8.08894 9.43401C8.06959 9.47272 8.05024 9.51142 8.03088 9.55012C7.99218 9.62753 7.9438 9.71462 7.9051 9.8017C7.84704 9.92749 7.77931 10.0436 7.72125 10.1694C7.6632 10.2855 7.61482 10.4016 7.55676 10.5177C7.55676 10.5177 7.55676 10.5274 7.54709 10.5371C7.48903 10.6629 7.43098 10.7886 7.3826 10.9144C7.32454 11.0402 7.27616 11.166 7.21811 11.2918C7.16973 11.4176 7.11167 11.5434 7.06329 11.6788C7.01491 11.8046 6.96653 11.9401 6.91815 12.0659C6.77302 12.4529 6.64723 12.8399 6.53112 13.2463C6.53112 13.2463 6.53112 13.2657 6.53112 13.2754C6.49241 13.4108 6.45371 13.5463 6.41501 13.6817C6.3763 13.8172 6.3376 13.9527 6.30857 14.0978C6.27954 14.2139 6.25052 14.33 6.22149 14.4558C6.22149 14.4752 6.21181 14.4945 6.20214 14.5139C6.17311 14.6493 6.13441 14.7945 6.10538 14.9299C6.07635 15.0751 6.04732 15.2105 6.01829 15.3557C5.98927 15.5008 5.96024 15.6363 5.94089 15.7814C5.92154 15.8782 5.91186 15.9749 5.89251 16.0717C5.89251 16.1201 5.87316 16.1684 5.87316 16.2072C5.8538 16.3523 5.83445 16.4974 5.8151 16.6329C5.79575 16.778 5.7764 16.9232 5.75704 17.0683C5.73769 17.2038 5.72802 17.3392 5.71834 17.465C5.71834 17.4747 5.71834 17.494 5.71834 17.5037C5.70867 17.6489 5.68931 17.794 5.67964 17.9391C5.66996 18.0843 5.66029 18.2391 5.65061 18.3842C5.63126 18.6842 5.62158 18.9841 5.62158 19.2841C5.62158 19.4002 5.62158 19.526 5.62158 19.6421C5.62158 19.7582 5.62158 19.8743 5.62158 19.9904C5.62158 20.1065 5.62158 20.213 5.63126 20.3291C5.64093 20.6581 5.66996 20.9774 5.70867 21.3064V21.3257C5.71834 21.4321 5.73769 21.5386 5.74737 21.645C5.7764 21.8579 5.80542 22.0804 5.84413 22.2933C5.99894 23.1448 6.21181 23.9769 6.50209 24.7607C6.60852 25.0606 6.72464 25.3509 6.85042 25.6315C6.93751 25.825 7.02459 26.0089 7.11167 26.1927C7.16005 26.2798 7.19876 26.3765 7.24714 26.4636C7.29551 26.5507 7.34389 26.6475 7.39227 26.7345C7.44065 26.8216 7.48903 26.9087 7.53741 26.9958C7.58579 27.0829 7.63417 27.17 7.69223 27.257C7.74061 27.3441 7.79866 27.4312 7.84704 27.5086C7.9051 27.5957 7.95348 27.6731 8.01153 27.7602C8.06959 27.8473 8.12764 27.9247 8.1857 28.0118C8.30181 28.1763 8.41792 28.3311 8.54371 28.4956C8.76625 28.7858 9.00815 29.0664 9.25005 29.3277C9.2694 29.347 9.28875 29.3664 9.3081 29.3954C9.31778 29.4148 9.33713 29.4244 9.34681 29.4341C9.39519 29.4922 9.45324 29.5502 9.5113 29.5986C9.57903 29.6663 9.64676 29.7341 9.71449 29.8018C9.84996 29.9373 9.99509 30.0727 10.1402 30.1985C10.2176 30.2663 10.2854 30.3243 10.3628 30.392C10.4402 30.4501 10.5079 30.5178 10.5853 30.5759C10.7401 30.692 10.8853 30.8081 11.0401 30.9242C11.1949 31.0403 11.3497 31.1468 11.5142 31.2435C11.5916 31.2919 11.6787 31.35 11.7561 31.3983C11.998 31.5435 12.2496 31.6886 12.5012 31.8144C12.7527 31.9402 13.014 32.066 13.2752 32.1724C13.3623 32.2111 13.4494 32.2401 13.5365 32.2788C13.5365 32.2788 13.5752 32.2885 13.5945 32.2982C13.7397 32.3562 13.8945 32.4046 14.0396 32.453C14.0493 32.453 14.059 32.453 14.0783 32.4627C14.0783 32.4627 14.117 32.4724 14.1461 32.482C14.2138 32.5014 14.2815 32.5304 14.3493 32.5498C14.3783 32.5498 14.3976 32.5594 14.4267 32.5691C14.5815 32.6175 14.746 32.6562 14.9008 32.6949C14.9975 32.7143 15.0846 32.7336 15.1814 32.753C15.2104 32.753 15.2298 32.7626 15.2588 32.7723C15.4039 32.8013 15.5587 32.8304 15.7039 32.8497C15.7136 32.8497 15.7329 32.8497 15.7426 32.8497C15.8393 32.8594 15.9361 32.8787 16.0329 32.8884C16.2264 32.9078 16.4199 32.9271 16.6134 32.9368C16.7102 32.9368 16.8069 32.9465 16.9037 32.9465C17.0005 32.9465 17.0972 32.9465 17.194 32.9465C18.1519 32.9465 19.0808 32.811 19.9806 32.5594C14.9105 31.1274 11.1562 25.8734 11.1562 19.6034C11.1562 13.3334 14.9105 8.07939 19.9806 6.64735C20.8708 6.39578 21.7997 6.26031 22.7576 6.26031C24.1413 6.26031 25.4669 6.54092 26.686 7.04406C26.7731 7.08277 26.8602 7.12147 26.9473 7.16017C27.644 7.4698 28.3019 7.85684 28.9212 8.30193C29.2308 8.52448 29.5308 8.76638 29.821 9.02763C29.8984 9.09536 29.9662 9.15341 30.0339 9.22114C31.1757 10.2758 32.1336 11.5821 32.8593 13.0528C32.9464 13.2366 33.0334 13.4205 33.1205 13.614C33.285 13.9914 33.4398 14.3784 33.5753 14.7848C33.643 14.988 33.7011 15.1815 33.7688 15.3847C33.8269 15.5879 33.8849 15.7911 33.9333 16.004C33.9817 16.2072 34.0301 16.42 34.0688 16.6329C34.1365 16.9522 34.1849 17.2715 34.2236 17.6005C34.2526 17.8134 34.272 18.0359 34.2913 18.2584C34.2913 18.3649 34.3107 18.481 34.3203 18.5874C34.3203 18.7035 34.33 18.81 34.3397 18.9261C34.3397 19.0422 34.3397 19.1486 34.3494 19.2647C34.3494 19.3809 34.3494 19.497 34.3494 19.6131C34.3494 19.7292 34.3494 19.8453 34.3494 19.9614C34.3494 20.1065 34.3494 20.242 34.3397 20.3871C34.3397 20.4452 34.3397 20.5033 34.3397 20.5613C34.3397 20.6484 34.3397 20.7258 34.33 20.8129C34.33 20.8709 34.33 20.929 34.3203 20.9871C34.3203 21.0741 34.3107 21.1612 34.301 21.2386C34.301 21.2967 34.301 21.3547 34.2913 21.4031C34.2913 21.4902 34.2816 21.5773 34.272 21.6644C34.272 21.7224 34.2623 21.7708 34.2526 21.8289C34.2526 21.9159 34.2333 22.003 34.2236 22.0804C34.2236 22.1385 34.2139 22.1965 34.2042 22.2546C34.1945 22.3417 34.1849 22.4288 34.1752 22.5062C34.1752 22.5546 34.1655 22.6029 34.1558 22.661C34.1462 22.7577 34.1268 22.8448 34.1171 22.9319C34.1171 22.9803 34.1075 23.0287 34.0978 23.077C34.0784 23.2125 34.0591 23.348 34.0301 23.4834C34.0301 23.5028 34.0301 23.5125 34.0301 23.5318C34.0107 23.6479 33.9914 23.764 33.9623 23.8802C33.9623 23.9285 33.943 23.9769 33.9333 24.035C33.9139 24.122 33.8946 24.2091 33.8849 24.2962C33.8752 24.3446 33.8656 24.393 33.8559 24.4414C33.8365 24.5284 33.8172 24.6058 33.7978 24.6929C33.7882 24.751 33.7688 24.809 33.7591 24.8671C33.7398 24.9348 33.7204 25.0122 33.7108 25.08C33.6914 25.138 33.6817 25.2058 33.6624 25.2638C33.643 25.3315 33.6237 25.4089 33.6043 25.4767C33.585 25.5347 33.5753 25.5928 33.5559 25.6508C33.5366 25.7282 33.5076 25.8057 33.4882 25.8831C33.4689 25.9314 33.4592 25.9895 33.4398 26.0379C33.4205 26.1153 33.3915 26.183 33.3721 26.2604C33.3527 26.3185 33.3334 26.3765 33.3237 26.4249C33.285 26.541 33.2463 26.6668 33.2076 26.7829C33.1883 26.841 33.1689 26.899 33.1495 26.9571C33.1302 27.0248 33.1012 27.0926 33.0818 27.1603C33.0625 27.2183 33.0334 27.2861 33.0141 27.3441C32.9947 27.4119 32.9657 27.4699 32.9464 27.5376C32.927 27.5957 32.898 27.6538 32.8786 27.7021C32.8496 27.7699 32.8206 27.8376 32.8012 27.9053C32.7819 27.9634 32.7528 28.0214 32.7335 28.0795C32.7045 28.1376 32.6851 28.2053 32.6561 28.2633C32.6271 28.3214 32.6077 28.3891 32.5787 28.4472C32.5496 28.5052 32.5206 28.573 32.5013 28.631C32.4722 28.6891 32.4529 28.7471 32.4239 28.8052C32.3948 28.8632 32.3658 28.9213 32.3465 28.9794C32.3174 29.0374 32.2884 29.0955 32.2594 29.1632C32.2303 29.2213 32.2013 29.2793 32.1723 29.3374C32.1433 29.3954 32.1142 29.4535 32.0852 29.5019C32.0658 29.5406 32.0465 29.5696 32.0368 29.5986C31.9981 29.676 31.9594 29.7534 31.9207 29.8308C31.8917 29.8889 31.853 29.9566 31.824 30.0147C31.7949 30.0631 31.7756 30.1114 31.7465 30.1598C31.7078 30.2275 31.6691 30.2953 31.6401 30.3533C31.6111 30.4017 31.5917 30.4501 31.5627 30.4888C31.524 30.5565 31.4853 30.6243 31.4466 30.692C31.4272 30.7307 31.3982 30.7694 31.3789 30.8081C31.3402 30.8758 31.3015 30.9339 31.2627 31.0016C31.2337 31.05 31.2047 31.0984 31.1757 31.1468C31.137 31.2048 31.0983 31.2629 31.0596 31.3306C31.0305 31.3693 31.0112 31.408 30.9821 31.4467C30.9338 31.5144 30.8951 31.5822 30.8467 31.6499C30.8273 31.6789 30.808 31.708 30.779 31.7467C30.7306 31.8241 30.6822 31.8918 30.6338 31.9595C30.6338 31.9595 30.6338 31.9595 30.6338 31.9692C30.4984 32.1531 30.3629 32.3466 30.2274 32.5207C30.179 32.5885 30.121 32.6562 30.0726 32.7239C30.0533 32.753 30.0242 32.782 30.0049 32.811C29.9468 32.8787 29.8984 32.9465 29.8404 33.0142C29.821 33.0432 29.8017 33.0626 29.7823 33.0916C29.7243 33.1594 29.6662 33.2271 29.6082 33.2948C29.5888 33.3142 29.5695 33.3432 29.5501 33.3625C29.4921 33.4303 29.434 33.498 29.3759 33.5657C29.3566 33.5948 29.3276 33.6141 29.3082 33.6431C29.2502 33.7109 29.1921 33.7689 29.134 33.8367C29.1147 33.856 29.0857 33.885 29.0663 33.9044C29.0083 33.9721 28.9405 34.0399 28.8728 34.1076C28.5535 34.4366 28.2342 34.7559 27.8955 35.0655C27.8955 35.0655 27.8955 35.0655 27.8859 35.0655C27.8084 35.1332 27.7407 35.201 27.6633 35.2687C27.644 35.2881 27.6343 35.2977 27.6149 35.3074C27.5472 35.3655 27.4795 35.4235 27.4117 35.4816C27.3924 35.5009 27.3634 35.5203 27.344 35.5396C27.2763 35.5977 27.1989 35.6557 27.1311 35.7138C27.1118 35.7235 27.1021 35.7428 27.0828 35.7525C27.0053 35.8105 26.9279 35.8783 26.8505 35.9363C26.8505 35.9363 26.8312 35.946 26.8312 35.9557C26.7441 36.0234 26.6667 36.0815 26.5796 36.1492C26.2216 36.4105 25.8539 36.662 25.4766 36.9039C25.4669 36.9039 25.4572 36.9136 25.4475 36.9233C25.3701 36.9717 25.283 37.02 25.2056 37.0684C25.1863 37.0781 25.1669 37.0974 25.1476 37.1071C25.0702 37.1555 24.9831 37.2039 24.9057 37.2523C24.8863 37.2523 24.867 37.2716 24.8573 37.2813C24.7702 37.3297 24.6831 37.378 24.596 37.4264C24.596 37.4264 24.5767 37.4264 24.567 37.4361C24.4703 37.4845 24.3832 37.5329 24.2864 37.5812C24.2864 37.5812 24.2767 37.5812 24.2671 37.5812C24.1703 37.6296 24.0735 37.678 23.9768 37.7264C23.5801 37.9199 23.1737 38.0941 22.7576 38.2586C22.7576 38.2586 22.7479 38.2586 22.7383 38.2586C21.8771 38.5875 20.9773 38.8488 20.058 39.023C19.1485 39.1971 18.2196 39.2842 17.2714 39.2842H22.835C32.3174 39.2842 40.0001 30.4501 40.0001 19.5453C40.0001 8.64059 32.2207 0 22.7383 0C21.79 0 20.8611 0.0870832 19.9516 0.26125Z" fill="white"/>
</mask>
<g mask="url(#mask1_1077_7724)">
<path d="M39.9033 0H5.56348V39.4777H39.9033V0Z" fill="#00390D"/>
</g>
<path d="M22.7383 39.4777C32.2207 39.4777 39.9033 30.6436 39.9033 19.7389C39.9033 8.83411 32.2207 0 22.7383 0C21.79 0 20.8611 0.0870832 19.9516 0.26125C19.7 0.309629 19.4485 0.358009 19.1969 0.42574C18.9743 0.47412 18.7615 0.532175 18.5486 0.599907C18.3261 0.667638 18.1035 0.735369 17.881 0.812777C17.8326 0.832128 17.7842 0.841804 17.7261 0.861156C17.61 0.89986 17.4843 0.948239 17.3681 0.986943C17.252 1.03532 17.1359 1.07403 17.0101 1.12241C16.894 1.17079 16.7779 1.21916 16.6618 1.26754C16.6618 1.26754 16.6231 1.2869 16.6037 1.29657C16.3909 1.39333 16.178 1.49009 15.9748 1.58685C15.7716 1.68361 15.5781 1.79004 15.3749 1.89648C15.3459 1.90615 15.3265 1.92551 15.2975 1.93518C15.1911 1.99324 15.0749 2.06097 14.9685 2.11902C14.8621 2.18676 14.746 2.24481 14.6395 2.31254C14.5331 2.38027 14.4267 2.44801 14.3202 2.51574C14.2622 2.55444 14.2041 2.59314 14.1461 2.63185C14.0977 2.66088 14.0493 2.69958 14.0009 2.72861C13.8945 2.79634 13.7881 2.87375 13.6913 2.95115C13.5849 3.02856 13.4881 3.10597 13.3817 3.1737C13.2752 3.25111 13.1785 3.32851 13.072 3.40592C12.9753 3.48333 12.8688 3.56074 12.7721 3.64782C12.6753 3.7349 12.5786 3.81231 12.4721 3.89939C12.3754 3.98648 12.2786 4.06388 12.1819 4.15097C12.1335 4.19935 12.0851 4.24773 12.027 4.28643C11.9787 4.32513 11.94 4.37351 11.8916 4.41222C11.7948 4.4993 11.7077 4.58638 11.611 4.68314C11.5142 4.77022 11.4271 4.86698 11.34 4.95407C11.253 5.05083 11.1562 5.13791 11.0691 5.23467C10.982 5.33143 10.895 5.42819 10.8079 5.52495C10.7208 5.62171 10.6337 5.71846 10.5466 5.81522C10.4595 5.91198 10.3725 6.01842 10.295 6.11518C10.266 6.15388 10.237 6.19258 10.1983 6.23129C10.1499 6.29902 10.0919 6.35707 10.0435 6.42481C9.96607 6.53124 9.87898 6.628 9.80158 6.73443C9.72417 6.84087 9.64676 6.9473 9.56935 7.05374C9.53065 7.10212 9.50162 7.1505 9.46292 7.19888C9.42422 7.25693 9.37584 7.31499 9.33713 7.38272C9.28875 7.45045 9.24037 7.51818 9.20167 7.58592C9.17264 7.62462 9.14361 7.673 9.11459 7.7117C9.03718 7.81814 8.96945 7.93425 8.89204 8.05036C8.82431 8.16647 8.7469 8.27291 8.67917 8.38902C8.61144 8.50513 8.54371 8.62124 8.47598 8.73735C8.40825 8.85346 8.34051 8.96957 8.27278 9.08568C8.23408 9.15341 8.20505 9.22114 8.16635 9.28888C8.13732 9.33726 8.10829 9.39531 8.07926 9.44369C8.05991 9.48239 8.04056 9.5211 8.02121 9.5598C7.9825 9.63721 7.93412 9.72429 7.89542 9.81138C7.83737 9.93716 7.76963 10.0533 7.71158 10.1791C7.65352 10.2952 7.60514 10.4113 7.54709 10.5371C7.54709 10.5371 7.54709 10.5467 7.54709 10.5564C7.48903 10.6822 7.43098 10.808 7.3826 10.9338C7.32454 11.0596 7.27616 11.1854 7.21811 11.3111C7.16973 11.4369 7.11167 11.5627 7.06329 11.6982C7.01491 11.824 6.96653 11.9594 6.91815 12.0852C6.78269 12.4723 6.64723 12.8593 6.53112 13.2657C6.53112 13.2657 6.53112 13.285 6.53112 13.2947C6.49241 13.4302 6.45371 13.5656 6.41501 13.7011C6.3763 13.8366 6.3376 13.972 6.30857 14.1172C6.27954 14.2333 6.25052 14.3494 6.22149 14.4752C6.22149 14.4945 6.21181 14.5139 6.20214 14.5332C6.17311 14.6687 6.13441 14.8138 6.10538 14.9493C6.07635 15.0944 6.04732 15.2299 6.01829 15.375C5.98927 15.5202 5.96024 15.6556 5.94089 15.8008C5.92154 15.8975 5.91186 15.9943 5.89251 16.091C5.89251 16.1394 5.87316 16.1878 5.87316 16.2265C5.8538 16.3716 5.83445 16.5168 5.8151 16.6522C5.79575 16.7974 5.7764 16.9425 5.75704 17.0877C5.73769 17.2231 5.72802 17.3586 5.71834 17.494C5.71834 17.5037 5.71834 17.5231 5.71834 17.5328C5.70867 17.6779 5.68931 17.823 5.67964 17.9682C5.66996 18.1133 5.66029 18.2681 5.65061 18.4133C5.63126 18.7132 5.62158 19.0132 5.62158 19.3131C5.62158 19.4292 5.62158 19.555 5.62158 19.6711C5.62158 19.7872 5.62158 19.9034 5.62158 20.0195C5.62158 20.1356 5.62158 20.242 5.63126 20.3581C5.65061 20.6871 5.66996 21.0064 5.70867 21.3354V21.3547C5.71834 21.4612 5.73769 21.5676 5.74737 21.674C5.7764 21.8869 5.80542 22.1095 5.84413 22.3223C5.99894 23.1738 6.21181 24.0059 6.50209 24.7897C6.60852 25.08 6.72464 25.3702 6.85042 25.6605C6.93751 25.854 7.02459 26.0379 7.11167 26.2217C7.16005 26.3088 7.19876 26.4056 7.24714 26.4926C7.29551 26.5797 7.34389 26.6765 7.39227 26.7636C7.44065 26.8507 7.48903 26.9377 7.53741 27.0248C7.58579 27.1119 7.63417 27.199 7.69223 27.2861C7.74061 27.3732 7.79866 27.4602 7.85672 27.5473C7.91477 27.6344 7.96315 27.7118 8.02121 27.7989C8.07926 27.886 8.13732 27.9634 8.19538 28.0505C8.31149 28.215 8.4276 28.3698 8.55338 28.5343C8.77593 28.8245 9.01783 29.1051 9.25972 29.3761C9.27908 29.3954 9.29843 29.4148 9.31778 29.4438C9.32746 29.4535 9.34681 29.4728 9.35648 29.4825C9.40486 29.5406 9.46292 29.5986 9.52097 29.647C9.58871 29.7147 9.65644 29.7825 9.72417 29.8502C9.85963 29.9857 10.0048 30.1211 10.1499 30.2469C10.2176 30.3146 10.295 30.3727 10.3725 30.4404C10.4499 30.4985 10.5176 30.5662 10.595 30.6243C10.7498 30.7404 10.895 30.8565 11.0498 30.9726C11.2046 31.0887 11.3594 31.1951 11.5239 31.2919C11.6013 31.3403 11.6884 31.3983 11.7658 31.4467C12.0077 31.5919 12.2593 31.737 12.5108 31.8628C12.7624 31.9886 13.0237 32.1144 13.2849 32.2208C13.372 32.2595 13.4591 32.2885 13.5462 32.3272C13.5462 32.3272 13.5849 32.3369 13.6042 32.3466C13.7493 32.4046 13.9042 32.453 14.0493 32.5014C14.059 32.5014 14.0687 32.5014 14.088 32.5111C14.088 32.5111 14.1364 32.5207 14.1557 32.5304C14.2235 32.5498 14.2912 32.5691 14.3589 32.5981C14.388 32.5981 14.4073 32.6078 14.4363 32.6175C14.5912 32.6659 14.7556 32.7046 14.9105 32.7433C15.0072 32.7626 15.0943 32.782 15.1911 32.8013C15.1911 32.8013 15.2394 32.8013 15.2685 32.8207C15.4136 32.8497 15.5684 32.8787 15.7136 32.8981C15.7232 32.8981 15.7426 32.8981 15.7523 32.8981C15.849 32.9078 15.9458 32.9271 16.0425 32.9368C16.2361 32.9562 16.4296 32.9755 16.6231 32.9852C16.7199 32.9852 16.8166 32.9852 16.9134 32.9949C17.0101 32.9949 17.1069 32.9949 17.2037 32.9949C18.1616 32.9949 19.0905 32.8594 19.9903 32.6078C14.9298 31.1758 11.1659 25.9218 11.1659 19.6518C11.1659 13.3818 14.9201 8.12777 19.9903 6.69573C20.8805 6.44416 21.8094 6.30869 22.777 6.30869C24.1606 6.30869 25.4766 6.5893 26.7054 7.09244C26.7925 7.13115 26.8796 7.16985 26.9666 7.20855C27.6633 7.51818 28.3213 7.90522 28.9405 8.35031C29.2502 8.57286 29.5501 8.81476 29.8404 9.07601C29.9178 9.14374 29.9855 9.20179 30.0533 9.26952C31.195 10.3242 32.1529 11.6304 32.8786 13.1012C32.9657 13.285 33.0528 13.4689 33.1399 13.6624C33.3044 14.0397 33.4592 14.4268 33.5946 14.8332C33.6624 15.0364 33.7204 15.2299 33.7882 15.4428C33.8462 15.646 33.9043 15.8491 33.9527 16.062C34.001 16.2749 34.0494 16.4781 34.0881 16.6909C34.1558 17.0103 34.2042 17.3296 34.2429 17.6585C34.272 17.8714 34.2913 18.094 34.3107 18.3165C34.3107 18.4229 34.33 18.539 34.3397 18.6455C34.3397 18.7616 34.3494 18.868 34.359 18.9841C34.3687 19.1003 34.359 19.2067 34.3687 19.3228C34.3687 19.4389 34.3687 19.555 34.3687 19.6711C34.3687 19.7872 34.3687 19.9034 34.3687 20.0195C34.3687 20.1646 34.3687 20.3001 34.359 20.4452C34.359 20.5033 34.359 20.5613 34.359 20.6194C34.359 20.7065 34.359 20.7839 34.3494 20.8709C34.3494 20.929 34.3494 20.9871 34.3397 21.0451C34.3397 21.1322 34.33 21.2193 34.3203 21.2967C34.3203 21.3547 34.3203 21.4128 34.3107 21.4612C34.3107 21.5483 34.301 21.6353 34.2913 21.7224C34.2913 21.7805 34.2913 21.8289 34.272 21.8869C34.272 21.974 34.2526 22.0611 34.2429 22.1385C34.2429 22.1965 34.2333 22.2546 34.2236 22.3127C34.2139 22.3997 34.2042 22.4868 34.1946 22.5642C34.1946 22.6126 34.1849 22.661 34.1752 22.719C34.1655 22.8158 34.1462 22.9029 34.1365 22.99C34.1365 23.0383 34.1268 23.0867 34.1171 23.1351C34.0978 23.2706 34.0784 23.406 34.0494 23.5415C34.0494 23.5608 34.0494 23.5705 34.0494 23.5899C34.0301 23.706 34.0107 23.8221 33.9817 23.9382C33.9817 23.9866 33.9623 24.035 33.9527 24.093C33.9333 24.1801 33.914 24.2672 33.9043 24.3543C33.8946 24.4027 33.8849 24.451 33.8752 24.4994C33.8559 24.5865 33.8365 24.6639 33.8172 24.751C33.8075 24.809 33.7882 24.8671 33.7785 24.9252C33.7591 24.9929 33.7398 25.0703 33.7301 25.138C33.7108 25.1961 33.7011 25.2638 33.6817 25.3219C33.6624 25.3896 33.643 25.467 33.6237 25.5347C33.6043 25.5928 33.5946 25.6508 33.5753 25.7089C33.5559 25.7863 33.5366 25.8637 33.5076 25.9411C33.4882 25.9895 33.4785 26.0476 33.4592 26.0959C33.4398 26.1733 33.4108 26.2411 33.3914 26.3185C33.3721 26.3765 33.3527 26.4346 33.3431 26.4926C33.3044 26.6088 33.2657 26.7345 33.227 26.8507C33.2076 26.9087 33.1883 26.9668 33.1689 27.0248C33.1496 27.0926 33.1205 27.1603 33.1012 27.228C33.0818 27.2861 33.0528 27.3538 33.0334 27.4119C33.0141 27.4796 32.9851 27.5376 32.9657 27.6054C32.9464 27.6634 32.9173 27.7215 32.898 27.7699C32.869 27.8376 32.8399 27.9053 32.8206 27.9731C32.8012 28.0311 32.7722 28.0892 32.7528 28.1472C32.7238 28.2053 32.7045 28.273 32.6754 28.3311C32.6464 28.3891 32.6271 28.4569 32.598 28.5149C32.569 28.573 32.54 28.6407 32.5206 28.6988C32.4916 28.7568 32.4722 28.8149 32.4432 28.8729C32.4142 28.931 32.3852 28.989 32.3658 29.0471C32.3368 29.1051 32.3077 29.1632 32.2787 29.2309C32.2497 29.289 32.2207 29.347 32.1916 29.4051C32.1626 29.4632 32.1336 29.5212 32.1046 29.5696C32.0852 29.6083 32.0659 29.6373 32.0562 29.676C32.0175 29.7534 31.9788 29.8308 31.9401 29.9082C31.911 29.9663 31.8723 30.034 31.8433 30.0921C31.8143 30.1405 31.7949 30.1888 31.7659 30.2372C31.7272 30.305 31.6885 30.3727 31.6595 30.4307C31.6304 30.4791 31.6111 30.5275 31.5821 30.5662C31.5434 30.6339 31.5046 30.7017 31.4659 30.7694C31.4466 30.8081 31.4176 30.8468 31.3982 30.8855C31.3595 30.9532 31.3208 31.0113 31.2821 31.079C31.2531 31.1274 31.224 31.1758 31.195 31.2242C31.1563 31.2822 31.1176 31.3403 31.0789 31.408C31.0499 31.4467 31.0305 31.4854 31.0015 31.5241C30.9531 31.5919 30.9144 31.6596 30.866 31.7273C30.8467 31.7563 30.8273 31.7854 30.7983 31.8241C30.7499 31.9015 30.7015 31.9692 30.6532 32.0369C30.6532 32.0369 30.6532 32.0369 30.6532 32.0466C30.5177 32.2305 30.3822 32.424 30.2468 32.5981C30.1984 32.6659 30.1403 32.7336 30.092 32.8013C30.0726 32.8304 30.0436 32.8594 30.0242 32.8884C29.9662 32.9562 29.9178 33.0239 29.8597 33.0916C29.8404 33.1206 29.821 33.14 29.8017 33.169C29.7436 33.2368 29.6856 33.3045 29.6275 33.3722C29.6082 33.3916 29.5888 33.4206 29.5695 33.44C29.5114 33.5077 29.4534 33.5754 29.3953 33.6431C29.3759 33.6722 29.3469 33.6915 29.3276 33.7206C29.2695 33.7883 29.2115 33.8463 29.1534 33.9141C29.134 33.9334 29.105 33.9625 29.0857 33.9818C29.0276 34.0495 28.9599 34.1173 28.8922 34.185C28.5728 34.514 28.2535 34.8333 27.9149 35.1429C27.9149 35.1429 27.9149 35.1429 27.9052 35.1429C27.8278 35.2106 27.7601 35.2784 27.6827 35.3461C27.6633 35.3558 27.6536 35.3751 27.6343 35.3848C27.5666 35.4429 27.4988 35.5009 27.4311 35.559C27.4117 35.5783 27.3827 35.5977 27.3634 35.617C27.2956 35.6751 27.2182 35.7331 27.1505 35.7912L27.1021 35.8299C27.0247 35.888 26.9473 35.9557 26.8699 36.0137C26.8699 36.0137 26.8505 36.0234 26.8505 36.0331C26.7635 36.1008 26.686 36.1589 26.599 36.2266C26.241 36.4879 25.8733 36.7394 25.4959 36.9813C25.4862 36.9813 25.4766 36.991 25.4669 37.0007C25.3895 37.0491 25.3024 37.0974 25.225 37.1458C25.2056 37.1555 25.1863 37.1749 25.1669 37.1845C25.0895 37.2329 25.0024 37.2813 24.925 37.3297C24.9057 37.3393 24.8863 37.349 24.8766 37.3587C24.7896 37.4071 24.7025 37.4555 24.6154 37.5038C24.6154 37.5038 24.596 37.5038 24.5864 37.5135C24.4896 37.5619 24.4025 37.6103 24.3058 37.6586H24.2864C24.1897 37.7167 24.0929 37.7651 23.9961 37.8135C23.5994 38.007 23.193 38.1812 22.777 38.3456C22.777 38.3456 22.7673 38.3456 22.7576 38.3456C21.8965 38.6746 20.9966 38.9359 20.0774 39.11C19.1679 39.2842 18.239 39.3713 17.2907 39.3713H22.8544L22.7383 39.4777Z" fill="white"/>
<mask id="mask2_1077_7724" style="mask-type:luminance" maskUnits="userSpaceOnUse" x="5" y="0" width="35" height="40">
<path d="M19.9516 0.26125C19.7 0.309629 19.4485 0.358009 19.1969 0.42574C18.9743 0.47412 18.7615 0.532175 18.5486 0.599907C18.3261 0.667638 18.1035 0.735369 17.881 0.803101C17.8326 0.822452 17.7842 0.832128 17.7261 0.85148C17.61 0.890184 17.4843 0.938563 17.3681 0.977267C17.252 1.02565 17.1359 1.06435 17.0101 1.11273C16.894 1.16111 16.7779 1.20949 16.6618 1.25787C16.6618 1.25787 16.6231 1.27722 16.6037 1.2869C16.3909 1.38366 16.178 1.48041 15.9748 1.57717C15.7716 1.67393 15.5781 1.78037 15.3749 1.8868C15.3459 1.89648 15.3265 1.91583 15.2975 1.92551C15.1814 1.98356 15.0749 2.05129 14.9685 2.10935C14.8621 2.17708 14.746 2.23514 14.6395 2.30287C14.5331 2.3706 14.4267 2.43833 14.3202 2.50606C14.2622 2.54476 14.2041 2.58347 14.1461 2.62217C14.0977 2.6512 14.0493 2.6899 14.0009 2.71893C13.8945 2.78666 13.7881 2.86407 13.6913 2.94148C13.5849 3.01888 13.4881 3.08662 13.3817 3.16402C13.2752 3.24143 13.1785 3.31884 13.072 3.39624C12.9753 3.47365 12.8688 3.55106 12.7721 3.63814C12.6753 3.71555 12.5786 3.80263 12.4818 3.88972C12.385 3.9768 12.2883 4.05421 12.1915 4.14129C12.1431 4.18967 12.0948 4.23805 12.0367 4.27675C11.9883 4.31546 11.9496 4.36384 11.9012 4.40254C11.8045 4.48962 11.7174 4.57671 11.6206 4.67347C11.5239 4.76055 11.4368 4.85731 11.3497 4.94439C11.2626 5.04115 11.1659 5.12823 11.0788 5.22499C10.9917 5.32175 10.9046 5.41851 10.8175 5.51527C10.7305 5.61203 10.6434 5.70879 10.5563 5.80555C10.4692 5.90231 10.3821 6.00874 10.3047 6.1055C10.2757 6.1442 10.2467 6.18291 10.208 6.22161C10.1596 6.28934 10.1015 6.3474 10.0531 6.41513C9.97574 6.52156 9.88866 6.61832 9.81125 6.72476C9.73384 6.83119 9.65644 6.93763 9.57903 7.04406C9.57903 7.04406 9.5113 7.14082 9.47259 7.1892C9.43389 7.24726 9.38551 7.30531 9.34681 7.37304C9.29843 7.44078 9.25005 7.50851 9.21135 7.57624C9.18232 7.61494 9.15329 7.66332 9.12426 7.70203C9.04686 7.80846 8.97912 7.92457 8.90172 8.04068C8.83398 8.15679 8.75658 8.26323 8.68885 8.37934C8.62111 8.49545 8.55338 8.61156 8.48565 8.72767C8.41792 8.84378 8.35019 8.95989 8.28246 9.07601C8.24375 9.14374 8.21473 9.21147 8.17602 9.2792C8.14699 9.32758 8.11797 9.38563 8.08894 9.43401C8.06959 9.47272 8.05024 9.51142 8.03088 9.55012C7.99218 9.62753 7.9438 9.71462 7.9051 9.8017C7.84704 9.92749 7.77931 10.0436 7.72125 10.1694C7.6632 10.2855 7.61482 10.4016 7.55676 10.5177C7.55676 10.5177 7.55676 10.5274 7.54709 10.5371C7.48903 10.6629 7.43098 10.7886 7.3826 10.9144C7.32454 11.0402 7.27616 11.166 7.21811 11.2918C7.16973 11.4176 7.11167 11.5434 7.06329 11.6788C7.01491 11.8046 6.96653 11.9401 6.91815 12.0659C6.77302 12.4529 6.64723 12.8399 6.53112 13.2463C6.53112 13.2463 6.53112 13.2657 6.53112 13.2754C6.49241 13.4108 6.45371 13.5463 6.41501 13.6817C6.3763 13.8172 6.3376 13.9527 6.30857 14.0978C6.27954 14.2139 6.25052 14.33 6.22149 14.4558C6.22149 14.4752 6.21181 14.4945 6.20214 14.5139C6.17311 14.6493 6.13441 14.7945 6.10538 14.9299C6.07635 15.0751 6.04732 15.2105 6.01829 15.3557C5.98927 15.5008 5.96024 15.6363 5.94089 15.7814C5.92154 15.8782 5.91186 15.9749 5.89251 16.0717C5.89251 16.1201 5.87316 16.1684 5.87316 16.2072C5.8538 16.3523 5.83445 16.4974 5.8151 16.6329C5.79575 16.778 5.7764 16.9232 5.75704 17.0683C5.73769 17.2038 5.72802 17.3392 5.71834 17.465C5.71834 17.4747 5.71834 17.494 5.71834 17.5037C5.70867 17.6489 5.68931 17.794 5.67964 17.9391C5.66996 18.0843 5.66029 18.2391 5.65061 18.3842C5.63126 18.6842 5.62158 18.9841 5.62158 19.2841C5.62158 19.4002 5.62158 19.526 5.62158 19.6421C5.62158 19.7582 5.62158 19.8743 5.62158 19.9904C5.62158 20.1065 5.62158 20.213 5.63126 20.3291C5.64093 20.6581 5.66996 20.9774 5.70867 21.3064V21.3257C5.71834 21.4321 5.73769 21.5386 5.74737 21.645C5.7764 21.8579 5.80542 22.0804 5.84413 22.2933C5.99894 23.1448 6.21181 23.9769 6.50209 24.7607C6.60852 25.0606 6.72464 25.3509 6.85042 25.6315C6.93751 25.825 7.02459 26.0089 7.11167 26.1927C7.16005 26.2798 7.19876 26.3765 7.24714 26.4636C7.29551 26.5507 7.34389 26.6475 7.39227 26.7345C7.44065 26.8216 7.48903 26.9087 7.53741 26.9958C7.58579 27.0829 7.63417 27.17 7.69223 27.257C7.74061 27.3441 7.79866 27.4312 7.84704 27.5086C7.9051 27.5957 7.95348 27.6731 8.01153 27.7602C8.06959 27.8473 8.12764 27.9247 8.1857 28.0118C8.30181 28.1763 8.41792 28.3311 8.54371 28.4956C8.76625 28.7858 9.00815 29.0664 9.25005 29.3277C9.2694 29.347 9.28875 29.3664 9.3081 29.3954C9.31778 29.4148 9.33713 29.4244 9.34681 29.4341C9.39519 29.4922 9.45324 29.5502 9.5113 29.5986C9.57903 29.6663 9.64676 29.7341 9.71449 29.8018C9.84996 29.9373 9.99509 30.0727 10.1402 30.1985C10.2176 30.2663 10.2854 30.3243 10.3628 30.392C10.4402 30.4501 10.5079 30.5178 10.5853 30.5759C10.7401 30.692 10.8853 30.8081 11.0401 30.9242C11.1949 31.0403 11.3497 31.1468 11.5142 31.2435C11.5916 31.2919 11.6787 31.35 11.7561 31.3983C11.998 31.5435 12.2496 31.6886 12.5012 31.8144C12.7527 31.9402 13.014 32.066 13.2752 32.1724C13.3623 32.2111 13.4494 32.2401 13.5365 32.2788C13.5365 32.2788 13.5752 32.2885 13.5945 32.2982C13.7397 32.3562 13.8945 32.4046 14.0396 32.453C14.0493 32.453 14.059 32.453 14.0783 32.4627C14.0783 32.4627 14.117 32.4724 14.1461 32.482C14.2138 32.5014 14.2815 32.5304 14.3493 32.5498C14.3783 32.5498 14.3976 32.5594 14.4267 32.5691C14.5815 32.6175 14.746 32.6562 14.9008 32.6949C14.9975 32.7143 15.0846 32.7336 15.1814 32.753C15.2104 32.753 15.2298 32.7626 15.2588 32.7723C15.4039 32.8013 15.5587 32.8304 15.7039 32.8497C15.7136 32.8497 15.7329 32.8497 15.7426 32.8497C15.8393 32.8594 15.9361 32.8787 16.0329 32.8884C16.2264 32.9078 16.4199 32.9271 16.6134 32.9368C16.7102 32.9368 16.8069 32.9465 16.9037 32.9465C17.0005 32.9465 17.0972 32.9465 17.194 32.9465C18.1519 32.9465 19.0808 32.811 19.9806 32.5594C14.9105 31.1274 11.1562 25.8734 11.1562 19.6034C11.1562 13.3334 14.9105 8.07939 19.9806 6.64735C20.8708 6.39578 21.7997 6.26031 22.7576 6.26031C24.1413 6.26031 25.4669 6.54092 26.686 7.04406C26.7731 7.08277 26.8602 7.12147 26.9473 7.16017C27.644 7.4698 28.3019 7.85684 28.9212 8.30193C29.2308 8.52448 29.5308 8.76638 29.821 9.02763C29.8984 9.09536 29.9662 9.15341 30.0339 9.22114C31.1757 10.2758 32.1336 11.5821 32.8593 13.0528C32.9464 13.2366 33.0334 13.4205 33.1205 13.614C33.285 13.9914 33.4398 14.3784 33.5753 14.7848C33.643 14.988 33.7011 15.1815 33.7688 15.3847C33.8269 15.5879 33.8849 15.7911 33.9333 16.004C33.9817 16.2072 34.0301 16.42 34.0688 16.6329C34.1365 16.9522 34.1849 17.2715 34.2236 17.6005C34.2526 17.8134 34.272 18.0359 34.2913 18.2584C34.2913 18.3649 34.3107 18.481 34.3203 18.5874C34.3203 18.7035 34.33 18.81 34.3397 18.9261C34.3397 19.0422 34.3397 19.1486 34.3494 19.2647C34.3494 19.3809 34.3494 19.497 34.3494 19.6131C34.3494 19.7292 34.3494 19.8453 34.3494 19.9614C34.3494 20.1065 34.3494 20.242 34.3397 20.3871C34.3397 20.4452 34.3397 20.5033 34.3397 20.5613C34.3397 20.6484 34.3397 20.7258 34.33 20.8129C34.33 20.8709 34.33 20.929 34.3203 20.9871C34.3203 21.0741 34.3107 21.1612 34.301 21.2386C34.301 21.2967 34.301 21.3547 34.2913 21.4031C34.2913 21.4902 34.2816 21.5773 34.272 21.6644C34.272 21.7224 34.2623 21.7708 34.2526 21.8289C34.2526 21.9159 34.2333 22.003 34.2236 22.0804C34.2236 22.1385 34.2139 22.1965 34.2042 22.2546C34.1945 22.3417 34.1849 22.4288 34.1752 22.5062C34.1752 22.5546 34.1655 22.6029 34.1558 22.661C34.1462 22.7577 34.1268 22.8448 34.1171 22.9319C34.1171 22.9803 34.1075 23.0287 34.0978 23.077C34.0784 23.2125 34.0591 23.348 34.0301 23.4834C34.0301 23.5028 34.0301 23.5125 34.0301 23.5318C34.0107 23.6479 33.9914 23.764 33.9623 23.8802C33.9623 23.9285 33.943 23.9769 33.9333 24.035C33.9139 24.122 33.8946 24.2091 33.8849 24.2962C33.8752 24.3446 33.8656 24.393 33.8559 24.4414C33.8365 24.5284 33.8172 24.6058 33.7978 24.6929C33.7882 24.751 33.7688 24.809 33.7591 24.8671C33.7398 24.9348 33.7204 25.0122 33.7108 25.08C33.6914 25.138 33.6817 25.2058 33.6624 25.2638C33.643 25.3315 33.6237 25.4089 33.6043 25.4767C33.585 25.5347 33.5753 25.5928 33.5559 25.6508C33.5366 25.7282 33.5076 25.8057 33.4882 25.8831C33.4689 25.9314 33.4592 25.9895 33.4398 26.0379C33.4205 26.1153 33.3915 26.183 33.3721 26.2604C33.3527 26.3185 33.3334 26.3765 33.3237 26.4249C33.285 26.541 33.2463 26.6668 33.2076 26.7829C33.1883 26.841 33.1689 26.899 33.1495 26.9571C33.1302 27.0248 33.1012 27.0926 33.0818 27.1603C33.0625 27.2183 33.0334 27.2861 33.0141 27.3441C32.9947 27.4119 32.9657 27.4699 32.9464 27.5376C32.927 27.5957 32.898 27.6538 32.8786 27.7021C32.8496 27.7699 32.8206 27.8376 32.8012 27.9053C32.7819 27.9634 32.7528 28.0214 32.7335 28.0795C32.7045 28.1376 32.6851 28.2053 32.6561 28.2633C32.6271 28.3214 32.6077 28.3891 32.5787 28.4472C32.5496 28.5052 32.5206 28.573 32.5013 28.631C32.4722 28.6891 32.4529 28.7471 32.4239 28.8052C32.3948 28.8632 32.3658 28.9213 32.3465 28.9794C32.3174 29.0374 32.2884 29.0955 32.2594 29.1632C32.2303 29.2213 32.2013 29.2793 32.1723 29.3374C32.1433 29.3954 32.1142 29.4535 32.0852 29.5019C32.0658 29.5406 32.0465 29.5696 32.0368 29.5986C31.9981 29.676 31.9594 29.7534 31.9207 29.8308C31.8917 29.8889 31.853 29.9566 31.824 30.0147C31.7949 30.0631 31.7756 30.1114 31.7465 30.1598C31.7078 30.2275 31.6691 30.2953 31.6401 30.3533C31.6111 30.4017 31.5917 30.4501 31.5627 30.4888C31.524 30.5565 31.4853 30.6243 31.4466 30.692C31.4272 30.7307 31.3982 30.7694 31.3789 30.8081C31.3402 30.8758 31.3015 30.9339 31.2627 31.0016C31.2337 31.05 31.2047 31.0984 31.1757 31.1468C31.137 31.2048 31.0983 31.2629 31.0596 31.3306C31.0305 31.3693 31.0112 31.408 30.9821 31.4467C30.9338 31.5144 30.8951 31.5822 30.8467 31.6499C30.8273 31.6789 30.808 31.708 30.779 31.7467C30.7306 31.8241 30.6822 31.8918 30.6338 31.9595C30.6338 31.9595 30.6338 31.9595 30.6338 31.9692C30.4984 32.1531 30.3629 32.3466 30.2274 32.5207C30.179 32.5885 30.121 32.6562 30.0726 32.7239C30.0533 32.753 30.0242 32.782 30.0049 32.811C29.9468 32.8787 29.8984 32.9465 29.8404 33.0142C29.821 33.0432 29.8017 33.0626 29.7823 33.0916C29.7243 33.1594 29.6662 33.2271 29.6082 33.2948C29.5888 33.3142 29.5695 33.3432 29.5501 33.3625C29.4921 33.4303 29.434 33.498 29.3759 33.5657C29.3566 33.5948 29.3276 33.6141 29.3082 33.6431C29.2502 33.7109 29.1921 33.7689 29.134 33.8367C29.1147 33.856 29.0857 33.885 29.0663 33.9044C29.0083 33.9721 28.9405 34.0399 28.8728 34.1076C28.5535 34.4366 28.2342 34.7559 27.8955 35.0655C27.8955 35.0655 27.8955 35.0655 27.8859 35.0655C27.8084 35.1332 27.7407 35.201 27.6633 35.2687C27.644 35.2881 27.6343 35.2977 27.6149 35.3074C27.5472 35.3655 27.4795 35.4235 27.4117 35.4816C27.3924 35.5009 27.3634 35.5203 27.344 35.5396C27.2763 35.5977 27.1989 35.6557 27.1311 35.7138C27.1118 35.7235 27.1021 35.7428 27.0828 35.7525C27.0053 35.8105 26.9279 35.8783 26.8505 35.9363C26.8505 35.9363 26.8312 35.946 26.8312 35.9557C26.7441 36.0234 26.6667 36.0815 26.5796 36.1492C26.2216 36.4105 25.8539 36.662 25.4766 36.9039C25.4669 36.9039 25.4572 36.9136 25.4475 36.9233C25.3701 36.9717 25.283 37.02 25.2056 37.0684C25.1863 37.0781 25.1669 37.0974 25.1476 37.1071C25.0702 37.1555 24.9831 37.2039 24.9057 37.2523C24.8863 37.2523 24.867 37.2716 24.8573 37.2813C24.7702 37.3297 24.6831 37.378 24.596 37.4264C24.596 37.4264 24.5767 37.4264 24.567 37.4361C24.4703 37.4845 24.3832 37.5329 24.2864 37.5812C24.2864 37.5812 24.2767 37.5812 24.2671 37.5812C24.1703 37.6296 24.0735 37.678 23.9768 37.7264C23.5801 37.9199 23.1737 38.0941 22.7576 38.2586C22.7576 38.2586 22.7479 38.2586 22.7383 38.2586C21.8771 38.5875 20.9773 38.8488 20.058 39.023C19.1485 39.1971 18.2196 39.2842 17.2714 39.2842H22.835C32.3174 39.2842 40.0001 30.4501 40.0001 19.5453C40.0001 8.64059 32.2207 0 22.7383 0C21.79 0 20.8611 0.0870832 19.9516 0.26125Z" fill="white"/>
</mask>
<g mask="url(#mask2_1077_7724)">
<path d="M39.9033 0H5.56348V39.4777H39.9033V0Z" fill="#030A40"/>
</g>
</svg>
