<svg role="img" viewBox="0 0 23 22" fill="none" xmlns="http://www.w3.org/2000/svg">
    <path fill="#CDF200" d="M9.571 21.5c.529 0 1.046-.046 1.553-.139.07-.01.135-.026.205-.041.021 0 .043-.01.07-.016.043-.01.086-.015.124-.025l.108-.026c.027-.005.06-.015.086-.02l.124-.032.065-.015c.043-.01.091-.026.135-.036a.66.66 0 0 1 .054-.015c.048-.016.097-.031.14-.047.016 0 .027-.01.043-.015.048-.016.097-.031.15-.052.012 0 .022-.005.033-.01.054-.02.108-.036.162-.057h.01c.233-.087.46-.18.68-.283l.162-.077h.01c.05-.026.103-.051.152-.077 0 0 .01 0 .016-.005l.146-.078a.116.116 0 0 0 .027-.015c.043-.026.086-.046.129-.072.01-.005.021-.01.032-.02.043-.026.092-.052.135-.078.005 0 .01-.005.016-.01.21-.124.415-.257.61-.396.048-.031.091-.067.134-.098 0 0 .011-.005.011-.01.043-.031.086-.062.124-.093.01-.005.016-.015.027-.02.038-.032.076-.057.113-.088.011-.01.027-.02.038-.031l.113-.093c.011-.005.017-.015.027-.02.043-.036.081-.072.124-.108h.006c.178-.155.35-.32.517-.484a1.919 1.919 0 0 1 .124-.129l.038-.036c.027-.03.06-.062.086-.093.017-.015.033-.036.049-.051l.086-.098c.016-.015.027-.03.043-.046.033-.036.06-.067.087-.103.01-.015.021-.026.032-.041.027-.036.06-.072.086-.108.011-.016.027-.031.038-.047 0 0 0-.005.005-.01.027-.03.054-.067.081-.098l.227-.293v-.005c.027-.036.054-.078.08-.114l.038-.051c.022-.036.049-.067.07-.103.017-.02.027-.041.044-.062l.064-.092.049-.078c.021-.03.043-.067.064-.097.011-.02.027-.041.038-.062l.065-.108c.005-.01.01-.02.021-.031l.027-.041c.022-.031.038-.067.06-.098.016-.026.027-.052.043-.077v-.005a.807.807 0 0 1 .054-.093l.065-.124c.01-.02.021-.036.027-.056.016-.026.026-.057.043-.088l.048-.092a.692.692 0 0 0 .043-.093.713.713 0 0 0 .044-.093c.016-.03.026-.061.043-.092a.772.772 0 0 0 .043-.098c.01-.026.027-.057.038-.082a.656.656 0 0 0 .037-.093c0-.005 0-.01.006-.016.01-.03.027-.061.037-.087a.907.907 0 0 0 .043-.108c.011-.031.027-.062.038-.088.011-.036.027-.066.038-.103.01-.03.027-.066.038-.097.01-.036.027-.072.037-.108l.033-.093c.021-.062.043-.129.065-.19.01-.031.021-.062.027-.088.01-.041.026-.077.037-.118.011-.026.016-.052.022-.078v-.005c.01-.04.027-.082.038-.123.005-.026.016-.052.021-.083v-.005l.033-.113c.005-.03.016-.057.021-.088l.032-.123c.006-.03.017-.057.022-.088.01-.046.022-.087.032-.133l.017-.078c.01-.046.021-.092.027-.139v-.01c0-.026.01-.046.016-.072.01-.062.027-.123.037-.185v-.026l.033-.196v-.02c0-.026.005-.052.01-.077v-.026l.017-.124a.38.38 0 0 1 .01-.077l.017-.134c0-.03.005-.061.01-.092 0-.047.011-.093.017-.134 0-.026 0-.057.01-.082 0-.047.011-.093.011-.14 0-.03 0-.056.006-.087 0-.046.005-.093.01-.134 0-.03 0-.062.006-.092 0-.047 0-.088.005-.134v-.093c0-.077 0-.15.006-.226v-.371c0-.062 0-.118-.006-.18 0-.062-.005-.118-.01-.18 0-.057-.011-.119-.017-.175-.01-.119-.021-.237-.037-.35a3.445 3.445 0 0 0-.05-.283 3.487 3.487 0 0 0-.042-.232 6.126 6.126 0 0 0-.167-.664c-.033-.108-.07-.216-.108-.324a8.944 8.944 0 0 0-.254-.623c-.048-.103-.097-.2-.145-.298-.027-.047-.049-.098-.076-.145-.01-.02-.021-.036-.032-.056-.043-.077-.086-.155-.135-.232-.027-.046-.06-.092-.086-.139a7.254 7.254 0 0 0-.529-.726 8.688 8.688 0 0 0-.318-.355c-.016-.02-.037-.036-.054-.056l-.113-.114c-.075-.072-.156-.144-.232-.216a2.115 2.115 0 0 0-.118-.103l-.124-.103c-.124-.097-.248-.195-.378-.283a6.488 6.488 0 0 0-1.386-.72l-.048-.016a.741.741 0 0 1-.097-.036l-.054-.015c-.033-.01-.06-.02-.092-.031l-.06-.015c-.026-.01-.053-.016-.08-.026a.313.313 0 0 1-.065-.02c-.027-.006-.054-.016-.08-.021-.022 0-.044-.01-.06-.016-.027-.005-.06-.015-.086-.02-.022 0-.043-.01-.065-.016l-.145-.03c-.049-.011-.098-.021-.146-.026a.2.2 0 0 1-.054-.01c-.032 0-.06-.011-.092-.016a.328.328 0 0 1-.07-.01.434.434 0 0 1-.08-.01c-.022 0-.044 0-.065-.006-.033 0-.06-.005-.092-.01h-.06c-.032 0-.064 0-.096-.005h-.367c-.534 0-1.051.072-1.548.205 2.82.762 4.918 3.557 4.918 6.892 0 3.336-2.092 6.13-4.918 6.892a5.94 5.94 0 0 1-1.553.206h-.161c-.054 0-.108 0-.162-.005-.108-.005-.216-.015-.324-.026-.053-.005-.107-.01-.161-.02h-.032a3.94 3.94 0 0 1-.243-.041c-.017 0-.027 0-.043-.01l-.157-.032-.135-.03a1.201 1.201 0 0 1-.13-.037s-.026-.005-.042-.01c-.022-.005-.049-.015-.07-.02-.016 0-.033-.01-.043-.016-.011 0-.022-.005-.038-.01 0 0-.011 0-.022-.005h-.01a2.783 2.783 0 0 1-.27-.093c-.049-.015-.097-.036-.146-.057a6.789 6.789 0 0 1-.188-.077c-.017-.01-.038-.015-.054-.026-.065-.025-.124-.056-.19-.087a3.327 3.327 0 0 1-.188-.098c-.016-.01-.027-.015-.043-.026-.065-.036-.124-.066-.183-.102-.043-.026-.092-.052-.135-.083-.043-.026-.086-.056-.135-.082-.043-.031-.086-.057-.13-.088-.086-.062-.172-.123-.253-.185a2.08 2.08 0 0 1-.124-.098c-.043-.03-.08-.067-.124-.103-.038-.036-.08-.067-.118-.103-.038-.036-.081-.072-.119-.108l-.113-.108c-.033-.03-.06-.062-.092-.087 0-.006-.01-.01-.016-.016l-.006-.005a.226.226 0 0 1-.032-.036v-.005l-.097-.098-.01-.01c-.028-.031-.06-.062-.087-.098-.01-.01-.016-.02-.027-.03-.022-.027-.048-.052-.07-.083a.23.23 0 0 1-.043-.057c-.049-.062-.103-.123-.151-.185-.033-.041-.065-.088-.097-.129a2.995 2.995 0 0 1-.097-.134c-.033-.046-.06-.087-.092-.134-.032-.046-.06-.092-.092-.133-.027-.047-.059-.093-.086-.14l-.08-.138c-.028-.047-.055-.098-.082-.144a1.848 1.848 0 0 1-.075-.145c-.027-.046-.049-.097-.076-.149-.021-.051-.048-.098-.07-.149-.032-.067-.059-.134-.091-.206-.006-.015-.017-.03-.022-.051l-.08-.206a7.343 7.343 0 0 1-.448-1.827v-.01c-.011-.078-.017-.155-.022-.232v-.052l-.016-.237c0-.061 0-.118-.006-.18v-.37c0-.078 0-.15.006-.227v-.067c0-.051 0-.108.005-.16V10.43c0-.052.006-.103.011-.155v-.072c0-.051.01-.098.01-.15V9.977l.017-.16v-.062c.01-.072.016-.144.027-.22.01-.073.022-.145.032-.222v-.01c0-.021.006-.042.011-.057v-.016c.005-.046.016-.087.022-.133v-.021c0-.015.005-.03.01-.046.011-.052.022-.103.027-.155 0-.01 0-.02.006-.03 0-.01.005-.026.01-.037l.033-.144c0-.015.005-.03.01-.04 0-.011 0-.022.006-.032l.032-.139c0-.015.011-.036.011-.051v-.02c.016-.057.027-.114.043-.17 0-.011.006-.021.011-.032v-.005c.016-.072.038-.139.06-.21v-.006c0-.01.005-.026.01-.036l.049-.165c0-.005 0-.01.005-.02V7.72c.006-.015.011-.036.016-.051l.033-.093c.01-.036.021-.072.037-.108.011-.036.027-.072.038-.108.016-.041.027-.082.043-.123.006-.016.011-.037.022-.052.01-.03.021-.062.032-.087 0-.01.006-.016.011-.026.016-.036.027-.072.043-.113.011-.021.016-.047.027-.067 0 0 0-.01.006-.016.016-.041.032-.082.048-.118.01-.026.022-.046.027-.072.01-.026.022-.047.032-.072.017-.036.033-.078.049-.114 0-.005.005-.015.01-.02l.033-.072c.016-.031.027-.062.043-.093 0-.01.011-.02.016-.036 0 0 0-.005.006-.01.01-.016.016-.036.027-.052.016-.03.027-.061.043-.087.005-.016.016-.031.021-.046.006-.016.017-.026.022-.042.016-.036.038-.067.054-.103.01-.015.016-.036.027-.051l.016-.03c.016-.032.032-.058.049-.088 0 0 0-.006.005-.01l.032-.062c0-.006.006-.016.011-.021.01-.02.027-.041.038-.067 0-.01.01-.015.016-.026.016-.025.032-.056.049-.082.016-.026.032-.052.048-.082.016-.031.038-.062.054-.093 0 0 .005-.01.01-.016.017-.025.033-.051.05-.082l.042-.072c.006-.01.017-.02.022-.03.016-.021.027-.047.043-.068.016-.025.033-.046.043-.067a.206.206 0 0 0 .027-.046c.011-.02.027-.041.038-.057.01-.02.027-.036.038-.056a.466.466 0 0 0 .043-.067l.032-.046.033-.047c.021-.025.037-.056.059-.082.005-.01.016-.02.021-.031.006-.01.017-.02.022-.03.01-.011.016-.027.027-.037.022-.026.038-.051.06-.077.037-.052.08-.103.123-.16 0 0 .006-.01.011-.01.027-.036.054-.067.076-.098.01-.015.021-.025.032-.04.01-.011.016-.021.027-.032l.07-.082.032-.036c.011-.016.027-.031.038-.046.016-.021.032-.037.049-.057.016-.016.027-.031.043-.052.016-.015.032-.036.048-.051a.339.339 0 0 1 .043-.046c.011-.016.027-.031.038-.042.022-.02.043-.046.065-.066.01-.01.021-.021.027-.031.01-.01.021-.02.032-.036.027-.031.06-.062.087-.088 0-.005.01-.01.016-.015.043-.047.091-.088.134-.134.049-.052.103-.098.151-.144.033-.031.065-.062.103-.093 0 0 .005 0 .01-.005l.044-.041c.027-.02.048-.047.075-.067.011-.005.017-.016.022-.02.021-.016.038-.037.06-.052.02-.016.037-.031.059-.047.01-.01.016-.015.026-.02.027-.02.054-.041.076-.067l.043-.03c.006-.006.01-.011.022-.016l.102-.083c.054-.04.113-.087.167-.128.054-.042.114-.083.173-.124.043-.03.086-.062.13-.087.015-.01.032-.021.042-.031l.097-.062c.006 0 .011-.005.017-.01.021-.016.043-.026.064-.042.022-.015.049-.03.07-.046.011 0 .017-.01.027-.015.027-.016.054-.036.081-.052.016-.01.038-.02.054-.036h.006c.037-.02.075-.046.113-.067.06-.036.118-.072.183-.103.06-.036.124-.067.183-.097.017-.006.027-.016.044-.021.027-.01.048-.026.075-.036.016-.005.027-.016.043-.02.049-.026.092-.047.14-.068.006 0 .011-.005.017-.01.021-.01.043-.02.059-.03.032-.016.06-.026.092-.042.048-.02.091-.041.14-.062.016-.005.032-.015.048-.02l.06-.026c.01 0 .021-.01.032-.015 0 0 .032-.01.043-.021.049-.02.097-.041.151-.062a2.25 2.25 0 0 1 .2-.072c.064-.026.134-.046.2-.067.026-.01.053-.015.085-.025.124-.042.248-.078.373-.114l.36-.092c.14-.031.276-.062.421-.088A4.55 4.55 0 0 1 12.666.5h-3.1C4.28.5 0 5.204 0 11s4.281 10.5 9.566 10.5h.005Z"/><mask id="a" width="20" height="22" x="0" y="0" maskUnits="userSpaceOnUse" style="mask-type:luminance"><path fill="#fff" d="M9.567.5C4.433.5.238 4.947.012 10.521v.958C.238 17.053 4.433 21.5 9.572 21.5c.528 0 1.046-.046 1.553-.134.07-.01.135-.026.205-.041.021 0 .043-.01.07-.015.043-.01.086-.016.124-.026l.108-.026c.027-.005.06-.015.086-.02l.124-.031.065-.016c.043-.01.091-.026.135-.036.016 0 .032-.01.053-.015a4.21 4.21 0 0 0 .14-.047c.017 0 .028-.01.044-.015a2.66 2.66 0 0 0 .15-.052c.012 0 .022-.005.033-.01.054-.02.108-.036.162-.056h.01c.233-.088.46-.18.68-.284l.162-.077h.01c.05-.026.103-.051.152-.077 0 0 .01 0 .016-.005l.146-.077c.01 0 .021-.01.026-.016.044-.026.087-.046.13-.072.01-.005.021-.01.032-.02.043-.026.092-.052.135-.078.005 0 .01-.005.016-.01.21-.123.41-.257.61-.396.048-.031.091-.067.134-.098 0 0 .011-.005.011-.01.043-.031.086-.062.124-.093.01-.005.016-.015.027-.02.038-.031.075-.057.113-.088.011-.01.027-.02.038-.03l.113-.094a.093.093 0 0 1 .027-.02c.043-.036.081-.072.124-.108h.006c.178-.155.35-.32.517-.484l.027-.026a1.916 1.916 0 0 1 .14-.139l.087-.092.048-.052.087-.098c.016-.015.026-.03.043-.046.027-.036.059-.067.086-.103.01-.015.021-.026.032-.041.027-.036.06-.072.087-.108.01-.016.026-.031.037-.046 0 0 0-.006.006-.01l.08-.099.227-.293v-.005c.027-.036.054-.077.08-.113l.039-.052c.021-.036.048-.067.07-.103.016-.02.027-.041.043-.062l.065-.092.048-.077c.022-.031.043-.067.065-.098.016-.02.027-.041.038-.062l.064-.108c.006-.01.011-.02.022-.03.01-.016.016-.027.027-.042.021-.031.038-.067.06-.098.015-.026.026-.051.042-.077v-.005c.017-.031.038-.062.054-.093l.065-.123a.187.187 0 0 0 .027-.057c.016-.026.027-.057.043-.088l.049-.092a.713.713 0 0 0 .043-.093c.016-.03.032-.062.043-.092.016-.031.027-.062.043-.093a.771.771 0 0 0 .043-.098c.01-.026.027-.057.038-.082.016-.031.027-.062.038-.093 0-.005 0-.01.005-.015.01-.031.027-.062.038-.088a.878.878 0 0 0 .043-.108c.01-.03.027-.062.038-.088.01-.036.027-.066.037-.102l.038-.098c.01-.036.027-.072.038-.108l.032-.093c.022-.062.043-.129.065-.19.01-.031.021-.062.027-.093.01-.041.027-.077.038-.118.01-.026.016-.052.021-.078v-.005c.01-.04.027-.082.038-.123.005-.026.016-.052.021-.083v-.01l.033-.113c.005-.031.016-.057.021-.088l.033-.123c.005-.031.016-.057.021-.088l.033-.133.016-.078c.01-.046.021-.092.027-.139v-.01c0-.026.01-.046.016-.072.01-.062.027-.124.038-.185v-.026l.032-.196v-.02c0-.026.006-.052.01-.078v-.025l.017-.124a.43.43 0 0 1 .01-.082l.017-.134c0-.03.005-.062.01-.093 0-.046.012-.087.017-.133 0-.026.005-.057.01-.083 0-.046.012-.092.012-.139 0-.03 0-.056.005-.087 0-.046.005-.093.01-.134 0-.03 0-.062.006-.093 0-.046 0-.087.005-.133v-.093c0-.077 0-.15.006-.227v-.37c0-.062 0-.119-.006-.18 0-.062-.005-.119-.01-.18 0-.062-.011-.119-.016-.176a7.695 7.695 0 0 0-.038-.35c-.011-.077-.022-.154-.038-.231a.175.175 0 0 0-.01-.052c-.012-.077-.028-.154-.044-.231a6.128 6.128 0 0 0-.075-.335c-.027-.113-.06-.221-.092-.33a7.594 7.594 0 0 0-.361-.946c-.049-.103-.097-.201-.146-.299-.027-.051-.048-.098-.075-.144-.011-.02-.022-.036-.033-.057-.043-.077-.086-.154-.135-.231-.026-.046-.059-.093-.086-.14a7.892 7.892 0 0 0-.528-.725l-.049-.062c-.07-.082-.14-.16-.215-.241-.017-.021-.038-.042-.054-.062-.017-.02-.038-.036-.054-.057-.038-.036-.076-.077-.113-.113-.076-.072-.157-.144-.232-.216a2.154 2.154 0 0 0-.119-.103l-.124-.103c-.124-.098-.248-.196-.383-.283a6.15 6.15 0 0 0-1.1-.608l-.146-.061a1.539 1.539 0 0 0-.14-.052l-.048-.015-.097-.031a.689.689 0 0 0-.054-.016l-.092-.03-.06-.016c-.026-.01-.053-.015-.08-.026-.022-.005-.043-.01-.065-.02-.027-.005-.054-.016-.08-.02l-.06-.016c-.027-.005-.06-.016-.086-.02-.022 0-.043-.011-.065-.016l-.146-.031c-.048-.01-.097-.02-.145-.026a.199.199 0 0 1-.054-.01c-.032 0-.06-.01-.092-.016a.33.33 0 0 1-.07-.01c-.027 0-.054-.005-.08-.01-.022 0-.044 0-.07-.005-.033 0-.06-.006-.092-.01h-.06c-.032 0-.064 0-.097-.006h-.367a6 6 0 0 0-1.552.206c2.82.762 4.917 3.557 4.917 6.892 0 3.335-2.092 6.13-4.917 6.892a5.936 5.936 0 0 1-1.553.206h-.162c-.054 0-.108 0-.162-.005a6.907 6.907 0 0 1-.485-.047h-.032c-.081-.01-.162-.026-.243-.04-.016 0-.027 0-.043-.011l-.157-.031-.135-.031c-.043-.01-.086-.02-.129-.036-.016 0-.027-.005-.043-.01-.022-.005-.049-.016-.07-.02-.016 0-.032-.011-.043-.016a.105.105 0 0 1-.038-.01c-.005 0-.01 0-.022-.006h-.01a2.782 2.782 0 0 1-.27-.092 1.712 1.712 0 0 1-.146-.057l-.188-.077c-.016-.01-.038-.016-.054-.026-.065-.026-.124-.057-.189-.087a3.263 3.263 0 0 1-.189-.098.166.166 0 0 0-.043-.02c-.065-.037-.124-.068-.183-.104-.043-.025-.092-.051-.135-.082-.043-.026-.086-.057-.135-.083-.043-.03-.086-.056-.13-.087-.085-.062-.172-.123-.253-.185a2.077 2.077 0 0 1-.124-.098l-.124-.103c-.037-.036-.08-.067-.118-.103-.038-.036-.081-.072-.119-.108l-.113-.108c-.032-.031-.06-.062-.092-.088 0-.005-.01-.01-.016-.015l-.005-.005a.226.226 0 0 1-.033-.036v-.005a1.523 1.523 0 0 1-.091-.098l-.011-.01c-.027-.031-.06-.062-.086-.098-.011-.01-.017-.02-.027-.031l-.07-.082c-.017-.021-.033-.037-.044-.057-.048-.062-.102-.124-.15-.185-.033-.042-.065-.088-.098-.13-.032-.04-.064-.087-.097-.133l-.091-.134c-.033-.046-.06-.092-.092-.139-.027-.046-.06-.092-.086-.139l-.081-.139-.081-.144a1.848 1.848 0 0 1-.076-.144c-.027-.051-.048-.098-.075-.15-.022-.05-.049-.097-.07-.148-.033-.067-.06-.134-.092-.206a.344.344 0 0 0-.021-.052l-.081-.206a7.364 7.364 0 0 1-.426-1.657c-.006-.057-.016-.113-.022-.17v-.01a3.355 3.355 0 0 1-.021-.232v-.051l-.017-.237c0-.062 0-.118-.005-.18v-.371c0-.077 0-.149.005-.226v-.067c0-.052 0-.108.006-.16V10.413c0-.051.005-.103.01-.154v-.072c0-.052.011-.098.011-.15V9.96c0-.051.011-.108.017-.16v-.056c.01-.072.016-.144.026-.221L3.08 9.3v-.01c0-.02.005-.041.01-.056v-.016c.006-.046.017-.087.022-.134v-.02c0-.016.006-.031.011-.047a1.54 1.54 0 0 0 .027-.154c0-.01 0-.02.005-.03 0-.011.006-.027.011-.042l.032-.144c0-.016.006-.031.011-.041 0-.01 0-.021.006-.031l.032-.14c0-.015.01-.035.01-.05v-.021c.017-.057.028-.114.044-.17 0-.01 0-.02.01-.031.017-.072.038-.139.06-.211v-.005c0-.01.005-.026.01-.036l.05-.165c0-.005 0-.01.005-.02V7.71c.005-.02.01-.036.016-.051l.032-.093c.011-.036.022-.072.038-.108.01-.036.027-.072.038-.108.016-.041.027-.083.043-.124.005-.015.01-.036.021-.051.011-.031.022-.062.033-.088 0-.01.005-.015.01-.026.017-.036.028-.072.044-.113.01-.025.016-.046.027-.067 0 0 0-.01.005-.015.016-.041.032-.082.049-.118.01-.026.021-.047.027-.073.01-.025.021-.046.032-.072l.048-.113c0-.005.006-.015.011-.02l.033-.072c.016-.031.027-.062.043-.093.005-.01.01-.02.016-.036v-.01c.01-.016.016-.036.027-.052l.043-.087s.016-.031.022-.047c.005-.015.016-.025.021-.04.016-.037.038-.068.054-.104.01-.015.016-.036.027-.051l.016-.031c.016-.031.033-.057.049-.088 0 0 0-.005.005-.01l.032-.062c0-.005.006-.015.011-.02.011-.02.027-.042.038-.067 0-.01.01-.016.016-.026l.049-.082c.016-.026.032-.052.048-.083.016-.03.038-.061.054-.092 0-.005.006-.01.01-.016.017-.026.033-.051.05-.082.016-.026.026-.046.043-.072.005-.01.016-.02.021-.031.016-.02.027-.046.043-.067a.467.467 0 0 0 .043-.067.206.206 0 0 0 .027-.046c.011-.02.027-.041.038-.057.011-.02.027-.036.038-.051a.466.466 0 0 0 .043-.067l.032-.047.033-.046c.021-.026.038-.056.06-.082.004-.01.015-.02.02-.031.006-.01.017-.02.022-.031.011-.01.016-.026.027-.036.022-.026.038-.051.06-.077.043-.052.08-.108.123-.16 0 0 .006-.01.011-.01.027-.031.054-.062.076-.098.01-.01.021-.026.032-.041.01-.01.016-.02.027-.03l.07-.083c.011-.01.022-.026.033-.036.01-.016.026-.031.037-.047.016-.02.033-.036.049-.056.016-.016.027-.031.043-.052.016-.015.032-.036.048-.051.011-.016.027-.031.044-.047.01-.015.027-.03.037-.04.022-.026.044-.047.065-.068.01-.01.022-.02.027-.03l.032-.031c.027-.031.06-.062.087-.088 0-.005.01-.01.016-.015.043-.047.091-.093.135-.134.048-.052.102-.098.15-.144.033-.031.065-.062.103-.093l.005-.005.044-.041c.027-.02.048-.047.075-.067.01-.005.016-.016.022-.02.021-.016.037-.037.059-.052l.06-.047c.01-.005.015-.015.026-.02a.458.458 0 0 0 .076-.067l.043-.03c.005 0 .01-.011.021-.016l.103-.083c.054-.04.113-.087.167-.128.054-.042.113-.083.173-.124.043-.03.086-.062.129-.087.016-.01.027-.021.043-.031l.097-.062c.006 0 .011-.01.016-.01.022-.016.044-.026.065-.042.022-.015.049-.03.07-.046l.027-.015c.027-.016.054-.036.081-.052.016-.01.038-.02.054-.036h.005c.038-.02.076-.046.114-.067.059-.036.124-.072.183-.103.06-.036.124-.067.183-.097.016-.006.027-.016.043-.021.027-.01.049-.026.076-.036.016-.005.027-.016.043-.02.049-.021.092-.047.14-.068.006 0 .011-.005.016-.01.022-.01.044-.02.06-.03.032-.016.059-.026.091-.042.049-.02.092-.041.14-.062.017-.005.033-.015.05-.02l.058-.026c.011 0 .022-.01.033-.015 0 0 .032-.01.043-.016l.15-.062c.066-.025.13-.051.2-.072.065-.025.135-.046.2-.067.027-.01.054-.015.086-.025.124-.042.248-.078.372-.114l.361-.092c.14-.031.276-.062.421-.088A4.693 4.693 0 0 1 12.667.5h-3.1Z"/></mask><g mask="url(#a)"><path fill="#00A997" d="M19.143.5H.012v21h19.131V.5Z"/></g><path fill="#020A40" d="M12.671 21.5c5.285 0 9.566-4.7 9.566-10.5S17.956.5 12.672.5a8.62 8.62 0 0 0-1.553.139c-.14.026-.28.051-.421.087a4.11 4.11 0 0 0-.361.093c-.124.036-.248.072-.372.113-.027.01-.054.016-.087.026-.064.02-.134.046-.2.067-.064.026-.129.046-.199.072l-.194.077-.032.016c-.119.051-.237.103-.35.154-.114.052-.222.108-.335.165-.016.005-.027.015-.043.02l-.183.098c-.06.036-.124.067-.184.103l-.178.108-.097.062c-.027.015-.054.036-.08.051-.06.036-.12.078-.173.119-.06.041-.113.082-.173.118-.059.041-.113.083-.172.124-.054.04-.113.082-.167.128-.054.047-.108.088-.168.134-.053.047-.107.088-.161.134-.027.026-.054.052-.087.072-.027.02-.048.046-.075.067a3.973 3.973 0 0 0-.156.144c-.054.046-.103.098-.151.144-.049.052-.103.098-.151.15l-.146.154-.146.154a3.714 3.714 0 0 0-.14.16.55.55 0 0 1-.054.062c-.027.036-.059.067-.086.103-.043.056-.092.108-.135.164l-.13.17c-.02.026-.037.052-.058.077-.022.031-.049.062-.07.098-.028.036-.055.072-.076.108-.016.02-.032.047-.049.067-.043.057-.08.119-.124.18-.037.062-.08.119-.118.18l-.114.186-.113.185c-.021.036-.037.072-.06.108-.015.026-.031.057-.048.083l-.032.061c-.021.041-.048.088-.07.134-.032.067-.07.129-.102.196-.033.061-.06.123-.092.19v.01a3.318 3.318 0 0 0-.092.201c-.032.067-.06.134-.091.2-.027.068-.06.135-.087.207l-.08.206c-.076.206-.152.411-.216.628v.015l-.065.216a2.673 2.673 0 0 0-.06.222l-.048.19c0 .01-.005.02-.01.03-.017.073-.038.15-.055.222l-.048.227c-.016.077-.032.149-.043.226-.011.052-.016.103-.027.155 0 .025-.011.051-.011.072l-.032.226-.033.232c-.01.072-.016.144-.021.216v.02c-.006.078-.016.155-.022.232l-.016.237c-.01.16-.016.319-.016.479v.375a8.446 8.446 0 0 0 .049.7v.01c.005.057.016.114.02.17.017.114.033.232.055.345a7.53 7.53 0 0 0 .706 2.074c.027.047.049.098.076.145.027.046.054.097.08.144.028.046.054.092.081.139.027.046.054.092.087.139.027.046.06.092.091.139l.092.133c.032.047.065.088.097.134a7.988 7.988 0 0 0 .647.762c.027.031.06.062.092.088l.113.108c.076.072.156.144.237.21.038.037.081.068.124.104.043.03.081.067.124.097.087.062.168.124.254.186s.172.118.264.17l.135.082a6.397 6.397 0 0 0 .846.412c.049.02.097.036.146.056 0 0 .022.005.032.01.081.032.167.057.248.083.006 0 .011 0 .022.005a.97.97 0 0 1 .151.046c.016 0 .027.006.043.01.086.026.178.047.264.068l.157.03s.027 0 .043.01c.08.016.167.032.248.042h.021c.054.005.108.015.162.02.108.01.216.021.324.026.054 0 .108 0 .161.006h.162c.534 0 1.052-.073 1.553-.206-2.82-.762-4.917-3.557-4.917-6.892 0-3.336 2.092-6.13 4.917-6.892a5.938 5.938 0 0 1 3.742.21l.146.063a6.287 6.287 0 0 1 1.601.993c.043.036.081.067.119.103a6.995 6.995 0 0 1 1.575 2.038c.048.098.097.196.145.299.092.2.178.406.253.622.038.109.07.211.108.325.033.108.065.216.092.33.027.112.054.22.076.334.037.17.064.34.086.514.016.114.027.232.038.35 0 .057.01.119.016.175 0 .062.005.119.01.18.006.062 0 .119.006.18v.371c0 .078 0 .15-.005.227v.092c0 .047 0 .088-.006.134 0 .031 0 .062-.005.093 0 .046-.006.092-.011.134 0 .03 0 .061-.005.087 0 .046-.006.093-.011.14 0 .03 0 .056-.011.087 0 .046-.01.092-.016.133 0 .031-.006.062-.011.093-.005.046-.01.093-.016.134 0 .026-.006.051-.01.082-.006.052-.017.098-.023.144a3.076 3.076 0 0 1-.048.293v.027c-.01.061-.022.123-.038.185 0 .026-.01.051-.016.082-.01.046-.021.093-.027.14l-.016.076c-.01.047-.022.088-.032.134-.006.031-.017.062-.022.093a.858.858 0 0 0-.027.113c-.01.03-.016.067-.027.098l-.032.113c-.011.031-.017.062-.027.093-.011.04-.022.082-.038.123-.01.026-.016.057-.027.083-.01.04-.027.077-.038.118-.01.03-.021.062-.027.093l-.064.19-.033.093c-.01.036-.027.072-.038.108-.01.03-.026.067-.037.098-.011.036-.027.066-.038.103-.01.03-.027.061-.038.087-.016.036-.032.072-.043.108-.01.031-.027.062-.038.093-.016.03-.026.067-.043.098-.016.03-.027.066-.043.097a.786.786 0 0 0-.043.098c-.016.031-.027.062-.043.093-.016.03-.032.062-.043.092-.016.031-.033.062-.049.098l-.048.093c-.017.03-.033.062-.049.087-.01.021-.021.036-.027.057l-.065.124-.053.097c-.017.026-.027.052-.044.078a2.201 2.201 0 0 0-.059.102c-.016.026-.027.052-.043.073l-.065.108c-.01.02-.027.04-.038.061-.021.036-.043.067-.064.103l-.049.078c-.021.03-.043.061-.064.097-.017.02-.027.041-.044.062-.026.036-.048.072-.075.108a.986.986 0 0 1-.038.052 2.176 2.176 0 0 1-.08.113v.005c-.076.098-.152.2-.227.293-.027.037-.06.073-.086.108-.011.016-.027.031-.038.047-.032.036-.06.072-.092.108-.01.015-.021.026-.032.041l-.097.108c-.011.01-.022.026-.033.036l-.097.108c-.01.016-.027.026-.037.041-.033.037-.065.067-.098.103l-.037.037c-.033.035-.07.071-.108.108-.178.175-.356.344-.545.51h-.005c-.043.035-.08.071-.124.107-.01.005-.016.016-.027.02l-.113.093-.038.031c-.038.031-.08.062-.119.093l-.027.02c-.043.031-.086.067-.129.098 0 0-.01.006-.01.01l-.141.104a12.441 12.441 0 0 1-.63.411l-.136.078c-.01.005-.021.015-.032.02-.043.026-.092.052-.135.077-.01.006-.021.01-.027.016l-.145.077s-.011 0-.017.005c-.053.026-.102.052-.156.077h-.01c-.055.031-.109.057-.162.083a9.834 9.834 0 0 1-.68.283h-.01c-.48.175-.982.314-1.494.406a8.624 8.624 0 0 1-1.553.14h3.1l-.065.056Z"/><mask id="b" width="20" height="22" x="3" y="0" maskUnits="userSpaceOnUse" style="mask-type:luminance"><path fill="#fff" d="M11.119.639c-.14.026-.28.051-.421.087a4.11 4.11 0 0 0-.361.093l-.372.108c-.027.01-.054.016-.087.026-.064.02-.134.046-.2.067-.064.026-.129.046-.199.072l-.194.077-.032.016c-.119.051-.237.103-.35.154-.114.051-.222.108-.335.165-.016.005-.027.015-.043.02-.065.031-.124.067-.183.098-.06.036-.124.067-.184.103l-.178.108-.097.062c-.027.015-.054.036-.08.051a2 2 0 0 0-.173.119l-.173.118c-.059.041-.113.082-.172.124-.054.04-.113.082-.167.128a3.703 3.703 0 0 0-.162.134c-.054.046-.108.088-.162.134a.57.57 0 0 1-.086.072c-.027.02-.049.046-.076.067-.054.046-.102.093-.156.144-.054.046-.103.098-.151.144-.049.052-.102.098-.151.15-.049.05-.097.102-.146.154l-.145.154a3.714 3.714 0 0 0-.14.16.551.551 0 0 1-.054.062c-.027.036-.06.066-.087.103-.043.056-.091.108-.134.164l-.13.17s-.038.052-.06.077c-.02.031-.048.062-.07.098-.026.036-.053.072-.075.108-.016.02-.032.046-.048.067-.043.057-.081.118-.124.18-.038.062-.081.119-.119.18l-.113.186-.113.185c-.022.036-.038.072-.06.108-.016.026-.032.057-.048.082l-.033.062c-.021.041-.048.088-.07.134-.032.067-.07.129-.102.196-.032.061-.06.123-.092.185 0 0 0 .005-.005.01-.033.067-.065.134-.092.2-.032.068-.06.135-.091.202-.027.067-.06.133-.087.206-.027.066-.054.138-.08.205-.082.206-.152.412-.216.628v.016l-.065.216a2.674 2.674 0 0 0-.06.221l-.048.19c0 .011-.005.021-.01.032l-.055.22-.048.227c-.016.078-.032.15-.043.227-.011.051-.016.103-.027.154 0 .026-.011.052-.011.072l-.032.227-.033.231c-.01.072-.016.145-.021.211v.021c-.006.077-.016.154-.022.232l-.016.236c-.01.16-.016.32-.016.48v.375c0 .062 0 .118.005.18.006.175.022.345.043.52v.01c.006.057.017.113.022.17.016.113.032.232.054.345a7.526 7.526 0 0 0 .706 2.074c.027.046.049.098.076.144.027.046.054.098.08.144l.081.14c.027.046.054.092.087.138.027.047.06.093.086.134l.092.134c.032.046.064.087.097.134a6.374 6.374 0 0 0 .593.7c.01.01.021.02.032.036.006.01.016.015.022.02.027.031.06.062.091.088l.114.108c.075.072.156.144.237.211l.124.103c.043.03.08.067.124.098.086.061.167.123.253.185.087.062.173.118.265.17l.134.082a6.35 6.35 0 0 0 .847.412c.049.02.097.036.146.057 0 0 .021.005.032.01.08.03.167.056.248.082a.602.602 0 0 0 .06.015c.037.011.075.026.113.037.016 0 .027.005.043.01.086.026.178.046.264.067l.156.03c.016 0 .027.006.043.011.081.015.168.031.248.041h.022c.054.005.108.016.162.02.108.011.215.021.323.027.054 0 .108.005.162.005h.162c.534 0 1.051-.072 1.553-.206-2.826-.762-4.918-3.557-4.918-6.892 0-3.335 2.092-6.13 4.918-6.892a5.927 5.927 0 0 1 3.882.273 6.284 6.284 0 0 1 1.602.993 6.994 6.994 0 0 1 1.839 2.44c.091.2.177.407.253.623.038.108.07.21.108.319.032.108.064.216.091.33.027.107.054.22.076.334.037.17.064.34.086.514.016.114.027.232.038.35 0 .057.01.119.016.175 0 .062.005.119.01.18 0 .062 0 .119.006.18v.371c0 .078 0 .15-.005.227v.092c0 .047 0 .088-.006.134 0 .031 0 .062-.005.093 0 .046-.006.093-.01.134 0 .03 0 .062-.006.087 0 .047-.006.093-.011.14 0 .03-.005.056-.01.087 0 .046-.012.092-.017.134 0 .03-.005.061-.01.092l-.017.134c0 .026-.005.052-.01.082-.006.052-.017.098-.022.144a.379.379 0 0 1-.011.078c-.01.072-.022.144-.038.216v.026c-.01.061-.021.123-.038.185 0 .026-.01.051-.016.082-.01.047-.021.093-.027.14l-.016.076c-.01.047-.021.088-.032.134-.006.031-.016.062-.022.093a.862.862 0 0 0-.027.113c-.01.031-.016.067-.027.098l-.032.113c-.01.031-.016.062-.027.093-.01.041-.027.082-.038.123-.01.026-.016.057-.027.083-.01.04-.027.077-.038.118-.01.031-.021.062-.027.088l-.064.19-.032.093c-.011.036-.027.072-.038.108l-.038.098c-.01.036-.027.067-.038.103-.01.03-.027.061-.037.087a.907.907 0 0 0-.044.108c-.01.031-.027.062-.037.093-.017.03-.027.067-.044.098-.016.03-.026.066-.043.097a.778.778 0 0 0-.043.098c-.016.031-.027.062-.043.093-.016.03-.032.062-.043.092l-.049.098-.048.093c-.016.03-.032.062-.049.087-.01.021-.021.036-.027.052l-.064.123-.054.098c-.016.026-.027.052-.043.077-.022.036-.044.072-.06.103-.016.026-.027.052-.043.072l-.064.108c-.011.021-.027.042-.038.062l-.065.103-.049.077c-.021.031-.043.062-.064.098-.016.02-.027.041-.043.062-.027.036-.049.072-.076.108-.01.016-.021.03-.038.052a2.078 2.078 0 0 1-.08.113v.005c-.076.098-.151.2-.227.293-.027.036-.06.072-.086.108-.011.016-.027.031-.038.047-.032.036-.06.072-.092.108-.01.015-.021.025-.032.04l-.097.109-.032.036-.097.108c-.011.016-.027.026-.038.041-.032.036-.065.067-.097.103l-.038.036c-.032.036-.07.072-.108.108-.178.175-.356.345-.544.51h-.006c-.043.036-.08.072-.124.108-.01.01-.016.015-.027.02l-.113.093c-.01.01-.027.02-.038.031-.037.031-.08.062-.118.093-.011.005-.017.015-.027.02-.043.031-.087.067-.13.098 0 0-.01.005-.01.01l-.14.103a12.37 12.37 0 0 1-.632.412c-.043.026-.091.052-.134.077-.011.006-.022.016-.033.021-.043.026-.091.051-.135.077-.01 0-.021.01-.027.016l-.145.077s-.011 0-.016.005l-.157.077h-.01l-.162.077a9.813 9.813 0 0 1-.68.284h-.01a9.1 9.1 0 0 1-1.494.406 8.624 8.624 0 0 1-1.553.14h3.1c5.285 0 9.566-4.7 9.566-10.5C22.291 5.095 17.956.5 12.671.5a8.62 8.62 0 0 0-1.552.139Z"/></mask><g mask="url(#b)"><path fill="#020A40" d="M22.238.5H3.102v21h19.136V.5Z"/></g><path fill="#fff" d="M12.671 21.5c5.285 0 9.566-4.7 9.566-10.5S17.956.5 12.672.5a8.62 8.62 0 0 0-1.553.139c-.14.026-.28.051-.421.087a4.11 4.11 0 0 0-.361.093c-.124.036-.248.072-.372.113-.027.01-.054.016-.087.026-.064.02-.134.046-.2.067-.064.026-.129.046-.199.072l-.194.077-.032.016c-.119.051-.237.103-.35.154-.114.052-.222.108-.335.165-.016.005-.027.015-.043.02l-.183.098c-.06.036-.124.067-.184.103l-.178.108-.097.062c-.027.015-.054.036-.08.051-.06.036-.12.078-.173.119-.06.041-.113.082-.173.118-.059.041-.113.083-.172.124-.054.04-.113.082-.167.128-.054.047-.108.088-.168.134-.053.047-.107.088-.161.134-.027.026-.054.052-.087.072-.027.02-.048.046-.075.067a3.973 3.973 0 0 0-.156.144c-.054.046-.103.098-.151.144-.049.052-.103.098-.151.15l-.146.154-.146.154a3.714 3.714 0 0 0-.14.16.55.55 0 0 1-.054.062c-.027.036-.059.067-.086.103-.043.056-.092.108-.135.164l-.13.17c-.02.026-.037.052-.058.077-.022.031-.049.062-.07.098-.028.036-.055.072-.076.108-.016.02-.032.047-.049.067-.043.057-.08.119-.124.18-.037.062-.08.119-.118.18l-.114.186-.113.185c-.021.036-.037.072-.06.108-.015.026-.031.057-.048.083l-.032.061c-.021.041-.048.088-.07.134-.032.067-.07.129-.102.196-.033.061-.06.123-.092.19v.01a3.318 3.318 0 0 0-.092.201c-.032.067-.06.134-.091.2-.027.068-.06.135-.087.207l-.08.206c-.076.206-.152.411-.216.628v.015l-.065.216a2.673 2.673 0 0 0-.06.222l-.048.19c0 .01-.005.02-.01.03-.017.073-.038.15-.055.222l-.048.227c-.016.077-.032.149-.043.226-.011.052-.016.103-.027.155 0 .025-.011.051-.011.072l-.032.226-.033.232c-.01.072-.016.144-.021.216v.02c-.006.078-.016.155-.022.232l-.016.237c-.01.16-.016.319-.016.479v.375a8.446 8.446 0 0 0 .049.7v.01c.005.057.016.114.02.17.017.114.033.232.055.345a7.53 7.53 0 0 0 .706 2.074c.027.047.049.098.076.145.027.046.054.097.08.144.028.046.054.092.081.139.027.046.054.092.087.139.027.046.06.092.091.139l.092.133c.032.047.065.088.097.134a7.988 7.988 0 0 0 .647.762c.027.031.06.062.092.088l.113.108c.076.072.156.144.237.21.038.037.081.068.124.104.043.03.081.067.124.097.087.062.168.124.254.186s.172.118.264.17l.135.082a6.397 6.397 0 0 0 .846.412c.049.02.097.036.146.056 0 0 .022.005.032.01.081.032.167.057.248.083.006 0 .011 0 .022.005a.97.97 0 0 1 .151.046c.016 0 .027.006.043.01.086.026.178.047.264.068l.157.03s.027 0 .043.01c.08.016.167.032.248.042h.021c.054.005.108.015.162.02.108.01.216.021.324.026.054 0 .108 0 .161.006h.162c.534 0 1.052-.073 1.553-.206-2.82-.762-4.917-3.557-4.917-6.892 0-3.336 2.092-6.13 4.917-6.892a5.938 5.938 0 0 1 3.742.21l.146.063a6.287 6.287 0 0 1 1.601.993c.043.036.081.067.119.103a6.995 6.995 0 0 1 1.575 2.038c.048.098.097.196.145.299.092.2.178.406.253.622.038.109.07.211.108.325.033.108.065.216.092.33.027.112.054.22.076.334.037.17.064.34.086.514.016.114.027.232.038.35 0 .057.01.119.016.175 0 .062.005.119.01.18.006.062 0 .119.006.18v.371c0 .078 0 .15-.005.227v.092c0 .047 0 .088-.006.134 0 .031 0 .062-.005.093 0 .046-.006.092-.011.134 0 .03 0 .061-.005.087 0 .046-.006.093-.011.14 0 .03 0 .056-.011.087 0 .046-.01.092-.016.133 0 .031-.006.062-.011.093-.005.046-.01.093-.016.134 0 .026-.006.051-.01.082-.006.052-.017.098-.023.144a3.076 3.076 0 0 1-.048.293v.027c-.01.061-.022.123-.038.185 0 .026-.01.051-.016.082-.01.046-.021.093-.027.14l-.016.076c-.01.047-.022.088-.032.134-.006.031-.017.062-.022.093a.858.858 0 0 0-.027.113c-.01.03-.016.067-.027.098l-.032.113c-.011.031-.017.062-.027.093-.011.04-.022.082-.038.123-.01.026-.016.057-.027.083-.01.04-.027.077-.038.118-.01.03-.021.062-.027.093l-.064.19-.033.093c-.01.036-.027.072-.038.108-.01.03-.026.067-.037.098-.011.036-.027.066-.038.103-.01.03-.027.061-.038.087-.016.036-.032.072-.043.108-.01.031-.027.062-.038.093-.016.03-.026.067-.043.098-.016.03-.027.066-.043.097a.786.786 0 0 0-.043.098c-.016.031-.027.062-.043.093-.016.03-.032.062-.043.092-.016.031-.033.062-.049.098l-.048.093c-.017.03-.033.062-.049.087-.01.021-.021.036-.027.057l-.065.124-.053.097c-.017.026-.027.052-.044.078a2.201 2.201 0 0 0-.059.102c-.016.026-.027.052-.043.073l-.065.108c-.01.02-.027.04-.038.061-.021.036-.043.067-.064.103l-.049.078c-.021.03-.043.061-.064.097-.017.02-.027.041-.044.062-.026.036-.048.072-.075.108a.986.986 0 0 1-.038.052 2.176 2.176 0 0 1-.08.113v.005c-.076.098-.152.2-.227.293-.027.037-.06.073-.086.108-.011.016-.027.031-.038.047-.032.036-.06.072-.092.108-.01.015-.021.026-.032.041l-.097.108c-.011.01-.022.026-.033.036l-.097.108c-.01.016-.027.026-.037.041-.033.037-.065.067-.098.103l-.037.037c-.033.035-.07.071-.108.108-.178.175-.356.344-.545.51h-.005c-.043.035-.08.071-.124.107-.01.005-.016.016-.027.02l-.113.093-.038.031c-.038.031-.08.062-.119.093l-.027.02c-.043.031-.086.067-.129.098 0 0-.01.006-.01.01l-.141.104a12.441 12.441 0 0 1-.63.411l-.136.078c-.01.005-.021.015-.032.02-.043.026-.092.052-.135.077-.01.006-.021.01-.027.016l-.145.077s-.011 0-.017.005c-.053.026-.102.052-.156.077h-.01c-.055.031-.109.057-.162.083a9.834 9.834 0 0 1-.68.283h-.01c-.48.175-.982.314-1.494.406a8.624 8.624 0 0 1-1.553.14h3.1l-.065.056Z"/><mask id="c" width="20" height="22" x="3" y="0" maskUnits="userSpaceOnUse" style="mask-type:luminance"><path fill="#fff" d="M11.119.639c-.14.026-.28.051-.421.087a4.11 4.11 0 0 0-.361.093l-.372.108c-.027.01-.054.016-.087.026-.064.02-.134.046-.2.067-.064.026-.129.046-.199.072l-.194.077-.032.016c-.119.051-.237.103-.35.154-.114.051-.222.108-.335.165-.016.005-.027.015-.043.02-.065.031-.124.067-.183.098-.06.036-.124.067-.184.103l-.178.108-.097.062c-.027.015-.054.036-.08.051a2 2 0 0 0-.173.119l-.173.118c-.059.041-.113.082-.172.124-.054.04-.113.082-.167.128a3.703 3.703 0 0 0-.162.134c-.054.046-.108.088-.162.134a.57.57 0 0 1-.086.072c-.027.02-.049.046-.076.067-.054.046-.102.093-.156.144-.054.046-.103.098-.151.144-.049.052-.102.098-.151.15-.049.05-.097.102-.146.154l-.145.154a3.714 3.714 0 0 0-.14.16.551.551 0 0 1-.054.062c-.027.036-.06.066-.087.103-.043.056-.091.108-.134.164l-.13.17s-.038.052-.06.077c-.02.031-.048.062-.07.098-.026.036-.053.072-.075.108-.016.02-.032.046-.048.067-.043.057-.081.118-.124.18-.038.062-.081.119-.119.18l-.113.186-.113.185c-.022.036-.038.072-.06.108-.016.026-.032.057-.048.082l-.033.062c-.021.041-.048.088-.07.134-.032.067-.07.129-.102.196-.032.061-.06.123-.092.185 0 0 0 .005-.005.01-.033.067-.065.134-.092.2-.032.068-.06.135-.091.202-.027.067-.06.133-.087.206-.027.066-.054.138-.08.205-.082.206-.152.412-.216.628v.016l-.065.216a2.674 2.674 0 0 0-.06.221l-.048.19c0 .011-.005.021-.01.032l-.055.22-.048.227c-.016.078-.032.15-.043.227-.011.051-.016.103-.027.154 0 .026-.011.052-.011.072l-.032.227-.033.231c-.01.072-.016.145-.021.211v.021c-.006.077-.016.154-.022.232l-.016.236c-.01.16-.016.32-.016.48v.375c0 .062 0 .118.005.18.006.175.022.345.043.52v.01c.006.057.017.113.022.17.016.113.032.232.054.345a7.526 7.526 0 0 0 .706 2.074c.027.046.049.098.076.144.027.046.054.098.08.144l.081.14c.027.046.054.092.087.138.027.047.06.093.086.134l.092.134c.032.046.064.087.097.134a6.374 6.374 0 0 0 .593.7c.01.01.021.02.032.036.006.01.016.015.022.02.027.031.06.062.091.088l.114.108c.075.072.156.144.237.211l.124.103c.043.03.08.067.124.098.086.061.167.123.253.185.087.062.173.118.265.17l.134.082a6.35 6.35 0 0 0 .847.412c.049.02.097.036.146.057 0 0 .021.005.032.01.08.03.167.056.248.082a.602.602 0 0 0 .06.015c.037.011.075.026.113.037.016 0 .027.005.043.01.086.026.178.046.264.067l.156.03c.016 0 .027.006.043.011.081.015.168.031.248.041h.022c.054.005.108.016.162.02.108.011.215.021.323.027.054 0 .108.005.162.005h.162c.534 0 1.051-.072 1.553-.206-2.826-.762-4.918-3.557-4.918-6.892 0-3.335 2.092-6.13 4.918-6.892a5.927 5.927 0 0 1 3.882.273 6.284 6.284 0 0 1 1.602.993 6.994 6.994 0 0 1 1.839 2.44c.091.2.177.407.253.623.038.108.07.21.108.319.032.108.064.216.091.33.027.107.054.22.076.334.037.17.064.34.086.514.016.114.027.232.038.35 0 .057.01.119.016.175 0 .062.005.119.01.18 0 .062 0 .119.006.18v.371c0 .078 0 .15-.005.227v.092c0 .047 0 .088-.006.134 0 .031 0 .062-.005.093 0 .046-.006.093-.01.134 0 .03 0 .062-.006.087 0 .047-.006.093-.011.14 0 .03-.005.056-.01.087 0 .046-.012.092-.017.134 0 .03-.005.061-.01.092l-.017.134c0 .026-.005.052-.01.082-.006.052-.017.098-.022.144a.379.379 0 0 1-.011.078c-.01.072-.022.144-.038.216v.026c-.01.061-.021.123-.038.185 0 .026-.01.051-.016.082-.01.047-.021.093-.027.14l-.016.076c-.01.047-.021.088-.032.134-.006.031-.016.062-.022.093a.862.862 0 0 0-.027.113c-.01.031-.016.067-.027.098l-.032.113c-.01.031-.016.062-.027.093-.01.041-.027.082-.038.123-.01.026-.016.057-.027.083-.01.04-.027.077-.038.118-.01.031-.021.062-.027.088l-.064.19-.032.093c-.011.036-.027.072-.038.108l-.038.098c-.01.036-.027.067-.038.103-.01.03-.027.061-.037.087a.907.907 0 0 0-.044.108c-.01.031-.027.062-.037.093-.017.03-.027.067-.044.098-.016.03-.026.066-.043.097a.778.778 0 0 0-.043.098c-.016.031-.027.062-.043.093-.016.03-.032.062-.043.092l-.049.098-.048.093c-.016.03-.032.062-.049.087-.01.021-.021.036-.027.052l-.064.123-.054.098c-.016.026-.027.052-.043.077-.022.036-.044.072-.06.103-.016.026-.027.052-.043.072l-.064.108c-.011.021-.027.042-.038.062l-.065.103-.049.077c-.021.031-.043.062-.064.098-.016.02-.027.041-.043.062-.027.036-.049.072-.076.108-.01.016-.021.03-.038.052a2.078 2.078 0 0 1-.08.113v.005c-.076.098-.151.2-.227.293-.027.036-.06.072-.086.108-.011.016-.027.031-.038.047-.032.036-.06.072-.092.108-.01.015-.021.025-.032.04l-.097.109-.032.036-.097.108c-.011.016-.027.026-.038.041-.032.036-.065.067-.097.103l-.038.036c-.032.036-.07.072-.108.108-.178.175-.356.345-.544.51h-.006c-.043.036-.08.072-.124.108-.01.01-.016.015-.027.02l-.113.093c-.01.01-.027.02-.038.031-.037.031-.08.062-.118.093-.011.005-.017.015-.027.02-.043.031-.087.067-.13.098 0 0-.01.005-.01.01l-.14.103a12.37 12.37 0 0 1-.632.412c-.043.026-.091.052-.134.077-.011.006-.022.016-.033.021-.043.026-.091.051-.135.077-.01 0-.021.01-.027.016l-.145.077s-.011 0-.016.005l-.157.077h-.01l-.162.077a9.813 9.813 0 0 1-.68.284h-.01a9.1 9.1 0 0 1-1.494.406 8.624 8.624 0 0 1-1.553.14h3.1c5.285 0 9.566-4.7 9.566-10.5C22.291 5.095 17.956.5 12.671.5a8.62 8.62 0 0 0-1.552.139Z"/></mask><g mask="url(#c)"><path fill="#fff" d="M22.238.5H3.102v21h19.136V.5Z"/></g>
  </svg>
