<svg width="155" height="32" viewBox="0 0 155 32" fill="none" xmlns="http://www.w3.org/2000/svg">
<g id="Group 2608866">
<g id="OpenPassLogo_original">
<path id="Vector" d="M11.0655 26.2282C11.6764 26.2282 12.2749 26.1715 12.8609 26.058C12.942 26.0454 13.0168 26.0264 13.0978 26.0075C13.1227 26.0075 13.1477 25.9949 13.1789 25.9886C13.2287 25.976 13.2786 25.9697 13.3222 25.9571C13.3659 25.9445 13.4033 25.9382 13.4469 25.9255C13.4781 25.9192 13.5155 25.9066 13.5467 25.9003C13.5965 25.8877 13.6402 25.8751 13.69 25.8625C13.715 25.8562 13.7399 25.8499 13.7649 25.8436C13.8147 25.831 13.8708 25.812 13.9207 25.7994C13.9394 25.7931 13.9581 25.7868 13.983 25.7805C14.0392 25.7616 14.0953 25.7427 14.1451 25.7238C14.1638 25.7238 14.1763 25.7111 14.195 25.7048C14.2511 25.6859 14.3072 25.667 14.3696 25.6418C14.382 25.6418 14.3945 25.6355 14.407 25.6292C14.4693 25.6039 14.5316 25.585 14.594 25.5598C14.594 25.5598 14.6002 25.5598 14.6065 25.5598C14.8745 25.4526 15.1364 25.3391 15.392 25.213C15.4543 25.1814 15.5166 25.1499 15.579 25.1184C15.579 25.1184 15.5852 25.1184 15.5914 25.1184C15.6475 25.0869 15.7099 25.0553 15.766 25.0238C15.766 25.0238 15.7785 25.0238 15.7847 25.0175C15.8408 24.986 15.8969 24.9544 15.953 24.9229C15.9655 24.9166 15.978 24.9103 15.9842 24.904C16.0341 24.8725 16.0839 24.8472 16.1338 24.8157C16.1463 24.8094 16.1587 24.8031 16.1712 24.7905C16.2211 24.7589 16.2772 24.7274 16.3271 24.6959C16.3333 24.6959 16.3395 24.6896 16.3458 24.6833C16.5889 24.5319 16.8258 24.368 17.0502 24.1977C17.1063 24.1599 17.1562 24.1157 17.2061 24.0779C17.2061 24.0779 17.2185 24.0716 17.2185 24.0653C17.2684 24.0275 17.3183 23.9896 17.3619 23.9518C17.3744 23.9455 17.3806 23.9329 17.3931 23.9266C17.4367 23.8887 17.4804 23.8572 17.524 23.8194C17.5365 23.8067 17.5552 23.7941 17.5676 23.7815C17.6113 23.7437 17.6549 23.7059 17.6986 23.668C17.711 23.6617 17.7173 23.6491 17.7297 23.6428C17.7796 23.5987 17.8232 23.5545 17.8731 23.5104C17.8731 23.5104 17.8731 23.5104 17.8794 23.5104C18.0851 23.3212 18.2846 23.1194 18.4778 22.9176C18.4903 22.905 18.4965 22.8987 18.5028 22.8861C18.5402 22.8419 18.5838 22.7978 18.6212 22.76C18.6337 22.7474 18.6524 22.7284 18.6648 22.7158C18.696 22.678 18.7334 22.6402 18.7646 22.6023C18.7833 22.5834 18.802 22.5582 18.8207 22.5393C18.8519 22.5014 18.8893 22.4573 18.9204 22.4194C18.9391 22.4005 18.9516 22.3816 18.9703 22.3627C19.0077 22.3185 19.0389 22.2807 19.0701 22.2366C19.0825 22.2177 19.095 22.205 19.1075 22.1861C19.1386 22.142 19.176 22.0978 19.2072 22.0537C19.2197 22.0348 19.2384 22.0159 19.2508 21.9969C19.2508 21.9969 19.2508 21.9906 19.2571 21.9843C19.2883 21.9465 19.3194 21.9024 19.3506 21.8645C19.4379 21.7447 19.5251 21.6249 19.6124 21.5051C19.6124 21.5051 19.6124 21.5051 19.6124 21.4988C19.6436 21.4546 19.6748 21.4042 19.7059 21.36C19.7184 21.3411 19.7309 21.3222 19.7496 21.297C19.7745 21.2528 19.8057 21.215 19.8306 21.1709C19.8493 21.1456 19.8618 21.1204 19.8805 21.0952C19.9054 21.0574 19.9304 21.0195 19.9553 20.9817C19.974 20.9502 19.9927 20.9186 20.0114 20.8871C20.0363 20.8493 20.0613 20.8051 20.0862 20.7673C20.0987 20.7421 20.1174 20.7168 20.1299 20.6916C20.1548 20.6475 20.1797 20.6033 20.2047 20.5592C20.2109 20.5466 20.2171 20.534 20.2296 20.5214C20.2421 20.5024 20.2483 20.4898 20.2608 20.4709C20.2857 20.4331 20.3044 20.3889 20.3293 20.3511C20.348 20.3196 20.3605 20.288 20.3792 20.2565C20.3792 20.2565 20.3792 20.2565 20.3792 20.2502C20.3979 20.2124 20.4166 20.1745 20.4416 20.1367C20.4665 20.0862 20.4914 20.0358 20.5164 19.9854C20.5288 19.9601 20.5413 19.9412 20.5475 19.916C20.5662 19.8845 20.5787 19.8466 20.5974 19.8088C20.6161 19.771 20.6348 19.7331 20.6535 19.6953C20.6722 19.6574 20.6909 19.6196 20.7034 19.5818C20.7221 19.5439 20.7408 19.5061 20.7533 19.4683C20.772 19.4304 20.7844 19.3926 20.8031 19.3548C20.8218 19.3169 20.8405 19.2728 20.853 19.2349C20.8655 19.2034 20.8842 19.1656 20.8966 19.134C20.9153 19.0962 20.9278 19.0584 20.9403 19.0205C20.9403 19.0142 20.9403 19.0079 20.9465 19.0016C20.959 18.9638 20.9777 18.926 20.9902 18.8944C21.0089 18.8503 21.0276 18.8061 21.04 18.762C21.0525 18.7242 21.0712 18.6863 21.0837 18.6548C21.0961 18.6107 21.1148 18.5728 21.1273 18.5287C21.1398 18.4908 21.1585 18.4467 21.1709 18.4089C21.1834 18.3647 21.2021 18.3206 21.2146 18.2764C21.2271 18.2386 21.2395 18.2008 21.252 18.1629C21.2769 18.0873 21.3019 18.0053 21.3268 17.9296C21.3393 17.8918 21.3517 17.8539 21.358 17.8224C21.3704 17.772 21.3891 17.7278 21.4016 17.6774C21.4141 17.6458 21.4203 17.6143 21.4265 17.5828C21.4265 17.5828 21.4265 17.5828 21.4265 17.5765C21.439 17.526 21.4577 17.4756 21.4702 17.4251C21.4764 17.3936 21.4889 17.3621 21.4951 17.3242C21.4951 17.3242 21.4951 17.3242 21.4951 17.3179C21.5076 17.2738 21.5201 17.2234 21.5325 17.1792C21.5388 17.1414 21.5512 17.1098 21.5575 17.072C21.5699 17.0216 21.5824 16.9711 21.5949 16.9207C21.6011 16.8828 21.6136 16.8513 21.6198 16.8135C21.6323 16.7567 21.6447 16.7063 21.6572 16.6495C21.6634 16.618 21.6697 16.5865 21.6759 16.5549C21.6884 16.4982 21.7008 16.4414 21.7071 16.3847C21.7071 16.3847 21.7071 16.3784 21.7071 16.372C21.7071 16.3405 21.7195 16.3153 21.7258 16.2838C21.7382 16.2081 21.7569 16.1324 21.7694 16.0568C21.7694 16.0441 21.7694 16.0378 21.7694 16.0252C21.7819 15.9496 21.7944 15.8676 21.8068 15.7856C21.8068 15.7793 21.8068 15.7667 21.8068 15.7604C21.8068 15.7288 21.8131 15.6973 21.8193 15.6658C21.8193 15.6532 21.8193 15.6469 21.8193 15.6343C21.8255 15.5838 21.8318 15.5334 21.838 15.4829C21.838 15.4514 21.8442 15.4199 21.8505 15.3883C21.8567 15.3316 21.8629 15.2748 21.8692 15.2244C21.8692 15.1865 21.8754 15.1487 21.8816 15.1109C21.8816 15.0541 21.8941 14.9974 21.9003 14.9469C21.9003 14.9154 21.9003 14.8775 21.9128 14.846C21.9128 14.7893 21.9253 14.7325 21.9253 14.6758C21.9253 14.6379 21.9253 14.6064 21.9315 14.5685C21.9315 14.5118 21.9377 14.455 21.944 14.4046C21.944 14.3668 21.944 14.3289 21.9502 14.2911C21.9502 14.2343 21.9502 14.1839 21.9564 14.1271C21.9564 14.0893 21.9564 14.0515 21.9564 14.0136C21.9564 13.919 21.9564 13.8308 21.9627 13.7362C21.9627 13.6605 21.9627 13.5848 21.9627 13.5092C21.9627 13.4335 21.9627 13.3578 21.9627 13.2821C21.9627 13.2065 21.9627 13.1371 21.9564 13.0614C21.9564 12.9858 21.9502 12.9164 21.944 12.8407C21.944 12.7714 21.9315 12.6957 21.9253 12.6263C21.9128 12.4813 21.9003 12.3362 21.8816 12.1975C21.8692 12.1029 21.8567 12.0083 21.838 11.9137C21.838 11.8948 21.8318 11.8696 21.8255 11.8507C21.8131 11.7561 21.7944 11.6615 21.7757 11.5669C21.7507 11.4282 21.7195 11.2895 21.6884 11.157C21.6572 11.0246 21.6198 10.8859 21.5824 10.7535C21.545 10.621 21.5014 10.4886 21.4577 10.3562C21.3704 10.0976 21.2707 9.8454 21.1647 9.59316C21.1086 9.46704 21.0525 9.34723 20.9964 9.22742C20.9652 9.17067 20.9403 9.10761 20.9091 9.05085C20.8966 9.02563 20.8842 9.00671 20.8717 8.98149C20.8218 8.8869 20.772 8.79231 20.7159 8.69772C20.6847 8.64097 20.6473 8.58421 20.6161 8.52746C20.5475 8.41395 20.479 8.30675 20.4042 8.19325C20.2795 8.00407 20.1423 7.81489 20.0052 7.63832C19.9865 7.6131 19.9678 7.58788 19.9491 7.56896C19.868 7.46806 19.787 7.37347 19.6997 7.27258C19.681 7.24735 19.6561 7.22213 19.6374 7.20321C19.6187 7.17799 19.5937 7.15907 19.575 7.13385C19.5314 7.08971 19.4877 7.03926 19.4441 6.99512C19.3568 6.90683 19.2633 6.81855 19.176 6.73027C19.1324 6.68613 19.0825 6.64198 19.0389 6.60415C18.989 6.56001 18.9454 6.52217 18.8955 6.47803C18.7521 6.35822 18.6087 6.2384 18.4591 6.1312C18.0601 5.84113 17.63 5.58889 17.1874 5.3871C17.1313 5.36188 17.0752 5.33666 17.019 5.31143C16.9629 5.28621 16.9131 5.26729 16.857 5.24837C16.8383 5.24207 16.8196 5.23576 16.8009 5.22945C16.7635 5.21684 16.726 5.20423 16.6886 5.18531C16.6699 5.17901 16.6512 5.1727 16.6263 5.16639C16.5889 5.15378 16.5577 5.14117 16.5203 5.12856C16.4954 5.12225 16.4767 5.11595 16.4517 5.10964C16.4206 5.09703 16.3894 5.09072 16.3582 5.07811C16.3333 5.07181 16.3084 5.0655 16.2834 5.05289C16.2523 5.04658 16.2211 5.03397 16.1899 5.02766C16.165 5.02766 16.14 5.01505 16.1213 5.00875C16.0902 5.00244 16.0528 4.98983 16.0216 4.98352C15.9967 4.98352 15.9717 4.97091 15.9468 4.9646C15.8907 4.95199 15.8346 4.93938 15.7785 4.92677C15.7224 4.91416 15.6663 4.90155 15.6101 4.89524C15.5914 4.89524 15.5665 4.88893 15.5478 4.88263C15.5104 4.88263 15.4792 4.87002 15.4418 4.86371C15.4169 4.86371 15.3857 4.8574 15.3608 4.8511C15.3296 4.8511 15.2984 4.84479 15.2673 4.83849C15.2423 4.83849 15.2174 4.83849 15.1925 4.83218C15.1551 4.83218 15.1239 4.82587 15.0865 4.81957C15.0615 4.81957 15.0428 4.81957 15.0179 4.81957C14.9805 4.81957 14.9431 4.81957 14.9057 4.81326C14.8808 4.81326 14.8621 4.81326 14.8371 4.81326C14.7935 4.81326 14.7498 4.81326 14.7062 4.81326C14.6937 4.81326 14.675 4.81326 14.6626 4.81326C14.6002 4.81326 14.5441 4.81326 14.4818 4.81326C13.8646 4.81326 13.2661 4.90155 12.6926 5.0655C15.953 5.99878 18.3781 9.4229 18.3781 13.5092C18.3781 17.5954 15.9593 21.0195 12.6926 21.9528C12.1191 22.1168 11.5206 22.205 10.8972 22.205C10.8348 22.205 10.7725 22.205 10.7102 22.205C10.6478 22.205 10.5855 22.205 10.5231 22.1987C10.3984 22.1924 10.2738 22.1798 10.1491 22.1672C10.0867 22.1609 10.0244 22.1546 9.96206 22.142C9.96206 22.142 9.94336 22.142 9.93713 22.142C9.93713 22.142 9.93089 22.142 9.92466 22.142C9.83115 22.1294 9.73764 22.1105 9.64413 22.0915C9.62542 22.0915 9.61296 22.0915 9.59425 22.0789C9.53191 22.0663 9.47581 22.0537 9.41347 22.0411C9.36359 22.0285 9.31372 22.0159 9.25761 22.0033C9.20774 21.9906 9.15787 21.978 9.108 21.9591C9.108 21.9591 9.07683 21.9528 9.05812 21.9465C9.03319 21.9402 9.00202 21.9276 8.97708 21.9213C8.95838 21.9213 8.93968 21.9087 8.92721 21.9024C8.91474 21.9024 8.90227 21.896 8.88357 21.8897C8.88357 21.8897 8.8711 21.8897 8.85863 21.8834C8.85863 21.8834 8.8524 21.8834 8.84616 21.8834C8.74018 21.8519 8.64044 21.8141 8.53446 21.7699C8.47835 21.751 8.42225 21.7258 8.36614 21.7006C8.29133 21.669 8.21652 21.6375 8.14795 21.606C8.12924 21.5934 8.10431 21.5871 8.08561 21.5744C8.0108 21.5429 7.94222 21.5051 7.86741 21.4672C7.7926 21.4294 7.72403 21.3916 7.64922 21.3474C7.63052 21.3348 7.61805 21.3285 7.59935 21.3159C7.52454 21.2718 7.45596 21.2339 7.38739 21.1898C7.33752 21.1583 7.28141 21.1267 7.23154 21.0889C7.18166 21.0574 7.13179 21.0195 7.07568 20.988C7.02581 20.9502 6.97594 20.9186 6.92607 20.8808C6.82632 20.8051 6.72658 20.7295 6.63306 20.6538C6.58319 20.6159 6.53955 20.5781 6.48968 20.534C6.43981 20.4961 6.39617 20.452 6.3463 20.4078C6.30266 20.3637 6.25279 20.3259 6.20915 20.2817C6.16551 20.2376 6.11564 20.1934 6.072 20.1493C6.02836 20.1052 5.98472 20.061 5.94108 20.0169C5.90368 19.979 5.87251 19.9412 5.8351 19.9097C5.8351 19.9034 5.82263 19.8971 5.8164 19.8908C5.8164 19.8908 5.8164 19.8908 5.81017 19.8845C5.7977 19.8718 5.78523 19.8592 5.77276 19.8403C5.77276 19.8403 5.77276 19.8403 5.77276 19.834C5.73536 19.7962 5.69795 19.752 5.66055 19.7142C5.66055 19.7142 5.65431 19.7079 5.64808 19.7016C5.61691 19.6637 5.5795 19.6259 5.54833 19.5818C5.53587 19.5692 5.52963 19.5565 5.51716 19.5439C5.49223 19.5124 5.46106 19.4809 5.43612 19.443C5.41742 19.4241 5.39872 19.3989 5.38625 19.3737C5.33014 19.298 5.2678 19.2223 5.21169 19.1467C5.17429 19.0962 5.13688 19.0395 5.09948 18.989C5.06208 18.9386 5.02467 18.8818 4.98727 18.8251C4.94986 18.7683 4.91869 18.7179 4.88129 18.6611C4.84388 18.6044 4.81271 18.5476 4.77531 18.4972C4.74414 18.4404 4.70673 18.3836 4.67556 18.3269C4.64439 18.2701 4.61322 18.2134 4.58205 18.1566C4.55088 18.0999 4.51971 18.0368 4.48854 17.9801C4.45737 17.9233 4.4262 17.8603 4.40126 17.8035C4.37009 17.7467 4.34516 17.6837 4.31399 17.6206C4.28905 17.5576 4.25788 17.5008 4.23294 17.4378C4.19554 17.3558 4.16437 17.2738 4.12696 17.1855C4.12073 17.1666 4.10826 17.1477 4.10203 17.1225C4.07086 17.0405 4.03969 16.9522 4.00852 16.8702C3.96488 16.7441 3.92124 16.6117 3.8776 16.4792C3.81526 16.2838 3.75915 16.082 3.70928 15.8802C3.65941 15.6784 3.61577 15.4703 3.57836 15.2622C3.55343 15.1235 3.53473 14.9847 3.51602 14.8397C3.50355 14.7703 3.49732 14.701 3.49109 14.6316V14.619C3.47862 14.5244 3.47238 14.4298 3.46615 14.3352C3.46615 14.3163 3.46615 14.2911 3.46615 14.2722C3.45992 14.1776 3.45368 14.083 3.44745 13.9821C3.44745 13.9064 3.44745 13.8371 3.44121 13.7614C3.44121 13.6857 3.44121 13.61 3.44121 13.5344C3.44121 13.4587 3.44121 13.383 3.44121 13.3074C3.44121 13.2128 3.44121 13.1245 3.44745 13.0299C3.44745 13.0047 3.44745 12.9795 3.44745 12.9479C3.44745 12.8849 3.44745 12.8155 3.45368 12.7524C3.45368 12.7398 3.45368 12.7272 3.45368 12.7209C3.45368 12.702 3.45368 12.6831 3.45368 12.6642C3.45368 12.6011 3.45992 12.538 3.46615 12.475C3.46615 12.4624 3.46615 12.4498 3.46615 12.4308C3.46615 12.4182 3.46615 12.3993 3.46615 12.3867C3.46615 12.3236 3.47862 12.2669 3.47862 12.2038C3.47862 12.1849 3.47862 12.166 3.47862 12.1408C3.47862 12.1345 3.47862 12.1218 3.47862 12.1155C3.47862 12.1155 3.47862 12.1155 3.47862 12.1092C3.48485 12.0462 3.49109 11.9768 3.49732 11.9137C3.49732 11.8948 3.49732 11.8759 3.49732 11.857C3.49732 11.857 3.49732 11.8444 3.49732 11.8381C3.50979 11.7498 3.51602 11.6615 3.52849 11.5669C3.54096 11.4786 3.55343 11.3904 3.5659 11.2958C3.5659 11.2958 3.5659 11.2895 3.5659 11.2832C3.5659 11.2579 3.57213 11.2327 3.57836 11.2138C3.57836 11.2075 3.57836 11.2012 3.57836 11.1949C3.5846 11.1381 3.59707 11.0877 3.6033 11.0309C3.6033 11.0183 3.6033 11.012 3.6033 11.0057C3.6033 10.9868 3.60953 10.9679 3.61577 10.9489C3.62824 10.8859 3.6407 10.8228 3.64694 10.7598C3.64694 10.7472 3.64694 10.7345 3.65317 10.7219C3.65317 10.7093 3.65941 10.6904 3.66564 10.6778C3.67811 10.621 3.69058 10.558 3.70305 10.5012C3.70305 10.4823 3.70928 10.4634 3.71551 10.4508C3.71551 10.4382 3.71551 10.4255 3.72175 10.4129C3.73422 10.3562 3.74668 10.2994 3.75915 10.2427C3.75915 10.2238 3.77162 10.1985 3.77162 10.1796C3.77162 10.1733 3.77162 10.1607 3.77162 10.1544C3.79032 10.085 3.80279 10.0157 3.82149 9.9463C3.82149 9.93368 3.82773 9.92107 3.83396 9.90846C3.83396 9.90846 3.83396 9.90846 3.83396 9.90215C3.85266 9.81387 3.8776 9.73189 3.90254 9.64361C3.90254 9.64361 3.90254 9.64361 3.90254 9.63731C3.90254 9.62469 3.90877 9.60578 3.915 9.59316C3.93371 9.5238 3.95241 9.46074 3.97111 9.39137C3.97111 9.38507 3.97111 9.37876 3.97735 9.36615C3.97735 9.36615 3.97735 9.35354 3.97735 9.34723C3.98358 9.32831 3.98981 9.30309 3.99605 9.28417C4.00852 9.24634 4.02098 9.2085 4.03345 9.17067C4.04592 9.12652 4.05839 9.08238 4.07709 9.03824C4.08956 8.9941 4.10826 8.94996 4.12073 8.90582C4.13943 8.85537 4.1519 8.80492 4.1706 8.75447C4.17684 8.73556 4.18307 8.71033 4.19554 8.69141C4.20801 8.65358 4.22047 8.61574 4.23294 8.58421C4.23294 8.5716 4.23918 8.5653 4.24541 8.55268C4.26411 8.50854 4.27658 8.4644 4.29528 8.41395C4.30775 8.38873 4.31399 8.3572 4.32645 8.33198C4.32645 8.33198 4.32645 8.31936 4.33269 8.31306C4.35139 8.26261 4.37009 8.21216 4.38879 8.16802C4.40126 8.13649 4.41373 8.11127 4.41997 8.07974C4.43243 8.04821 4.4449 8.02299 4.45737 7.99146C4.47607 7.94731 4.49477 7.89687 4.51348 7.85272C4.51348 7.84642 4.51971 7.83381 4.52594 7.8275C4.53841 7.79597 4.55088 7.77075 4.56335 7.73922C4.58205 7.70138 4.59452 7.66355 4.61322 7.62571C4.61322 7.6131 4.62569 7.60049 4.63192 7.58157C4.63192 7.58157 4.63192 7.57526 4.63816 7.56896C4.65063 7.55004 4.65686 7.52482 4.66933 7.5059C4.68803 7.46806 4.7005 7.43023 4.7192 7.3987C4.72544 7.37978 4.7379 7.36086 4.74414 7.34194C4.75037 7.32303 4.76284 7.31041 4.76907 7.2915C4.78778 7.24735 4.81271 7.20952 4.83141 7.16538C4.84388 7.14646 4.85012 7.12124 4.86259 7.10232C4.86882 7.08971 4.87505 7.07709 4.88129 7.06448C4.89999 7.02665 4.91869 6.99512 4.93739 6.95728C4.93739 6.95728 4.93739 6.95098 4.94363 6.94467C4.9561 6.91945 4.96856 6.89422 4.98103 6.869C4.98103 6.86269 4.98727 6.85008 4.9935 6.84377C5.00597 6.81855 5.02467 6.79333 5.03714 6.7618C5.03714 6.74919 5.04961 6.74288 5.05584 6.73027C5.07454 6.69874 5.09325 6.6609 5.11195 6.62937C5.13065 6.59784 5.14935 6.56631 5.16806 6.52848C5.18676 6.49064 5.21169 6.45281 5.2304 6.41497C5.2304 6.41497 5.23663 6.40236 5.24286 6.39605C5.26157 6.36452 5.28027 6.33299 5.29897 6.29516C5.31767 6.26363 5.33014 6.2384 5.34884 6.20687C5.35508 6.19426 5.36755 6.18165 5.37378 6.16904C5.39248 6.14382 5.40495 6.11229 5.42365 6.08706C5.44235 6.05553 5.46106 6.03031 5.47353 6.00508C5.48599 5.98617 5.49846 5.96725 5.5047 5.94833C5.51716 5.92311 5.53587 5.89788 5.54833 5.87897C5.5608 5.85374 5.5795 5.83482 5.59197 5.8096C5.61067 5.78438 5.62938 5.75285 5.64185 5.72762C5.65431 5.70871 5.66678 5.68979 5.67925 5.67087C5.69172 5.65195 5.70419 5.63303 5.71665 5.61412C5.74159 5.58259 5.76029 5.54475 5.78523 5.51322C5.79146 5.50061 5.80393 5.488 5.81017 5.47539C5.8164 5.46277 5.82887 5.45016 5.8351 5.43755C5.84757 5.42494 5.8538 5.40602 5.86627 5.39341C5.89121 5.36188 5.90991 5.33035 5.93485 5.29882C5.97849 5.23576 6.02836 5.1727 6.07823 5.10334C6.07823 5.10334 6.08447 5.09072 6.0907 5.09072C6.12187 5.04658 6.15304 5.00875 6.17798 4.97091C6.19044 4.95199 6.20291 4.93938 6.21538 4.92046C6.22785 4.90785 6.23408 4.89524 6.24655 4.88263C6.27149 4.8511 6.30266 4.81326 6.32759 4.78173C6.34006 4.76912 6.35253 4.7502 6.365 4.73759C6.37747 4.71867 6.39617 4.69976 6.40864 4.68084C6.42734 4.65561 6.44604 4.6367 6.46474 4.61147C6.48345 4.59255 6.49591 4.57364 6.51462 4.54841C6.53332 4.5295 6.55202 4.50427 6.57072 4.48535C6.58319 4.46644 6.60189 4.44752 6.6206 4.4286C6.63306 4.40968 6.65177 4.39076 6.66423 4.37815C6.68917 4.35293 6.71411 4.3214 6.73904 4.29618C6.75151 4.28356 6.76398 4.27095 6.77021 4.25834C6.78268 4.24573 6.79515 4.23312 6.80762 4.2142C6.83879 4.17636 6.87619 4.13853 6.90736 4.107C6.90736 4.10069 6.91983 4.09439 6.92607 4.08808C6.97594 4.03133 7.03205 3.98088 7.08192 3.92412C7.13802 3.86107 7.20037 3.80431 7.25647 3.74756C7.29388 3.70972 7.33128 3.67189 7.37492 3.63405C7.37492 3.63405 7.38115 3.63405 7.38739 3.62775C7.40609 3.60883 7.41856 3.59622 7.43726 3.5773C7.46843 3.55207 7.49337 3.52054 7.52454 3.49532C7.53701 3.48902 7.54324 3.4764 7.54947 3.4701C7.57441 3.45118 7.59311 3.42596 7.61805 3.40704C7.64299 3.38812 7.66169 3.3692 7.68662 3.35028C7.69909 3.33767 7.70533 3.33137 7.71779 3.32506C7.74897 3.29984 7.78014 3.27461 7.80507 3.24308C7.82377 3.23047 7.83624 3.21786 7.85495 3.20525C7.86118 3.19894 7.86741 3.19264 7.87988 3.18633C7.91729 3.1548 7.96092 3.11696 7.99833 3.08543C8.06067 3.03499 8.12924 2.97823 8.19159 2.92779C8.25393 2.87734 8.3225 2.82689 8.39108 2.77644C8.44095 2.73861 8.49082 2.70077 8.54069 2.66924C8.5594 2.65663 8.5781 2.64402 8.59057 2.63141C8.62797 2.60618 8.66538 2.58096 8.70278 2.55574C8.70901 2.55574 8.71525 2.54943 8.72148 2.54312C8.74642 2.52421 8.77135 2.51159 8.79629 2.49268C8.82123 2.47376 8.8524 2.45484 8.87733 2.43592C8.8898 2.43592 8.89604 2.42331 8.9085 2.41701C8.93968 2.39809 8.97085 2.37286 9.00202 2.35395C9.02072 2.34133 9.04565 2.32872 9.06436 2.3098C9.06436 2.3098 9.06436 2.3098 9.07059 2.3098C9.11423 2.28458 9.15787 2.25305 9.20151 2.22783C9.27008 2.18369 9.33866 2.13954 9.41347 2.10171C9.48204 2.05757 9.55685 2.01973 9.62542 1.9819C9.64413 1.97559 9.6566 1.96298 9.6753 1.95667C9.70647 1.94406 9.7314 1.92514 9.76257 1.91253C9.78128 1.90622 9.79374 1.89361 9.81245 1.88731C9.86855 1.85578 9.91843 1.83055 9.97453 1.80533C9.98077 1.80533 9.987 1.79902 9.99324 1.79272C10.0182 1.78011 10.0431 1.76749 10.0618 1.75488C10.0992 1.73596 10.1304 1.72335 10.1678 1.70443C10.2239 1.67921 10.2738 1.65399 10.3299 1.62876C10.3486 1.62246 10.3673 1.60985 10.386 1.60354C10.4109 1.59093 10.4296 1.58462 10.4546 1.57201C10.467 1.57201 10.4795 1.5594 10.492 1.55309C10.492 1.55309 10.5294 1.54048 10.5418 1.52787C10.5979 1.50264 10.654 1.47742 10.7164 1.4522C10.7912 1.42067 10.866 1.38914 10.9471 1.36391C11.0219 1.33238 11.1029 1.30716 11.1777 1.28194C11.2089 1.26932 11.2401 1.26302 11.2775 1.25041C11.4208 1.19996 11.5642 1.15582 11.7076 1.11168C11.8448 1.07384 11.9881 1.036 12.1253 0.998169C12.2874 0.960334 12.4432 0.922498 12.6116 0.890968C13.4407 0.556753 14.0392 0.5 14.6439 0.5H11.0593C4.94986 0.5 0 6.26363 0 13.3641C0 20.4646 4.94986 26.2282 11.0593 26.2282H11.0655Z" fill="#CDF200"/>
<g id="Group 33">
<g id="Clip path group">
<mask id="mask0_1159_16196" style="mask-type:luminance" maskUnits="userSpaceOnUse" x="0" y="0" width="22" height="27">
<g id="clippath">
<path id="Vector_2" d="M11.0585 0.5C5.12366 0.5 0.27355 5.94833 0.0117188 12.7777V13.9506C0.27355 20.7799 5.12367 26.2282 11.0647 26.2282C11.6757 26.2282 12.2742 26.1715 12.8602 26.0643C12.9412 26.0517 13.016 26.0327 13.0971 26.0138C13.122 26.0138 13.1469 26.0012 13.1781 25.9949C13.228 25.9823 13.2778 25.976 13.3215 25.9634C13.3651 25.9508 13.4025 25.9445 13.4462 25.9319C13.4773 25.9255 13.5147 25.9129 13.5459 25.9066C13.5958 25.894 13.6394 25.8814 13.6893 25.8688C13.7142 25.8625 13.7392 25.8562 13.7641 25.8499C13.814 25.8373 13.8701 25.8183 13.92 25.8057C13.9387 25.8057 13.9574 25.7931 13.9823 25.7868C14.0384 25.7679 14.0945 25.749 14.1444 25.7301C14.1631 25.7301 14.1756 25.7174 14.1943 25.7111C14.2504 25.6922 14.3065 25.6733 14.3688 25.6481C14.3813 25.6481 14.3937 25.6418 14.4062 25.6355C14.4686 25.6102 14.5309 25.5913 14.5932 25.5661C14.5932 25.5661 14.5995 25.5661 14.6057 25.5661C14.8738 25.4589 15.1356 25.3454 15.3912 25.2193C15.4535 25.1878 15.5159 25.1562 15.5782 25.1247C15.5782 25.1247 15.5845 25.1247 15.5907 25.1247C15.6468 25.0932 15.7091 25.0616 15.7652 25.0301C15.7652 25.0301 15.7777 25.0301 15.7839 25.0238C15.8401 24.9923 15.8962 24.9607 15.9523 24.9292C15.9647 24.9292 15.9772 24.9166 15.9834 24.9103C16.0333 24.8788 16.0832 24.8535 16.1331 24.822C16.1455 24.8157 16.158 24.8094 16.1705 24.7968C16.2203 24.7653 16.2764 24.7337 16.3263 24.7022C16.3325 24.7022 16.3388 24.6959 16.345 24.6896C16.5881 24.5382 16.8188 24.3743 17.0495 24.204C17.1056 24.1662 17.1554 24.122 17.2053 24.0842C17.2053 24.0842 17.2178 24.0779 17.2178 24.0716C17.2677 24.0338 17.3175 23.9959 17.3612 23.9581C17.3736 23.9518 17.3799 23.9392 17.3923 23.9329C17.436 23.895 17.4796 23.8635 17.5233 23.8257C17.5357 23.8131 17.5544 23.8004 17.5669 23.7878C17.6105 23.75 17.6542 23.7122 17.6978 23.6743C17.7103 23.6617 17.7165 23.6554 17.729 23.6491C17.7789 23.605 17.8225 23.5608 17.8724 23.5167C17.8724 23.5167 17.8724 23.5167 17.8786 23.5167C18.0843 23.3275 18.2838 23.1257 18.4771 22.9239L18.5082 22.8924C18.5456 22.8482 18.5893 22.8041 18.6267 22.7663C18.6392 22.7537 18.6579 22.7347 18.6703 22.7221C18.7015 22.6843 18.7389 22.6465 18.7701 22.6086C18.7888 22.5897 18.8075 22.5645 18.8262 22.5456C18.8573 22.5077 18.8948 22.4636 18.9259 22.4258C18.9446 22.4068 18.9571 22.3879 18.9758 22.369C19.007 22.3249 19.0444 22.287 19.0755 22.2429C19.088 22.224 19.1005 22.2113 19.1129 22.1924C19.1441 22.1483 19.1815 22.1041 19.2127 22.06C19.2252 22.0411 19.2439 22.0222 19.2563 22.0033C19.2563 22.0033 19.2563 21.9969 19.2626 21.9906C19.2937 21.9528 19.3249 21.9087 19.3561 21.8708C19.4433 21.751 19.5306 21.6312 19.6179 21.5114C19.6179 21.5114 19.6179 21.5114 19.6179 21.5051C19.6491 21.4609 19.6802 21.4105 19.7114 21.3664C19.7239 21.3474 19.7364 21.3285 19.7551 21.3033C19.78 21.2592 19.8112 21.2213 19.8361 21.1772C19.8548 21.152 19.8673 21.1267 19.886 21.1015C19.9109 21.0637 19.9358 21.0258 19.9608 20.988C19.9795 20.9565 19.9982 20.9249 20.0169 20.8934C20.0418 20.8556 20.0668 20.8114 20.0917 20.7736C20.1104 20.7484 20.1229 20.7231 20.1353 20.6979C20.1603 20.6538 20.1852 20.6096 20.2101 20.5655C20.2164 20.5529 20.2226 20.5403 20.2351 20.5277C20.2475 20.5087 20.2538 20.4961 20.2662 20.4772C20.2912 20.4394 20.3099 20.3952 20.3348 20.3574C20.3535 20.3259 20.366 20.2943 20.3847 20.2628C20.3847 20.2628 20.3847 20.2628 20.3847 20.2565C20.4034 20.2187 20.4283 20.1808 20.447 20.143C20.472 20.0926 20.4969 20.0421 20.5218 19.9917C20.5343 19.9727 20.5468 19.9475 20.553 19.9223C20.5717 19.8908 20.5842 19.8529 20.6029 19.8151C20.6216 19.7773 20.6403 19.7394 20.659 19.7016C20.6777 19.6637 20.6964 19.6259 20.7089 19.5881C20.7276 19.5502 20.7463 19.5124 20.7587 19.4746C20.7774 19.4367 20.7899 19.3989 20.8086 19.3611C20.8273 19.3232 20.846 19.2791 20.8585 19.2413C20.871 19.2097 20.8897 19.1719 20.9021 19.1404C20.9208 19.1025 20.9333 19.0647 20.9458 19.0268C20.9458 19.0205 20.9458 19.0142 20.952 19.0079C20.9645 18.9701 20.9832 18.9323 20.9956 18.9007C21.0143 18.8566 21.033 18.8124 21.0455 18.7683C21.058 18.7305 21.0767 18.6926 21.0891 18.6611C21.1016 18.617 21.1203 18.5791 21.1328 18.535C21.1453 18.4972 21.164 18.453 21.1764 18.4152C21.1889 18.371 21.2076 18.3269 21.2201 18.2827C21.2325 18.2449 21.245 18.2071 21.2575 18.1692C21.2824 18.0936 21.3073 18.0116 21.3323 17.9359C21.3447 17.8981 21.3572 17.8603 21.3634 17.8224C21.3759 17.772 21.3946 17.7278 21.4071 17.6774C21.4196 17.6458 21.4258 17.6143 21.432 17.5828C21.432 17.5828 21.432 17.5828 21.432 17.5765C21.4445 17.526 21.4632 17.4756 21.4757 17.4251C21.4819 17.3936 21.4944 17.3621 21.5006 17.3242C21.5006 17.3242 21.5006 17.3179 21.5006 17.3116C21.5131 17.2675 21.5255 17.217 21.538 17.1729C21.5442 17.1351 21.5567 17.1035 21.5629 17.0657C21.5754 17.0153 21.5879 16.9648 21.6003 16.9144C21.6066 16.8765 21.619 16.845 21.6253 16.8072C21.6377 16.7504 21.6502 16.7 21.6627 16.6432C21.6689 16.6117 21.6751 16.5801 21.6814 16.5486C21.6939 16.4919 21.7063 16.4351 21.7126 16.3784C21.7126 16.3784 21.7126 16.372 21.7126 16.3657C21.7126 16.3342 21.725 16.309 21.7313 16.2775C21.7437 16.2018 21.7624 16.1261 21.7749 16.0504C21.7749 16.0378 21.7749 16.0315 21.7749 16.0189C21.7874 15.9432 21.7998 15.8613 21.8123 15.7793C21.8123 15.773 21.8123 15.7604 21.8123 15.7541C21.8123 15.7225 21.8185 15.691 21.8248 15.6595C21.8248 15.6469 21.8248 15.6406 21.8248 15.6279C21.831 15.5775 21.8372 15.5271 21.8435 15.4766C21.8435 15.4451 21.8497 15.4072 21.8559 15.3757C21.8622 15.319 21.8684 15.2622 21.8746 15.2118C21.8746 15.1739 21.8809 15.1361 21.8871 15.0982C21.8871 15.0415 21.8996 14.991 21.9058 14.9343C21.9058 14.9028 21.912 14.8649 21.9183 14.8334C21.9183 14.7766 21.9307 14.7199 21.9307 14.6631C21.9307 14.6253 21.9307 14.5938 21.937 14.5559C21.937 14.4992 21.9432 14.4424 21.9494 14.392C21.9494 14.3541 21.9495 14.3163 21.9557 14.2785C21.9557 14.2217 21.9557 14.1713 21.9619 14.1145C21.9619 14.0767 21.9619 14.0389 21.9619 14.001C21.9619 13.9064 21.9619 13.8181 21.9682 13.7236C21.9682 13.6479 21.9682 13.5722 21.9682 13.4965C21.9682 13.4209 21.9682 13.3452 21.9682 13.2695C21.9682 13.1939 21.9682 13.1245 21.9619 13.0488C21.9619 12.9731 21.9557 12.9038 21.9494 12.8281C21.9494 12.7524 21.937 12.6831 21.9307 12.6137C21.9183 12.4687 21.9058 12.3299 21.8871 12.1849C21.8746 12.0903 21.8622 11.9957 21.8435 11.9011C21.8435 11.8822 21.8372 11.857 21.831 11.8381C21.8185 11.7435 21.7998 11.6489 21.7811 11.5543C21.7562 11.4156 21.725 11.2768 21.6939 11.1444C21.6627 11.0057 21.6253 10.8733 21.5879 10.7408C21.5505 10.6084 21.5068 10.476 21.4632 10.3436C21.3759 10.085 21.2762 9.83279 21.1702 9.58055C21.1141 9.45443 21.058 9.33462 21.0019 9.21481C20.9707 9.15175 20.9458 9.09499 20.9146 9.03824C20.9021 9.01302 20.8897 8.9941 20.8772 8.96888C20.8273 8.87429 20.7774 8.7797 20.7213 8.68511C20.6902 8.62836 20.6528 8.5716 20.6216 8.51485C20.553 8.40134 20.4844 8.29414 20.4096 8.18063C20.285 7.99146 20.1478 7.80228 20.0107 7.62571C19.9919 7.60049 19.9732 7.57526 19.9545 7.55004C19.8735 7.44914 19.7925 7.35456 19.7052 7.25366C19.6865 7.22844 19.6615 7.20321 19.6428 7.17799C19.6241 7.15277 19.5992 7.13385 19.5805 7.10862C19.5369 7.06448 19.4932 7.01404 19.4496 6.96989C19.3623 6.88161 19.2688 6.79333 19.1815 6.70504C19.1379 6.6609 19.088 6.61676 19.0444 6.57893C18.9945 6.53478 18.9509 6.49695 18.901 6.45281C18.7576 6.33299 18.6142 6.21318 18.4584 6.10598C18.0594 5.8096 17.6292 5.56367 17.1866 5.36188C17.1305 5.33666 17.0744 5.31143 17.0183 5.28621C16.9622 5.26098 16.9123 5.24207 16.8562 5.22315C16.8375 5.21684 16.8188 5.21054 16.8001 5.20423C16.7627 5.19162 16.7253 5.17901 16.6879 5.16639C16.6692 5.16009 16.6505 5.15378 16.6255 5.14748C16.5881 5.13487 16.557 5.12225 16.5196 5.10964C16.4946 5.10334 16.4759 5.09703 16.451 5.09072C16.4198 5.07811 16.3887 5.07181 16.3575 5.05919C16.3325 5.05289 16.3076 5.04658 16.2827 5.03397C16.2515 5.02766 16.2203 5.01505 16.1892 5.00875C16.1642 5.00244 16.1393 4.99613 16.1206 4.98983C16.0894 4.98352 16.052 4.97091 16.0208 4.9646C15.9959 4.9646 15.971 4.95199 15.946 4.94569C15.8899 4.93308 15.8338 4.92046 15.7777 4.90785C15.7216 4.89524 15.6655 4.88263 15.6094 4.87632C15.5907 4.87632 15.5658 4.87002 15.547 4.86371C15.5096 4.86371 15.4785 4.8511 15.4411 4.84479C15.4161 4.84479 15.385 4.83849 15.36 4.83218C15.3289 4.83218 15.2977 4.82587 15.2665 4.81957C15.2416 4.81957 15.2166 4.81957 15.1855 4.81326C15.1481 4.81326 15.1169 4.80696 15.0795 4.80065C15.0546 4.80065 15.0359 4.80065 15.0109 4.80065C14.9735 4.80065 14.9361 4.80065 14.8987 4.79434C14.8738 4.79434 14.8551 4.79434 14.8301 4.79434C14.7865 4.79434 14.7429 4.79434 14.6992 4.79434C14.6867 4.79434 14.668 4.79434 14.6556 4.79434C14.5932 4.79434 14.5371 4.79434 14.4748 4.79434C13.8576 4.79434 13.2591 4.88263 12.6794 5.04658C15.9398 5.97986 18.3649 9.40399 18.3649 13.4902C18.3649 17.5765 15.946 21.0006 12.6794 21.9339C12.1058 22.0978 11.5074 22.1861 10.884 22.1861C10.8216 22.1861 10.7593 22.1861 10.6969 22.1861C10.6346 22.1861 10.5723 22.1861 10.5099 22.1798C10.3852 22.1735 10.2605 22.1609 10.1359 22.1483C10.0735 22.142 10.0112 22.1357 9.94884 22.1231C9.94884 22.1231 9.93014 22.1231 9.92391 22.1231C9.92391 22.1231 9.91767 22.1231 9.91144 22.1231C9.81793 22.1105 9.72442 22.0915 9.63091 22.0726C9.6122 22.0726 9.59974 22.0726 9.58103 22.06C9.51869 22.0474 9.46259 22.0348 9.40024 22.0222C9.35037 22.0096 9.3005 21.9969 9.24439 21.9843C9.19452 21.9717 9.14465 21.9591 9.09478 21.9402C9.07607 21.9402 9.0636 21.9339 9.0449 21.9276C9.01997 21.9213 8.9888 21.9087 8.96386 21.9024C8.94516 21.9024 8.92645 21.8897 8.91399 21.8834C8.90152 21.8834 8.88282 21.8771 8.87035 21.8708C8.86411 21.8708 8.85788 21.8708 8.84541 21.8645C8.84541 21.8645 8.83918 21.8645 8.83294 21.8645C8.72696 21.833 8.62722 21.7952 8.52124 21.751C8.46513 21.7321 8.40903 21.7069 8.35292 21.6816C8.27811 21.6501 8.2033 21.6186 8.13473 21.5871C8.11602 21.5744 8.09109 21.5681 8.07239 21.5555C7.99758 21.524 7.929 21.4862 7.85419 21.4483C7.77938 21.4105 7.71081 21.3727 7.636 21.3285C7.6173 21.3159 7.60483 21.3096 7.58613 21.3033C7.51132 21.2592 7.44274 21.2213 7.37417 21.1772C7.3243 21.1456 7.26819 21.1141 7.21832 21.0763C7.16844 21.0448 7.11857 21.0069 7.06246 20.9754C7.01259 20.9375 6.96272 20.906 6.91285 20.8682C6.8131 20.7925 6.71336 20.7168 6.61984 20.6412C6.56997 20.6033 6.52633 20.5655 6.47646 20.5214C6.42659 20.4772 6.38295 20.4394 6.33308 20.3952C6.28944 20.3511 6.23957 20.3133 6.19593 20.2691C6.15229 20.225 6.10242 20.1808 6.05878 20.1367C6.01514 20.0926 5.9715 20.0484 5.92786 20.0043C5.89046 19.9664 5.85929 19.9286 5.82188 19.8971C5.82188 19.8908 5.80941 19.8845 5.80318 19.8782C5.80318 19.8782 5.80318 19.8782 5.79695 19.8718C5.78448 19.8592 5.77201 19.8466 5.75954 19.8277C5.75954 19.8277 5.75954 19.8277 5.75954 19.8214C5.72214 19.7836 5.68473 19.7394 5.65356 19.7016C5.65356 19.7016 5.64733 19.6953 5.64109 19.689C5.60992 19.6511 5.57252 19.6133 5.54135 19.5692C5.52888 19.5565 5.52265 19.5439 5.51018 19.5313C5.48524 19.4998 5.45407 19.462 5.42914 19.4304C5.41043 19.4052 5.39173 19.3863 5.37926 19.3611C5.32316 19.2854 5.26082 19.2097 5.20471 19.134C5.1673 19.0836 5.1299 19.0268 5.09249 18.9764C5.05509 18.926 5.01769 18.8692 4.98028 18.8124C4.94288 18.7557 4.91171 18.7052 4.8743 18.6485C4.8369 18.5917 4.80573 18.535 4.76832 18.4782C4.73715 18.4215 4.69975 18.3647 4.66858 18.308C4.63741 18.2512 4.60624 18.1945 4.57507 18.1377C4.5439 18.081 4.51273 18.0179 4.48155 17.9611C4.45038 17.9044 4.41921 17.8413 4.39428 17.7846C4.36311 17.7215 4.33817 17.6648 4.307 17.6017C4.28206 17.5386 4.25089 17.4819 4.22596 17.4188C4.18855 17.3369 4.15738 17.2549 4.11998 17.1666C4.11374 17.1477 4.10751 17.1288 4.09504 17.1035C4.06387 17.0216 4.0327 16.9333 4.00153 16.8513C3.95789 16.7252 3.91425 16.5928 3.87062 16.4603C3.80827 16.2648 3.75217 16.0631 3.7023 15.8613C3.65242 15.6595 3.60878 15.4514 3.57138 15.2433C3.54644 15.1046 3.52774 14.9658 3.50904 14.8208C3.5028 14.7514 3.49034 14.6821 3.4841 14.6127V14.6001C3.47163 14.5055 3.4654 14.4109 3.45917 14.3163C3.45917 14.2974 3.45917 14.2722 3.45917 14.2533C3.45293 14.1587 3.4467 14.0641 3.44046 13.9632C3.44046 13.8875 3.44046 13.8181 3.43423 13.7425C3.43423 13.6668 3.43423 13.5911 3.43423 13.5155C3.43423 13.4398 3.43423 13.3641 3.43423 13.2884C3.43423 13.1939 3.43423 13.1056 3.44046 13.011C3.44046 12.9858 3.44046 12.9605 3.44046 12.929C3.44046 12.8659 3.44046 12.7966 3.4467 12.7335C3.4467 12.7209 3.4467 12.7083 3.4467 12.702C3.4467 12.6831 3.4467 12.6642 3.4467 12.6452C3.4467 12.5822 3.45293 12.5191 3.45917 12.4561C3.45917 12.4434 3.45917 12.4308 3.45917 12.4119C3.45917 12.3993 3.45917 12.3867 3.45917 12.3678C3.45917 12.3047 3.47163 12.248 3.47163 12.1849C3.47163 12.166 3.47163 12.1471 3.47163 12.1218C3.47163 12.1155 3.47163 12.1029 3.47163 12.0966C3.47163 12.0966 3.47163 12.0966 3.47163 12.0903C3.47163 12.0273 3.4841 11.9579 3.49034 11.8948C3.49034 11.8759 3.49034 11.857 3.49034 11.8381V11.8255C3.5028 11.7372 3.50904 11.6489 3.52151 11.5543C3.53397 11.466 3.54644 11.3777 3.55891 11.2832C3.55891 11.2832 3.55891 11.2768 3.55891 11.2705C3.55891 11.2453 3.56515 11.2201 3.57138 11.2012C3.57138 11.2012 3.57138 11.1886 3.57138 11.1823C3.57761 11.1255 3.59008 11.0751 3.59632 11.0183C3.59632 11.012 3.59632 10.9994 3.59632 10.9931C3.59632 10.9742 3.60255 10.9552 3.60878 10.9363C3.62125 10.8733 3.63372 10.8102 3.63995 10.7472C3.63995 10.7345 3.63995 10.7219 3.64619 10.7093C3.64619 10.6967 3.65242 10.6778 3.65866 10.6589C3.67112 10.6021 3.68359 10.5391 3.69606 10.4823C3.69606 10.4634 3.70229 10.4445 3.70853 10.4319C3.70853 10.4192 3.70853 10.4066 3.71476 10.394C3.72723 10.3373 3.7397 10.2805 3.75217 10.2238C3.75217 10.2048 3.76464 10.1796 3.76464 10.1607C3.76464 10.1544 3.76464 10.1418 3.76464 10.1355C3.78334 10.0661 3.79581 9.99674 3.81451 9.92738C3.81451 9.91477 3.81451 9.90215 3.82698 9.88954C3.84568 9.80126 3.87062 9.71928 3.89555 9.631C3.89555 9.631 3.89555 9.631 3.89555 9.62469C3.89555 9.61208 3.90179 9.59316 3.90802 9.58055C3.92672 9.51119 3.94542 9.44813 3.96413 9.37876C3.96413 9.37246 3.96413 9.36615 3.97036 9.35354C3.97036 9.35354 3.97036 9.34093 3.97036 9.33462C3.97659 9.3094 3.98283 9.29048 3.98906 9.27156C4.00153 9.23373 4.014 9.19589 4.02647 9.15805C4.03894 9.11391 4.0514 9.06977 4.07011 9.02563C4.08257 8.98149 4.10128 8.93735 4.11374 8.8932C4.13245 8.84276 4.14491 8.79231 4.16362 8.74186C4.16985 8.72294 4.17608 8.69772 4.18855 8.6788C4.20102 8.64097 4.21349 8.60313 4.22596 8.5716C4.22596 8.55899 4.23219 8.55268 4.23843 8.54007C4.25713 8.49593 4.2696 8.45179 4.2883 8.40134C4.30077 8.36981 4.307 8.34459 4.31947 8.31936C4.31947 8.31936 4.31947 8.30675 4.3257 8.30045C4.34441 8.25 4.36311 8.19955 4.38181 8.15541C4.39428 8.12388 4.40675 8.09866 4.41298 8.06713C4.42545 8.0356 4.43792 8.01037 4.45038 7.97884C4.46909 7.9347 4.48779 7.88425 4.50649 7.84011C4.50649 7.83381 4.51273 7.8212 4.51896 7.81489C4.53143 7.78336 4.5439 7.75814 4.55636 7.72661C4.57507 7.68877 4.58753 7.65093 4.60624 7.6131C4.61247 7.60049 4.6187 7.58788 4.62494 7.56896C4.62494 7.56896 4.62494 7.56265 4.62494 7.55635C4.63741 7.53743 4.64364 7.5122 4.65611 7.49329L4.70598 7.38609C4.70598 7.38609 4.72468 7.34825 4.73092 7.32933C4.73715 7.31041 4.74962 7.2978 4.75585 7.27888C4.77456 7.23474 4.79949 7.19691 4.8182 7.15277C4.83066 7.13385 4.8369 7.10862 4.84937 7.08971C4.8556 7.07709 4.86183 7.06448 4.86807 7.05187C4.88677 7.01404 4.90547 6.98251 4.92417 6.94467C4.92417 6.94467 4.92417 6.93836 4.93041 6.93206C4.94288 6.90683 4.95535 6.88161 4.96781 6.85639C4.96781 6.85008 4.97405 6.83747 4.98028 6.83116C4.99275 6.80594 5.01145 6.78071 5.02392 6.74919C5.02392 6.73657 5.03639 6.73027 5.04262 6.71766C5.06132 6.68613 5.08003 6.64829 5.09873 6.61676C5.11743 6.58523 5.13613 6.5537 5.15484 6.51587C5.17354 6.47803 5.19847 6.44019 5.21718 6.40236C5.21718 6.39605 5.22341 6.38975 5.22964 6.38344C5.24835 6.35191 5.26705 6.32038 5.28575 6.28255C5.30445 6.25102 5.31692 6.22579 5.33562 6.19426C5.34186 6.18165 5.35433 6.16904 5.36056 6.15643C5.37926 6.1312 5.39173 6.09967 5.41043 6.07445C5.42914 6.04923 5.44784 6.0177 5.46031 5.99247C5.47277 5.97356 5.48524 5.95464 5.49148 5.93572C5.50394 5.9105 5.52265 5.88527 5.53511 5.86635C5.54758 5.84113 5.56628 5.82221 5.57875 5.80329C5.59746 5.77807 5.61616 5.74654 5.62863 5.72132C5.64109 5.7024 5.65356 5.68348 5.66603 5.66456C5.6785 5.64565 5.69097 5.62673 5.70343 5.60781C5.72837 5.57628 5.74707 5.53845 5.77201 5.50692C5.77824 5.4943 5.79071 5.48169 5.79695 5.46908C5.80318 5.45647 5.81565 5.44386 5.82188 5.43124C5.83435 5.41863 5.84058 5.39971 5.85305 5.3871C5.87799 5.35557 5.89669 5.32404 5.92163 5.29251C5.9715 5.22945 6.01514 5.16009 6.06501 5.09703C6.06501 5.09703 6.07125 5.08442 6.07748 5.08442C6.10865 5.04658 6.13982 5.00875 6.16476 4.9646C6.17723 4.95199 6.18969 4.93307 6.20216 4.91416C6.21463 4.90155 6.22086 4.88893 6.23333 4.87632C6.25827 4.84479 6.28944 4.80696 6.31437 4.77543C6.32684 4.76281 6.33931 4.7439 6.35178 4.73129C6.36425 4.71237 6.38295 4.69345 6.39542 4.67453C6.41412 4.64931 6.43282 4.63039 6.45152 4.60517C6.47023 4.58625 6.4827 4.56733 6.5014 4.54211C6.5201 4.52319 6.5388 4.49797 6.5575 4.47905C6.56997 4.46013 6.58867 4.44121 6.60738 4.42229C6.61984 4.40338 6.63855 4.38446 6.65102 4.37185C6.67595 4.34032 6.70089 4.31509 6.72582 4.28987C6.73829 4.27726 6.75076 4.26465 6.75699 4.25203C6.76946 4.23942 6.78193 4.22681 6.7944 4.2142C6.82557 4.17636 6.86297 4.13853 6.89414 4.107C6.89414 4.10069 6.90661 4.09439 6.91285 4.08808C6.96272 4.03133 7.01883 3.97457 7.0687 3.92412C7.12481 3.86107 7.18715 3.80431 7.24325 3.74756C7.28066 3.70972 7.31806 3.67189 7.3617 3.63405C7.3617 3.63405 7.3617 3.63405 7.36793 3.62775C7.38664 3.60883 7.3991 3.59622 7.41781 3.5773C7.44898 3.55207 7.47391 3.52054 7.50508 3.49532C7.51755 3.48902 7.52379 3.4764 7.53002 3.4701C7.55496 3.45118 7.57366 3.42596 7.5986 3.40704C7.62353 3.38812 7.64223 3.3692 7.66717 3.35028C7.67964 3.34398 7.68587 3.33137 7.69834 3.32506C7.72951 3.29984 7.76068 3.27461 7.78562 3.24308C7.80432 3.23047 7.81679 3.21786 7.83549 3.20525C7.84172 3.20525 7.84796 3.19264 7.86043 3.18633C7.89783 3.1548 7.94147 3.11696 7.97887 3.08543C8.04121 3.03499 8.10979 2.97823 8.17213 2.92779C8.23447 2.87734 8.30305 2.82689 8.37162 2.77644C8.42149 2.73861 8.47137 2.70077 8.52124 2.66924C8.53994 2.65663 8.55241 2.64402 8.57111 2.63141C8.60852 2.60618 8.64592 2.58096 8.68333 2.55574C8.68956 2.55574 8.69579 2.54312 8.70203 2.54312C8.72696 2.52421 8.7519 2.51159 8.77684 2.49268C8.80177 2.47376 8.83294 2.45484 8.85788 2.43592C8.87035 2.42962 8.87658 2.42331 8.88905 2.41701C8.92022 2.39809 8.95139 2.37286 8.98256 2.35395C9.00126 2.34133 9.0262 2.32872 9.0449 2.3098C9.0449 2.3098 9.0449 2.3098 9.05114 2.3098C9.09478 2.28458 9.13841 2.25305 9.18205 2.22783C9.25063 2.18369 9.32544 2.13954 9.39401 2.10171C9.46259 2.05757 9.53739 2.01973 9.60597 1.9819C9.62467 1.97559 9.63714 1.96298 9.65584 1.95667C9.68701 1.94406 9.71195 1.92514 9.74312 1.91253C9.76182 1.90622 9.77429 1.89361 9.79299 1.88731C9.8491 1.86208 9.89897 1.83055 9.95508 1.80533C9.96131 1.80533 9.96755 1.79902 9.97378 1.79272C9.99872 1.78011 10.0237 1.76749 10.0424 1.75488C10.0798 1.73596 10.1109 1.72335 10.1483 1.70443C10.2044 1.67921 10.2543 1.65399 10.3104 1.62876C10.3291 1.62246 10.3478 1.60985 10.3665 1.60354C10.3915 1.59093 10.4102 1.58462 10.4351 1.57201C10.4476 1.57201 10.46 1.5594 10.4725 1.55309C10.4725 1.55309 10.5099 1.54048 10.5224 1.53417C10.5785 1.50895 10.6346 1.48373 10.6969 1.4585C10.7717 1.42697 10.8466 1.39544 10.9276 1.37022C11.0024 1.33869 11.0834 1.31347 11.1583 1.28824C11.1894 1.27563 11.2206 1.26932 11.258 1.25671C11.4014 1.20627 11.5448 1.16212 11.6882 1.11798C11.8253 1.08015 11.9625 1.04231 12.1058 1.00448C12.2679 0.966639 12.4238 0.928804 12.5921 0.897274C13.4399 0.563059 14.0384 0.5 14.6431 0.5H11.0585Z" fill="white"/>
</g>
</mask>
<g mask="url(#mask0_1159_16196)">
<g id="Group">
<path id="Vector_3" d="M22.1302 0.5H0.0117188V26.2282H22.1302V0.5Z" fill="#00A997"/>
</g>
</g>
</g>
<path id="Vector_4" d="M14.6492 26.2282C20.7586 26.2282 25.7084 20.4709 25.7084 13.3641C25.7084 6.25732 20.7586 0.5 14.6492 0.5C14.0382 0.5 13.4398 0.556753 12.8538 0.67026C12.6917 0.70179 12.5296 0.73332 12.3675 0.777461C12.2241 0.808991 12.087 0.846827 11.9498 0.890968C11.8064 0.93511 11.6631 0.979251 11.5197 1.0297C11.4885 1.04231 11.4573 1.04862 11.4199 1.06123C11.3451 1.08645 11.2641 1.11798 11.1893 1.14321C11.1145 1.17474 11.0397 1.19996 10.9586 1.23149C10.8838 1.26302 10.809 1.29455 10.7342 1.32608C10.7342 1.32608 10.7092 1.33869 10.6968 1.345C10.5596 1.40806 10.4225 1.47111 10.2916 1.53417C10.1606 1.59723 10.036 1.6666 9.90505 1.73596C9.88635 1.74227 9.87388 1.75488 9.85518 1.76119C9.7866 1.79902 9.71179 1.84317 9.64322 1.881C9.57464 1.92514 9.49983 1.96298 9.43126 2.00712C9.36268 2.05126 9.29411 2.0954 9.22553 2.13954C9.18813 2.16477 9.15072 2.18999 9.11332 2.21522C9.08215 2.23413 9.05098 2.25936 9.01981 2.27827C8.95123 2.32242 8.88266 2.37286 8.82032 2.42331C8.75174 2.47376 8.6894 2.52421 8.62083 2.56835C8.55225 2.6188 8.48991 2.66924 8.42134 2.71969C8.359 2.77014 8.29042 2.82059 8.22808 2.87734C8.16574 2.93409 8.1034 2.98454 8.03482 3.04129C7.97248 3.09805 7.91014 3.14849 7.8478 3.20525C7.81663 3.23678 7.78546 3.26831 7.74806 3.29353C7.71689 3.31875 7.69195 3.35028 7.66078 3.37551C7.59844 3.43226 7.54233 3.48902 7.47999 3.55207C7.41765 3.60883 7.36154 3.67189 7.30544 3.72864C7.24933 3.7917 7.18699 3.84845 7.13088 3.91151C7.07478 3.97457 7.01867 4.03763 6.96256 4.10069C6.90646 4.16375 6.85035 4.22681 6.79424 4.28987C6.73813 4.35293 6.68203 4.42229 6.63216 4.48535C6.61345 4.51058 6.59475 4.5358 6.56981 4.56102C6.53864 4.60517 6.50124 4.643 6.47007 4.68714C6.4202 4.75651 6.36409 4.81957 6.31422 4.88893C6.26434 4.9583 6.21447 5.02766 6.1646 5.09703C6.13966 5.12856 6.12096 5.16009 6.09602 5.19162C6.07109 5.22945 6.03992 5.26729 6.01498 5.31143C5.98381 5.35557 5.95264 5.39971 5.9277 5.44386C5.909 5.46908 5.8903 5.50061 5.8716 5.52583C5.82172 5.5952 5.77809 5.67087 5.72821 5.74654C5.68457 5.82221 5.6347 5.89158 5.59106 5.96725C5.54743 6.04292 5.50379 6.11859 5.46015 6.19426C5.41651 6.26993 5.37287 6.34561 5.32923 6.42128C5.3043 6.46542 5.28559 6.50956 5.26066 6.5537C5.24196 6.58523 5.22325 6.62307 5.20455 6.6546C5.19208 6.67982 5.17961 6.70504 5.16715 6.73027C5.14221 6.78072 5.11104 6.83747 5.0861 6.89422C5.0487 6.9762 5.00506 7.05187 4.96766 7.13385C4.93025 7.20952 4.89908 7.28519 4.86168 7.36717C4.86168 7.36717 4.86168 7.37347 4.86168 7.37978C4.82427 7.46176 4.78687 7.54373 4.7557 7.62571C4.71829 7.70769 4.68712 7.78967 4.64972 7.87164C4.61855 7.95362 4.58114 8.0356 4.54997 8.12388C4.5188 8.20586 4.48763 8.29414 4.45646 8.37612C4.36918 8.62836 4.28191 8.88059 4.2071 9.14544C4.2071 9.14544 4.2071 9.15805 4.2071 9.16436C4.18216 9.25264 4.15722 9.34093 4.13229 9.42921C4.10735 9.51749 4.08242 9.60578 4.06371 9.70037C4.04501 9.77604 4.02631 9.85171 4.00761 9.93368C4.00761 9.9463 4.00137 9.95891 3.99514 9.97152C3.97644 10.0598 3.9515 10.1544 3.9328 10.2427C3.9141 10.3373 3.89539 10.4255 3.87669 10.5201C3.85799 10.6147 3.83929 10.703 3.82682 10.7976C3.81435 10.8607 3.80812 10.9237 3.79565 10.9868C3.79565 11.0183 3.78318 11.0498 3.78318 11.0751C3.77071 11.1696 3.75824 11.2642 3.74578 11.3525C3.73331 11.4471 3.72084 11.5417 3.70837 11.6363C3.6959 11.7246 3.68967 11.8129 3.68343 11.9011C3.68343 11.9074 3.68343 11.9201 3.68343 11.9264C3.6772 12.021 3.66473 12.1155 3.6585 12.2101C3.65226 12.3047 3.64603 12.4056 3.6398 12.5002C3.62733 12.6957 3.62109 12.8912 3.62109 13.0867C3.62109 13.1623 3.62109 13.2443 3.62109 13.32C3.62109 13.3956 3.62109 13.4713 3.62109 13.547C3.62109 13.6227 3.62109 13.692 3.62733 13.7677C3.6398 13.9821 3.65226 14.1902 3.6772 14.4046V14.4172C3.68343 14.4866 3.6959 14.5559 3.70214 14.6253C3.72084 14.764 3.73954 14.9091 3.76448 15.0478C3.86422 15.6027 4.00137 16.145 4.1884 16.6558C4.25697 16.845 4.33178 17.0342 4.41282 17.2234C4.46893 17.3495 4.52504 17.4693 4.58114 17.5891C4.61231 17.6458 4.63725 17.7089 4.66842 17.7657C4.69959 17.8224 4.73076 17.8855 4.76193 17.9422C4.7931 17.999 4.82427 18.0557 4.85544 18.1125C4.88661 18.1692 4.91778 18.226 4.95519 18.2827C4.98636 18.3395 5.02376 18.3963 5.06117 18.453C5.09857 18.5098 5.12974 18.5602 5.16715 18.617C5.20455 18.6737 5.24196 18.7242 5.27936 18.7809C5.35417 18.8881 5.42898 18.989 5.51002 19.0962C5.6534 19.2854 5.80926 19.4683 5.96511 19.6448C5.97758 19.6574 5.99005 19.6701 6.00251 19.689C6.00875 19.6953 6.02122 19.7079 6.02745 19.7142C6.05862 19.752 6.09602 19.7899 6.13343 19.8214C6.17707 19.8655 6.22071 19.9097 6.26434 19.9538C6.35162 20.0421 6.44513 20.1304 6.53864 20.2124C6.58228 20.2565 6.63216 20.2943 6.68203 20.3385C6.7319 20.3763 6.77554 20.4205 6.82541 20.4583C6.92516 20.534 7.01867 20.6096 7.11841 20.6853C7.21816 20.761 7.3179 20.8303 7.42388 20.8934C7.47376 20.9249 7.52986 20.9628 7.57974 20.9943C7.73559 21.0889 7.89767 21.1835 8.05976 21.2655C8.22185 21.3474 8.39017 21.4294 8.55849 21.4988C8.61459 21.524 8.6707 21.5429 8.72681 21.5681C8.72681 21.5681 8.75174 21.5744 8.76421 21.5808C8.85772 21.6186 8.95747 21.6501 9.05098 21.6816C9.05721 21.6816 9.06345 21.6816 9.07592 21.688C9.07592 21.688 9.10709 21.6943 9.11955 21.7006C9.16319 21.7132 9.20683 21.7258 9.25047 21.7447C9.26917 21.7447 9.28164 21.751 9.30034 21.7573C9.40009 21.7888 9.50607 21.8141 9.60581 21.8393C9.66815 21.8519 9.72426 21.8645 9.7866 21.8771C9.7866 21.8771 9.81777 21.8771 9.83647 21.8897C9.92999 21.9087 10.0297 21.9276 10.1232 21.9402C10.1295 21.9402 10.1419 21.9402 10.1482 21.9402C10.2105 21.9465 10.2729 21.9591 10.3352 21.9654C10.4599 21.978 10.5846 21.9906 10.7092 21.9969C10.7716 21.9969 10.8339 21.9969 10.8963 22.0033C10.9586 22.0033 11.021 22.0033 11.0833 22.0033C11.7005 22.0033 12.2989 21.915 12.8787 21.751C9.61828 20.8177 7.19322 17.3936 7.19322 13.3074C7.19322 9.22111 9.61205 5.79699 12.8787 4.86371C13.4522 4.69976 14.0507 4.61147 14.6741 4.61147C15.5656 4.61147 16.4134 4.79434 17.2052 5.12225C17.2613 5.14748 17.3174 5.1727 17.3735 5.19792C17.8223 5.39971 18.2463 5.65195 18.6452 5.94203C18.8447 6.08706 19.038 6.24471 19.225 6.41497C19.2749 6.45911 19.3185 6.49695 19.3622 6.54109C20.0978 7.22844 20.7149 8.07974 21.1825 9.03824C21.2386 9.15805 21.2947 9.27787 21.3508 9.40399C21.4568 9.64992 21.5566 9.90215 21.6438 10.167C21.6875 10.2994 21.7249 10.4255 21.7685 10.5643C21.8059 10.6967 21.8433 10.8291 21.8745 10.9679C21.9057 11.1066 21.9368 11.239 21.9618 11.3777C22.0054 11.5858 22.0366 11.7939 22.0615 12.0083C22.0802 12.1471 22.0927 12.2921 22.1051 12.4371C22.1051 12.5065 22.1176 12.5822 22.1239 12.6515C22.1239 12.7272 22.1301 12.7966 22.1363 12.8723C22.1426 12.9479 22.1363 13.0173 22.1426 13.093C22.1426 13.1686 22.1426 13.2443 22.1426 13.32C22.1426 13.3956 22.1426 13.4713 22.1426 13.547C22.1426 13.6416 22.1426 13.7299 22.1363 13.8244C22.1363 13.8623 22.1363 13.9001 22.1363 13.938C22.1363 13.9947 22.1363 14.0452 22.1301 14.1019C22.1301 14.1397 22.1301 14.1776 22.1239 14.2154C22.1239 14.2722 22.1176 14.3289 22.1114 14.3794C22.1114 14.4172 22.1114 14.455 22.1051 14.4866C22.1051 14.5433 22.0989 14.6001 22.0927 14.6568C22.0927 14.6947 22.0927 14.7262 22.0802 14.764C22.0802 14.8208 22.0677 14.8775 22.0615 14.928C22.0615 14.9658 22.0553 15.0037 22.049 15.0415C22.0428 15.0982 22.0366 15.155 22.0303 15.2054C22.0303 15.237 22.0241 15.2685 22.0179 15.3063C22.0116 15.3694 21.9992 15.4262 21.9929 15.4829C21.9929 15.5144 21.9867 15.546 21.9805 15.5775C21.968 15.6658 21.9555 15.7541 21.9368 15.8423C21.9368 15.855 21.9368 15.8613 21.9368 15.8739C21.9244 15.9495 21.9119 16.0252 21.8932 16.1009C21.8932 16.1324 21.8807 16.164 21.8745 16.2018C21.862 16.2585 21.8496 16.3153 21.8433 16.372C21.8371 16.4036 21.8308 16.4351 21.8246 16.4666C21.8121 16.5234 21.7997 16.5738 21.7872 16.6306C21.781 16.6684 21.7685 16.7063 21.7623 16.7441C21.7498 16.7882 21.7373 16.8387 21.7311 16.8828C21.7186 16.9207 21.7124 16.9648 21.6999 17.0026C21.6875 17.0468 21.675 17.0972 21.6625 17.1414C21.6501 17.1792 21.6438 17.217 21.6314 17.2549C21.6189 17.3053 21.6064 17.3558 21.5877 17.4062C21.5753 17.4378 21.569 17.4756 21.5566 17.5071C21.5441 17.5576 21.5254 17.6017 21.5129 17.6522C21.5004 17.69 21.488 17.7278 21.4817 17.7657C21.4568 17.8413 21.4319 17.9233 21.4069 17.999C21.3945 18.0368 21.382 18.0747 21.3695 18.1125C21.3571 18.1566 21.3384 18.2008 21.3259 18.2449C21.3134 18.2827 21.2947 18.3269 21.2822 18.3647C21.2698 18.4089 21.2511 18.4467 21.2386 18.4908C21.2261 18.5287 21.2074 18.5665 21.195 18.598C21.1763 18.6422 21.1576 18.6863 21.1451 18.7305C21.1326 18.7683 21.1139 18.8061 21.1015 18.844C21.0828 18.8818 21.0703 18.926 21.0516 18.9638C21.0329 19.0016 21.0204 19.0458 21.0017 19.0836C20.983 19.1214 20.9643 19.1656 20.9518 19.2034C20.9331 19.2413 20.9207 19.2791 20.902 19.3169C20.8833 19.3548 20.8646 19.3926 20.8521 19.4304C20.8334 19.4683 20.8147 19.5061 20.796 19.5502C20.7773 19.5881 20.7586 19.6259 20.7399 19.6637C20.7212 19.7016 20.7025 19.7394 20.6838 19.7709C20.6713 19.7962 20.6588 19.8151 20.6526 19.8403C20.6277 19.8908 20.6027 19.9412 20.5778 19.9917C20.5591 20.0295 20.5342 20.0736 20.5155 20.1115C20.4968 20.143 20.4843 20.1745 20.4656 20.2061C20.4407 20.2502 20.4157 20.2943 20.397 20.3322C20.3783 20.3637 20.3658 20.3952 20.3471 20.4205C20.3222 20.4646 20.2973 20.5087 20.2723 20.5529C20.2599 20.5781 20.2412 20.6033 20.2287 20.6286C20.2038 20.6727 20.1788 20.7105 20.1539 20.7547C20.1352 20.7862 20.1165 20.8177 20.0978 20.8493C20.0728 20.8871 20.0479 20.9249 20.023 20.9691C20.0043 20.9943 19.9918 21.0195 19.9731 21.0448C19.9419 21.0889 19.917 21.133 19.8858 21.1772C19.8733 21.1961 19.8609 21.215 19.8422 21.2402C19.811 21.2907 19.7798 21.3348 19.7487 21.379C19.7487 21.379 19.7487 21.379 19.7487 21.3853C19.6614 21.5051 19.5741 21.6312 19.4868 21.7447C19.4557 21.7888 19.4183 21.833 19.3871 21.8771C19.3746 21.8961 19.3559 21.915 19.3435 21.9339C19.306 21.978 19.2749 22.0222 19.2375 22.0663C19.225 22.0852 19.2125 22.0978 19.2001 22.1168C19.1627 22.1609 19.1253 22.205 19.0879 22.2492C19.0754 22.2618 19.0629 22.2807 19.0504 22.2933C19.013 22.3375 18.9756 22.3816 18.9382 22.4258C18.9258 22.4447 18.9071 22.4573 18.8946 22.4762C18.8572 22.5203 18.8198 22.5582 18.7824 22.6023C18.7699 22.6149 18.7512 22.6338 18.7387 22.6465C18.7013 22.6906 18.6577 22.7347 18.6141 22.7789C18.4083 22.9933 18.2026 23.2014 17.9844 23.4032C17.9844 23.4032 17.9844 23.4032 17.9782 23.4032C17.9283 23.4473 17.8847 23.4915 17.8348 23.5356C17.8223 23.5419 17.8161 23.5545 17.8036 23.5608C17.76 23.5987 17.7164 23.6365 17.6727 23.6743C17.6602 23.6869 17.6415 23.6996 17.6291 23.7122C17.5854 23.75 17.5356 23.7878 17.4919 23.8257L17.4608 23.8509C17.4109 23.8887 17.361 23.9329 17.3111 23.9707C17.3111 23.9707 17.2987 23.977 17.2987 23.9833C17.2426 24.0275 17.1927 24.0653 17.1366 24.1094C16.9059 24.2797 16.669 24.4437 16.4259 24.6013C16.4197 24.6013 16.4134 24.6076 16.4072 24.6139C16.3573 24.6454 16.3012 24.677 16.2513 24.7085C16.2389 24.7148 16.2264 24.7274 16.2139 24.7337C16.1641 24.7653 16.108 24.7968 16.0581 24.8283C16.0456 24.8346 16.0332 24.8409 16.0269 24.8472C15.9708 24.8788 15.9147 24.9103 15.8586 24.9418C15.8586 24.9418 15.8461 24.9418 15.8399 24.9481C15.7776 24.9797 15.7214 25.0112 15.6591 25.0427H15.6466C15.5843 25.0805 15.522 25.1121 15.4596 25.1436C15.204 25.2697 14.9422 25.3832 14.6741 25.4904C14.6741 25.4904 14.6679 25.4904 14.6617 25.4904C14.1068 25.7048 13.5271 25.8751 12.9348 25.9886C12.3488 26.1021 11.7503 26.1589 11.1394 26.1589H14.724L14.6492 26.2282Z" fill="#00390D"/>
<g id="Clip path group_2">
<mask id="mask1_1159_16196" style="mask-type:luminance" maskUnits="userSpaceOnUse" x="3" y="0" width="23" height="27">
<g id="clippath-1">
<path id="Vector_5" d="M12.8538 0.67026C12.6917 0.70179 12.5296 0.73332 12.3675 0.777461C12.2241 0.808991 12.087 0.846827 11.9498 0.890968C11.8064 0.93511 11.6631 0.979251 11.5197 1.02339C11.4885 1.036 11.4573 1.04231 11.4199 1.05492C11.3451 1.08015 11.2641 1.11168 11.1893 1.1369C11.1145 1.16843 11.0397 1.19365 10.9586 1.22518C10.8838 1.25671 10.809 1.28824 10.7342 1.31977C10.7342 1.31977 10.7092 1.33238 10.6968 1.33869C10.5596 1.40175 10.4225 1.46481 10.2916 1.52787C10.1606 1.59093 10.036 1.66029 9.90505 1.72966C9.88635 1.73596 9.87388 1.74858 9.85518 1.75488C9.78037 1.79272 9.71179 1.83686 9.64322 1.87469C9.57464 1.91884 9.49983 1.95667 9.43126 2.00081C9.36268 2.04496 9.29411 2.0891 9.22553 2.13324C9.18813 2.15846 9.15072 2.18369 9.11332 2.20891C9.08215 2.22783 9.05098 2.25305 9.01981 2.27197C8.95123 2.31611 8.88266 2.36656 8.82032 2.41701C8.75174 2.46745 8.6894 2.51159 8.62083 2.56204C8.55225 2.61249 8.48991 2.66294 8.42134 2.71338C8.359 2.76383 8.29042 2.81428 8.22808 2.87103C8.16574 2.92148 8.1034 2.97823 8.04106 3.03499C7.97872 3.09174 7.91638 3.14219 7.85404 3.19894C7.82287 3.23047 7.79169 3.262 7.75429 3.28722C7.72312 3.31245 7.69818 3.34398 7.66701 3.3692C7.60467 3.42596 7.54857 3.48271 7.48623 3.54577C7.42388 3.60252 7.36778 3.66558 7.31167 3.72233C7.25556 3.78539 7.19322 3.84215 7.13712 3.90521C7.08101 3.96827 7.0249 4.03133 6.9688 4.09438C6.91269 4.15744 6.85658 4.2205 6.80048 4.28356C6.74437 4.34662 6.68826 4.41599 6.63839 4.47905C6.61969 4.50427 6.60099 4.52949 6.57605 4.55472C6.54488 4.59886 6.50747 4.6367 6.4763 4.68084C6.42643 4.7502 6.37032 4.81326 6.32045 4.88263C6.27058 4.95199 6.22071 5.02136 6.17083 5.09072C6.17083 5.09072 6.12719 5.15378 6.10226 5.18531C6.07732 5.22315 6.04615 5.26098 6.02122 5.30512C5.99005 5.34927 5.95887 5.39341 5.93394 5.43755C5.91524 5.46277 5.89653 5.4943 5.87783 5.51953C5.82796 5.58889 5.78432 5.66456 5.73445 5.74023C5.69081 5.81591 5.64094 5.88527 5.5973 5.96094C5.55366 6.03661 5.51002 6.11229 5.46638 6.18796C5.42274 6.26363 5.37911 6.3393 5.33547 6.41497C5.31053 6.45911 5.29183 6.50325 5.26689 6.54739C5.24819 6.57892 5.22949 6.61676 5.21078 6.64829C5.19832 6.67351 5.18585 6.69874 5.17338 6.72396C5.14844 6.77441 5.11727 6.83116 5.09234 6.88792C5.05493 6.96989 5.01129 7.04556 4.97389 7.12754C4.93649 7.20321 4.90531 7.27888 4.86791 7.35456C4.86791 7.35456 4.86791 7.36086 4.86168 7.36717C4.82427 7.44914 4.78687 7.53112 4.7557 7.6131C4.71829 7.69508 4.68712 7.77705 4.64972 7.85903C4.61855 7.94101 4.58114 8.02298 4.54997 8.11127C4.5188 8.19324 4.48763 8.28153 4.45646 8.36351C4.36295 8.61574 4.28191 8.86798 4.2071 9.13283C4.2071 9.13283 4.2071 9.14544 4.2071 9.15175C4.18216 9.24003 4.15722 9.32831 4.13229 9.4166C4.10735 9.50488 4.08242 9.59316 4.06371 9.68775C4.04501 9.76342 4.02631 9.83909 4.00761 9.92107C4.00761 9.93368 4.00137 9.9463 3.99514 9.95891C3.97644 10.0472 3.9515 10.1418 3.9328 10.2301C3.9141 10.3247 3.89539 10.4129 3.87669 10.5075C3.85799 10.6021 3.83929 10.6904 3.82682 10.785C3.81435 10.848 3.80812 10.9111 3.79565 10.9742C3.79565 11.0057 3.78318 11.0372 3.78318 11.0624C3.77071 11.157 3.75824 11.2516 3.74578 11.3399C3.73331 11.4345 3.72084 11.5291 3.70837 11.6237C3.6959 11.712 3.68967 11.8002 3.68343 11.8822C3.68343 11.8885 3.68343 11.9011 3.68343 11.9074C3.6772 12.002 3.66473 12.0966 3.6585 12.1912C3.65226 12.2858 3.64603 12.3867 3.6398 12.4813C3.62733 12.6768 3.62109 12.8723 3.62109 13.0677C3.62109 13.1434 3.62109 13.2254 3.62109 13.3011C3.62109 13.3767 3.62109 13.4524 3.62109 13.5281C3.62109 13.6037 3.62109 13.6731 3.62733 13.7488C3.63356 13.9632 3.65226 14.1713 3.6772 14.3857V14.3983C3.68343 14.4677 3.6959 14.537 3.70214 14.6064C3.72084 14.7451 3.73954 14.8902 3.76448 15.0289C3.86422 15.5838 4.00137 16.1261 4.1884 16.6369C4.25697 16.8324 4.33178 17.0216 4.41282 17.2044C4.46893 17.3305 4.52504 17.4504 4.58114 17.5702C4.61231 17.6269 4.63725 17.69 4.66842 17.7467C4.69959 17.8035 4.73076 17.8666 4.76193 17.9233C4.7931 17.9801 4.82427 18.0368 4.85544 18.0936C4.88661 18.1503 4.91778 18.2071 4.95519 18.2638C4.98636 18.3206 5.02376 18.3773 5.05493 18.4278C5.09234 18.4845 5.12351 18.535 5.16091 18.5917C5.19832 18.6485 5.23572 18.6989 5.27313 18.7557C5.34793 18.8629 5.42274 18.9638 5.50379 19.071C5.64717 19.2602 5.80302 19.443 5.95887 19.6133C5.97134 19.6259 5.98381 19.6385 5.99628 19.6574C6.00251 19.6701 6.01498 19.6764 6.02122 19.6827C6.05239 19.7205 6.08979 19.7583 6.12719 19.7899C6.17083 19.834 6.21447 19.8781 6.25811 19.9223C6.34539 20.0106 6.4389 20.0989 6.53241 20.1808C6.58228 20.225 6.62592 20.2628 6.67579 20.307C6.72567 20.3448 6.76931 20.3889 6.81918 20.4268C6.91892 20.5024 7.01243 20.5781 7.11218 20.6538C7.21193 20.7295 7.31167 20.7988 7.41765 20.8619C7.46752 20.8934 7.52363 20.9312 7.5735 20.9628C7.72935 21.0574 7.89144 21.1519 8.05353 21.2339C8.21561 21.3159 8.38393 21.3979 8.55225 21.4672C8.60836 21.4925 8.66447 21.5114 8.72057 21.5366C8.72057 21.5366 8.74551 21.5429 8.75798 21.5492C8.85149 21.5871 8.95123 21.6186 9.04475 21.6501C9.05098 21.6501 9.05721 21.6501 9.06968 21.6564C9.06968 21.6564 9.09462 21.6627 9.11332 21.669C9.15696 21.6816 9.2006 21.7006 9.24424 21.7132C9.26294 21.7132 9.27541 21.7195 9.29411 21.7258C9.39385 21.7573 9.49983 21.7825 9.59958 21.8078C9.66192 21.8204 9.71803 21.833 9.78037 21.8456C9.79907 21.8456 9.81154 21.8519 9.83024 21.8582C9.92375 21.8771 10.0235 21.896 10.117 21.9087C10.1232 21.9087 10.1357 21.9087 10.1419 21.9087C10.2043 21.915 10.2666 21.9276 10.329 21.9339C10.4536 21.9465 10.5783 21.9591 10.703 21.9654C10.7654 21.9654 10.8277 21.9717 10.89 21.9717C10.9524 21.9717 11.0147 21.9717 11.0771 21.9717C11.6942 21.9717 12.2927 21.8834 12.8725 21.7195C9.60581 20.7862 7.18699 17.3621 7.18699 13.2758C7.18699 9.18958 9.60581 5.76546 12.8725 4.83218C13.446 4.66823 14.0445 4.57994 14.6617 4.57994C15.5531 4.57994 16.4072 4.76281 17.1927 5.09072C17.2488 5.11595 17.3049 5.14117 17.361 5.16639C17.8099 5.36818 18.2338 5.62042 18.6328 5.9105C18.8323 6.05553 19.0255 6.21318 19.2125 6.38344C19.2624 6.42758 19.306 6.46542 19.3497 6.50956C20.0853 7.19691 20.7025 8.04821 21.17 9.00671C21.2261 9.12652 21.2822 9.24634 21.3384 9.37245C21.4443 9.61839 21.5441 9.87062 21.6314 10.1355C21.675 10.2679 21.7124 10.394 21.756 10.5264C21.7934 10.6589 21.8308 10.7913 21.862 10.93C21.8932 11.0624 21.9244 11.2012 21.9493 11.3399C21.9929 11.548 22.0241 11.7561 22.049 11.9705C22.0677 12.1092 22.0802 12.2543 22.0927 12.3993C22.0927 12.4687 22.1052 12.5443 22.1114 12.6137C22.1114 12.6894 22.1176 12.7587 22.1239 12.8344C22.1239 12.9101 22.1239 12.9795 22.1301 13.0551C22.1301 13.1308 22.1301 13.2065 22.1301 13.2821C22.1301 13.3578 22.1301 13.4335 22.1301 13.5092C22.1301 13.6037 22.1301 13.692 22.1239 13.7866C22.1239 13.8244 22.1239 13.8623 22.1239 13.9001C22.1239 13.9569 22.1239 14.0073 22.1176 14.0641C22.1176 14.1019 22.1176 14.1397 22.1114 14.1776C22.1114 14.2343 22.1052 14.2911 22.0989 14.3415C22.0989 14.3794 22.0989 14.4172 22.0927 14.4487C22.0927 14.5055 22.0864 14.5622 22.0802 14.619C22.0802 14.6568 22.074 14.6884 22.0677 14.7262C22.0677 14.783 22.0553 14.8397 22.049 14.8902C22.049 14.928 22.0428 14.9658 22.0366 15.0037C22.0303 15.0604 22.0241 15.1172 22.0179 15.1676C22.0179 15.1991 22.0116 15.2307 22.0054 15.2685C21.9992 15.3316 21.9867 15.3883 21.9805 15.4451C21.9805 15.4766 21.9742 15.5081 21.968 15.5397C21.9555 15.6279 21.9431 15.7162 21.9244 15.8045C21.9244 15.8171 21.9244 15.8234 21.9244 15.836C21.9119 15.9117 21.8994 15.9874 21.8807 16.0631C21.8807 16.0946 21.8683 16.1261 21.862 16.164C21.8496 16.2207 21.8371 16.2775 21.8308 16.3342C21.8246 16.3657 21.8184 16.3973 21.8121 16.4288C21.7997 16.4856 21.7872 16.536 21.7747 16.5928C21.7685 16.6306 21.756 16.6684 21.7498 16.7063C21.7373 16.7504 21.7249 16.8008 21.7186 16.845C21.7062 16.8828 21.6999 16.927 21.6875 16.9648C21.675 17.0089 21.6625 17.0594 21.6501 17.1035C21.6376 17.1414 21.6314 17.1792 21.6189 17.217C21.6064 17.2675 21.5877 17.3179 21.5753 17.3684C21.5628 17.3999 21.5566 17.4377 21.5441 17.4693C21.5316 17.5197 21.5129 17.5639 21.5004 17.6143C21.488 17.6522 21.4755 17.69 21.4693 17.7215C21.4443 17.7972 21.4194 17.8792 21.3945 17.9548C21.382 17.9927 21.3695 18.0305 21.3571 18.0683C21.3446 18.1125 21.3259 18.1566 21.3134 18.2008C21.301 18.2386 21.2822 18.2827 21.2698 18.3206C21.2573 18.3647 21.2386 18.4026 21.2261 18.4467C21.2137 18.4845 21.195 18.5224 21.1825 18.5539C21.1638 18.598 21.1451 18.6422 21.1326 18.6863C21.1202 18.7242 21.1015 18.762 21.089 18.7998C21.0703 18.8377 21.0578 18.8818 21.0391 18.9196C21.0204 18.9575 21.0079 19.0016 20.9892 19.0395C20.9705 19.0773 20.9518 19.1214 20.9394 19.1593C20.9207 19.1971 20.9082 19.2349 20.8895 19.2728C20.8708 19.3106 20.8521 19.3484 20.8396 19.3863C20.8209 19.4241 20.8022 19.462 20.7835 19.5061C20.7648 19.5439 20.7461 19.5818 20.7274 19.6196C20.7087 19.6574 20.69 19.6953 20.6713 19.7268C20.6588 19.752 20.6464 19.7709 20.6401 19.7899C20.6152 19.8403 20.5903 19.8908 20.5653 19.9412C20.5466 19.979 20.5217 20.0232 20.503 20.061C20.4843 20.0926 20.4718 20.1241 20.4531 20.1556C20.4282 20.1998 20.4032 20.2439 20.3845 20.2817C20.3658 20.3133 20.3534 20.3448 20.3347 20.37C20.3097 20.4142 20.2848 20.4583 20.2599 20.5024C20.2474 20.5277 20.2287 20.5529 20.2162 20.5781C20.1913 20.6222 20.1663 20.6601 20.1414 20.7042C20.1227 20.7358 20.104 20.7673 20.0853 20.7988C20.0604 20.8367 20.0354 20.8745 20.0105 20.9186C19.9918 20.9439 19.9793 20.9691 19.9606 20.9943C19.9295 21.0384 19.9045 21.0826 19.8733 21.1267C19.8609 21.1456 19.8484 21.1646 19.8297 21.1898C19.7985 21.2402 19.7674 21.2844 19.7362 21.3285C19.7362 21.3285 19.7362 21.3285 19.7362 21.3348C19.6489 21.4546 19.5616 21.5808 19.4744 21.6943C19.4432 21.7384 19.4058 21.7825 19.3746 21.8267C19.3622 21.8456 19.3435 21.8645 19.331 21.8834C19.2936 21.9276 19.2624 21.9717 19.225 22.0159C19.2125 22.0348 19.2001 22.0474 19.1876 22.0663C19.1502 22.1105 19.1128 22.1546 19.0754 22.1987C19.0629 22.2113 19.0504 22.2303 19.038 22.2429C19.0006 22.287 18.9632 22.3312 18.9258 22.3753C18.9133 22.3942 18.8946 22.4068 18.8821 22.4257C18.8447 22.4699 18.8073 22.5077 18.7699 22.5519C18.7574 22.5645 18.7387 22.5834 18.7263 22.596C18.6889 22.6402 18.6452 22.6843 18.6016 22.7284C18.3959 22.9428 18.1901 23.1509 17.972 23.3527C17.972 23.3527 17.972 23.3527 17.9657 23.3527C17.9158 23.3969 17.8722 23.441 17.8223 23.4851C17.8099 23.4978 17.8036 23.5041 17.7912 23.5104C17.7475 23.5482 17.7039 23.586 17.6602 23.6239C17.6478 23.6365 17.6291 23.6491 17.6166 23.6617C17.573 23.6995 17.5231 23.7374 17.4795 23.7752C17.467 23.7815 17.4608 23.7941 17.4483 23.8004C17.3984 23.8383 17.3485 23.8824 17.2987 23.9203C17.2987 23.9203 17.2862 23.9266 17.2862 23.9329C17.2301 23.977 17.1802 24.0148 17.1241 24.059C16.8935 24.2292 16.6566 24.3932 16.4134 24.5508C16.4072 24.5508 16.401 24.5572 16.3947 24.5635C16.3449 24.595 16.2887 24.6265 16.2389 24.6581C16.2264 24.6644 16.2139 24.677 16.2015 24.6833C16.1516 24.7148 16.0955 24.7463 16.0456 24.7779C16.0332 24.7779 16.0207 24.7905 16.0145 24.7968C15.9583 24.8283 15.9022 24.8598 15.8461 24.8914C15.8461 24.8914 15.8337 24.8914 15.8274 24.8977C15.7651 24.9292 15.709 24.9607 15.6466 24.9923C15.6466 24.9923 15.6404 24.9923 15.6342 24.9923C15.5718 25.0238 15.5095 25.0553 15.4471 25.0869C15.1916 25.213 14.9297 25.3265 14.6617 25.4337C14.6617 25.4337 14.6554 25.4337 14.6492 25.4337C14.0944 25.6481 13.5146 25.8183 12.9223 25.9319C12.3363 26.0454 11.7379 26.1021 11.1269 26.1021H14.7115C20.8209 26.1021 25.7708 20.3448 25.7708 13.238C25.7708 6.1312 20.7586 0.5 14.6492 0.5C14.0382 0.5 13.4398 0.556753 12.8538 0.67026Z" fill="white"/>
</g>
</mask>
<g mask="url(#mask1_1159_16196)">
<g id="Group_2">
<path id="Vector_6" d="M25.7068 0.5H3.58203V26.2282H25.7068V0.5Z" fill="#00390D"/>
</g>
</g>
</g>
<path id="Vector_7" d="M14.6492 26.2282C20.7586 26.2282 25.7084 20.4709 25.7084 13.3641C25.7084 6.25732 20.7586 0.5 14.6492 0.5C14.0382 0.5 13.4398 0.556753 12.8538 0.67026C12.6917 0.70179 12.5296 0.73332 12.3675 0.777461C12.2241 0.808991 12.087 0.846827 11.9498 0.890968C11.8064 0.93511 11.6631 0.979251 11.5197 1.0297C11.4885 1.04231 11.4573 1.04862 11.4199 1.06123C11.3451 1.08645 11.2641 1.11798 11.1893 1.14321C11.1145 1.17474 11.0397 1.19996 10.9586 1.23149C10.8838 1.26302 10.809 1.29455 10.7342 1.32608C10.7342 1.32608 10.7092 1.33869 10.6968 1.345C10.5596 1.40806 10.4225 1.47111 10.2916 1.53417C10.1606 1.59723 10.036 1.6666 9.90505 1.73596C9.88635 1.74227 9.87388 1.75488 9.85518 1.76119C9.7866 1.79902 9.71179 1.84317 9.64322 1.881C9.57464 1.92514 9.49983 1.96298 9.43126 2.00712C9.36268 2.05126 9.29411 2.0954 9.22553 2.13954C9.18813 2.16477 9.15072 2.18999 9.11332 2.21522C9.08215 2.23413 9.05098 2.25936 9.01981 2.27827C8.95123 2.32242 8.88266 2.37286 8.82032 2.42331C8.75174 2.47376 8.6894 2.52421 8.62083 2.56835C8.55225 2.6188 8.48991 2.66924 8.42134 2.71969C8.359 2.77014 8.29042 2.82059 8.22808 2.87734C8.16574 2.93409 8.1034 2.98454 8.03482 3.04129C7.97248 3.09805 7.91014 3.14849 7.8478 3.20525C7.81663 3.23678 7.78546 3.26831 7.74806 3.29353C7.71689 3.31875 7.69195 3.35028 7.66078 3.37551C7.59844 3.43226 7.54233 3.48902 7.47999 3.55207C7.41765 3.60883 7.36154 3.67189 7.30544 3.72864C7.24933 3.7917 7.18699 3.84845 7.13088 3.91151C7.07478 3.97457 7.01867 4.03763 6.96256 4.10069C6.90646 4.16375 6.85035 4.22681 6.79424 4.28987C6.73813 4.35293 6.68203 4.42229 6.63216 4.48535C6.61345 4.51058 6.59475 4.5358 6.56981 4.56102C6.53864 4.60517 6.50124 4.643 6.47007 4.68714C6.4202 4.75651 6.36409 4.81957 6.31422 4.88893C6.26434 4.9583 6.21447 5.02766 6.1646 5.09703C6.13966 5.12856 6.12096 5.16009 6.09602 5.19162C6.07109 5.22945 6.03992 5.26729 6.01498 5.31143C5.98381 5.35557 5.95264 5.39971 5.9277 5.44386C5.909 5.46908 5.8903 5.50061 5.8716 5.52583C5.82172 5.5952 5.77809 5.67087 5.72821 5.74654C5.68457 5.82221 5.6347 5.89158 5.59106 5.96725C5.54743 6.04292 5.50379 6.11859 5.46015 6.19426C5.41651 6.26993 5.37287 6.34561 5.32923 6.42128C5.3043 6.46542 5.28559 6.50956 5.26066 6.5537C5.24196 6.58523 5.22325 6.62307 5.20455 6.6546C5.19208 6.67982 5.17961 6.70504 5.16715 6.73027C5.14221 6.78072 5.11104 6.83747 5.0861 6.89422C5.0487 6.9762 5.00506 7.05187 4.96766 7.13385C4.93025 7.20952 4.89908 7.28519 4.86168 7.36717C4.86168 7.36717 4.86168 7.37347 4.86168 7.37978C4.82427 7.46176 4.78687 7.54373 4.7557 7.62571C4.71829 7.70769 4.68712 7.78967 4.64972 7.87164C4.61855 7.95362 4.58114 8.0356 4.54997 8.12388C4.5188 8.20586 4.48763 8.29414 4.45646 8.37612C4.36918 8.62836 4.28191 8.88059 4.2071 9.14544C4.2071 9.14544 4.2071 9.15805 4.2071 9.16436C4.18216 9.25264 4.15722 9.34093 4.13229 9.42921C4.10735 9.51749 4.08242 9.60578 4.06371 9.70037C4.04501 9.77604 4.02631 9.85171 4.00761 9.93368C4.00761 9.9463 4.00137 9.95891 3.99514 9.97152C3.97644 10.0598 3.9515 10.1544 3.9328 10.2427C3.9141 10.3373 3.89539 10.4255 3.87669 10.5201C3.85799 10.6147 3.83929 10.703 3.82682 10.7976C3.81435 10.8607 3.80812 10.9237 3.79565 10.9868C3.79565 11.0183 3.78318 11.0498 3.78318 11.0751C3.77071 11.1696 3.75824 11.2642 3.74578 11.3525C3.73331 11.4471 3.72084 11.5417 3.70837 11.6363C3.6959 11.7246 3.68967 11.8129 3.68343 11.9011C3.68343 11.9074 3.68343 11.9201 3.68343 11.9264C3.6772 12.021 3.66473 12.1155 3.6585 12.2101C3.65226 12.3047 3.64603 12.4056 3.6398 12.5002C3.62733 12.6957 3.62109 12.8912 3.62109 13.0867C3.62109 13.1623 3.62109 13.2443 3.62109 13.32C3.62109 13.3956 3.62109 13.4713 3.62109 13.547C3.62109 13.6227 3.62109 13.692 3.62733 13.7677C3.6398 13.9821 3.65226 14.1902 3.6772 14.4046V14.4172C3.68343 14.4866 3.6959 14.5559 3.70214 14.6253C3.72084 14.764 3.73954 14.9091 3.76448 15.0478C3.86422 15.6027 4.00137 16.145 4.1884 16.6558C4.25697 16.845 4.33178 17.0342 4.41282 17.2234C4.46893 17.3495 4.52504 17.4693 4.58114 17.5891C4.61231 17.6458 4.63725 17.7089 4.66842 17.7657C4.69959 17.8224 4.73076 17.8855 4.76193 17.9422C4.7931 17.999 4.82427 18.0557 4.85544 18.1125C4.88661 18.1692 4.91778 18.226 4.95519 18.2827C4.98636 18.3395 5.02376 18.3963 5.06117 18.453C5.09857 18.5098 5.12974 18.5602 5.16715 18.617C5.20455 18.6737 5.24196 18.7242 5.27936 18.7809C5.35417 18.8881 5.42898 18.989 5.51002 19.0962C5.6534 19.2854 5.80926 19.4683 5.96511 19.6448C5.97758 19.6574 5.99005 19.6701 6.00251 19.689C6.00875 19.6953 6.02122 19.7079 6.02745 19.7142C6.05862 19.752 6.09602 19.7899 6.13343 19.8214C6.17707 19.8655 6.22071 19.9097 6.26434 19.9538C6.35162 20.0421 6.44513 20.1304 6.53864 20.2124C6.58228 20.2565 6.63216 20.2943 6.68203 20.3385C6.7319 20.3763 6.77554 20.4205 6.82541 20.4583C6.92516 20.534 7.01867 20.6096 7.11841 20.6853C7.21816 20.761 7.3179 20.8303 7.42388 20.8934C7.47376 20.9249 7.52986 20.9628 7.57974 20.9943C7.73559 21.0889 7.89767 21.1835 8.05976 21.2655C8.22185 21.3474 8.39017 21.4294 8.55849 21.4988C8.61459 21.524 8.6707 21.5429 8.72681 21.5681C8.72681 21.5681 8.75174 21.5744 8.76421 21.5808C8.85772 21.6186 8.95747 21.6501 9.05098 21.6816C9.05721 21.6816 9.06345 21.6816 9.07592 21.688C9.07592 21.688 9.10709 21.6943 9.11955 21.7006C9.16319 21.7132 9.20683 21.7258 9.25047 21.7447C9.26917 21.7447 9.28164 21.751 9.30034 21.7573C9.40009 21.7888 9.50607 21.8141 9.60581 21.8393C9.66815 21.8519 9.72426 21.8645 9.7866 21.8771C9.7866 21.8771 9.81777 21.8771 9.83647 21.8897C9.92999 21.9087 10.0297 21.9276 10.1232 21.9402C10.1295 21.9402 10.1419 21.9402 10.1482 21.9402C10.2105 21.9465 10.2729 21.9591 10.3352 21.9654C10.4599 21.978 10.5846 21.9906 10.7092 21.9969C10.7716 21.9969 10.8339 21.9969 10.8963 22.0033C10.9586 22.0033 11.021 22.0033 11.0833 22.0033C11.7005 22.0033 12.2989 21.915 12.8787 21.751C9.61828 20.8177 7.19322 17.3936 7.19322 13.3074C7.19322 9.22111 9.61205 5.79699 12.8787 4.86371C13.4522 4.69976 14.0507 4.61147 14.6741 4.61147C15.5656 4.61147 16.4134 4.79434 17.2052 5.12225C17.2613 5.14748 17.3174 5.1727 17.3735 5.19792C17.8223 5.39971 18.2463 5.65195 18.6452 5.94203C18.8447 6.08706 19.038 6.24471 19.225 6.41497C19.2749 6.45911 19.3185 6.49695 19.3622 6.54109C20.0978 7.22844 20.7149 8.07974 21.1825 9.03824C21.2386 9.15805 21.2947 9.27787 21.3508 9.40399C21.4568 9.64992 21.5566 9.90215 21.6438 10.167C21.6875 10.2994 21.7249 10.4255 21.7685 10.5643C21.8059 10.6967 21.8433 10.8291 21.8745 10.9679C21.9057 11.1066 21.9368 11.239 21.9618 11.3777C22.0054 11.5858 22.0366 11.7939 22.0615 12.0083C22.0802 12.1471 22.0927 12.2921 22.1051 12.4371C22.1051 12.5065 22.1176 12.5822 22.1239 12.6515C22.1239 12.7272 22.1301 12.7966 22.1363 12.8723C22.1426 12.9479 22.1363 13.0173 22.1426 13.093C22.1426 13.1686 22.1426 13.2443 22.1426 13.32C22.1426 13.3956 22.1426 13.4713 22.1426 13.547C22.1426 13.6416 22.1426 13.7299 22.1363 13.8244C22.1363 13.8623 22.1363 13.9001 22.1363 13.938C22.1363 13.9947 22.1363 14.0452 22.1301 14.1019C22.1301 14.1397 22.1301 14.1776 22.1239 14.2154C22.1239 14.2722 22.1176 14.3289 22.1114 14.3794C22.1114 14.4172 22.1114 14.455 22.1051 14.4866C22.1051 14.5433 22.0989 14.6001 22.0927 14.6568C22.0927 14.6947 22.0927 14.7262 22.0802 14.764C22.0802 14.8208 22.0677 14.8775 22.0615 14.928C22.0615 14.9658 22.0553 15.0037 22.049 15.0415C22.0428 15.0982 22.0366 15.155 22.0303 15.2054C22.0303 15.237 22.0241 15.2685 22.0179 15.3063C22.0116 15.3694 21.9992 15.4262 21.9929 15.4829C21.9929 15.5144 21.9867 15.546 21.9805 15.5775C21.968 15.6658 21.9555 15.7541 21.9368 15.8423C21.9368 15.855 21.9368 15.8613 21.9368 15.8739C21.9244 15.9495 21.9119 16.0252 21.8932 16.1009C21.8932 16.1324 21.8807 16.164 21.8745 16.2018C21.862 16.2585 21.8496 16.3153 21.8433 16.372C21.8371 16.4036 21.8308 16.4351 21.8246 16.4666C21.8121 16.5234 21.7997 16.5738 21.7872 16.6306C21.781 16.6684 21.7685 16.7063 21.7623 16.7441C21.7498 16.7882 21.7373 16.8387 21.7311 16.8828C21.7186 16.9207 21.7124 16.9648 21.6999 17.0026C21.6875 17.0468 21.675 17.0972 21.6625 17.1414C21.6501 17.1792 21.6438 17.217 21.6314 17.2549C21.6189 17.3053 21.6064 17.3558 21.5877 17.4062C21.5753 17.4378 21.569 17.4756 21.5566 17.5071C21.5441 17.5576 21.5254 17.6017 21.5129 17.6522C21.5004 17.69 21.488 17.7278 21.4817 17.7657C21.4568 17.8413 21.4319 17.9233 21.4069 17.999C21.3945 18.0368 21.382 18.0747 21.3695 18.1125C21.3571 18.1566 21.3384 18.2008 21.3259 18.2449C21.3134 18.2827 21.2947 18.3269 21.2822 18.3647C21.2698 18.4089 21.2511 18.4467 21.2386 18.4908C21.2261 18.5287 21.2074 18.5665 21.195 18.598C21.1763 18.6422 21.1576 18.6863 21.1451 18.7305C21.1326 18.7683 21.1139 18.8061 21.1015 18.844C21.0828 18.8818 21.0703 18.926 21.0516 18.9638C21.0329 19.0016 21.0204 19.0458 21.0017 19.0836C20.983 19.1214 20.9643 19.1656 20.9518 19.2034C20.9331 19.2413 20.9207 19.2791 20.902 19.3169C20.8833 19.3548 20.8646 19.3926 20.8521 19.4304C20.8334 19.4683 20.8147 19.5061 20.796 19.5502C20.7773 19.5881 20.7586 19.6259 20.7399 19.6637C20.7212 19.7016 20.7025 19.7394 20.6838 19.7709C20.6713 19.7962 20.6588 19.8151 20.6526 19.8403C20.6277 19.8908 20.6027 19.9412 20.5778 19.9917C20.5591 20.0295 20.5342 20.0736 20.5155 20.1115C20.4968 20.143 20.4843 20.1745 20.4656 20.2061C20.4407 20.2502 20.4157 20.2943 20.397 20.3322C20.3783 20.3637 20.3658 20.3952 20.3471 20.4205C20.3222 20.4646 20.2973 20.5087 20.2723 20.5529C20.2599 20.5781 20.2412 20.6033 20.2287 20.6286C20.2038 20.6727 20.1788 20.7105 20.1539 20.7547C20.1352 20.7862 20.1165 20.8177 20.0978 20.8493C20.0728 20.8871 20.0479 20.9249 20.023 20.9691C20.0043 20.9943 19.9918 21.0195 19.9731 21.0448C19.9419 21.0889 19.917 21.133 19.8858 21.1772C19.8733 21.1961 19.8609 21.215 19.8422 21.2402C19.811 21.2907 19.7798 21.3348 19.7487 21.379C19.7487 21.379 19.7487 21.379 19.7487 21.3853C19.6614 21.5051 19.5741 21.6312 19.4868 21.7447C19.4557 21.7888 19.4183 21.833 19.3871 21.8771C19.3746 21.8961 19.3559 21.915 19.3435 21.9339C19.306 21.978 19.2749 22.0222 19.2375 22.0663C19.225 22.0852 19.2125 22.0978 19.2001 22.1168C19.1627 22.1609 19.1253 22.205 19.0879 22.2492C19.0754 22.2618 19.0629 22.2807 19.0504 22.2933C19.013 22.3375 18.9756 22.3816 18.9382 22.4258C18.9258 22.4447 18.9071 22.4573 18.8946 22.4762C18.8572 22.5203 18.8198 22.5582 18.7824 22.6023C18.7699 22.6149 18.7512 22.6338 18.7387 22.6465C18.7013 22.6906 18.6577 22.7347 18.6141 22.7789C18.4083 22.9933 18.2026 23.2014 17.9844 23.4032C17.9844 23.4032 17.9844 23.4032 17.9782 23.4032C17.9283 23.4473 17.8847 23.4915 17.8348 23.5356C17.8223 23.5419 17.8161 23.5545 17.8036 23.5608C17.76 23.5987 17.7164 23.6365 17.6727 23.6743C17.6602 23.6869 17.6415 23.6996 17.6291 23.7122C17.5854 23.75 17.5356 23.7878 17.4919 23.8257L17.4608 23.8509C17.4109 23.8887 17.361 23.9329 17.3111 23.9707C17.3111 23.9707 17.2987 23.977 17.2987 23.9833C17.2426 24.0275 17.1927 24.0653 17.1366 24.1094C16.9059 24.2797 16.669 24.4437 16.4259 24.6013C16.4197 24.6013 16.4134 24.6076 16.4072 24.6139C16.3573 24.6454 16.3012 24.677 16.2513 24.7085C16.2389 24.7148 16.2264 24.7274 16.2139 24.7337C16.1641 24.7653 16.108 24.7968 16.0581 24.8283C16.0456 24.8346 16.0332 24.8409 16.0269 24.8472C15.9708 24.8788 15.9147 24.9103 15.8586 24.9418C15.8586 24.9418 15.8461 24.9418 15.8399 24.9481C15.7776 24.9797 15.7214 25.0112 15.6591 25.0427H15.6466C15.5843 25.0805 15.522 25.1121 15.4596 25.1436C15.204 25.2697 14.9422 25.3832 14.6741 25.4904C14.6741 25.4904 14.6679 25.4904 14.6617 25.4904C14.1068 25.7048 13.5271 25.8751 12.9348 25.9886C12.3488 26.1021 11.7503 26.1589 11.1394 26.1589H14.724L14.6492 26.2282Z" fill="white"/>
<g id="Clip path group_3">
<mask id="mask2_1159_16196" style="mask-type:luminance" maskUnits="userSpaceOnUse" x="3" y="0" width="23" height="27">
<g id="clippath-2">
<path id="Vector_8" d="M12.8538 0.67026C12.6917 0.70179 12.5296 0.73332 12.3675 0.777461C12.2241 0.808991 12.087 0.846827 11.9498 0.890968C11.8064 0.93511 11.6631 0.979251 11.5197 1.02339C11.4885 1.036 11.4573 1.04231 11.4199 1.05492C11.3451 1.08015 11.2641 1.11168 11.1893 1.1369C11.1145 1.16843 11.0397 1.19365 10.9586 1.22518C10.8838 1.25671 10.809 1.28824 10.7342 1.31977C10.7342 1.31977 10.7092 1.33238 10.6968 1.33869C10.5596 1.40175 10.4225 1.46481 10.2916 1.52787C10.1606 1.59093 10.036 1.66029 9.90505 1.72966C9.88635 1.73596 9.87388 1.74858 9.85518 1.75488C9.78037 1.79272 9.71179 1.83686 9.64322 1.87469C9.57464 1.91884 9.49983 1.95667 9.43126 2.00081C9.36268 2.04496 9.29411 2.0891 9.22553 2.13324C9.18813 2.15846 9.15072 2.18369 9.11332 2.20891C9.08215 2.22783 9.05098 2.25305 9.01981 2.27197C8.95123 2.31611 8.88266 2.36656 8.82032 2.41701C8.75174 2.46745 8.6894 2.51159 8.62083 2.56204C8.55225 2.61249 8.48991 2.66294 8.42134 2.71338C8.359 2.76383 8.29042 2.81428 8.22808 2.87103C8.16574 2.92148 8.1034 2.97823 8.04106 3.03499C7.97872 3.09174 7.91638 3.14219 7.85404 3.19894C7.82287 3.23047 7.79169 3.262 7.75429 3.28722C7.72312 3.31245 7.69818 3.34398 7.66701 3.3692C7.60467 3.42596 7.54857 3.48271 7.48623 3.54577C7.42388 3.60252 7.36778 3.66558 7.31167 3.72233C7.25556 3.78539 7.19322 3.84215 7.13712 3.90521C7.08101 3.96827 7.0249 4.03133 6.9688 4.09438C6.91269 4.15744 6.85658 4.2205 6.80048 4.28356C6.74437 4.34662 6.68826 4.41599 6.63839 4.47905C6.61969 4.50427 6.60099 4.52949 6.57605 4.55472C6.54488 4.59886 6.50747 4.6367 6.4763 4.68084C6.42643 4.7502 6.37032 4.81326 6.32045 4.88263C6.27058 4.95199 6.22071 5.02136 6.17083 5.09072C6.17083 5.09072 6.12719 5.15378 6.10226 5.18531C6.07732 5.22315 6.04615 5.26098 6.02122 5.30512C5.99005 5.34927 5.95887 5.39341 5.93394 5.43755C5.91524 5.46277 5.89653 5.4943 5.87783 5.51953C5.82796 5.58889 5.78432 5.66456 5.73445 5.74023C5.69081 5.81591 5.64094 5.88527 5.5973 5.96094C5.55366 6.03661 5.51002 6.11229 5.46638 6.18796C5.42274 6.26363 5.37911 6.3393 5.33547 6.41497C5.31053 6.45911 5.29183 6.50325 5.26689 6.54739C5.24819 6.57892 5.22949 6.61676 5.21078 6.64829C5.19832 6.67351 5.18585 6.69874 5.17338 6.72396C5.14844 6.77441 5.11727 6.83116 5.09234 6.88792C5.05493 6.96989 5.01129 7.04556 4.97389 7.12754C4.93649 7.20321 4.90531 7.27888 4.86791 7.35456C4.86791 7.35456 4.86791 7.36086 4.86168 7.36717C4.82427 7.44914 4.78687 7.53112 4.7557 7.6131C4.71829 7.69508 4.68712 7.77705 4.64972 7.85903C4.61855 7.94101 4.58114 8.02298 4.54997 8.11127C4.5188 8.19324 4.48763 8.28153 4.45646 8.36351C4.36295 8.61574 4.28191 8.86798 4.2071 9.13283C4.2071 9.13283 4.2071 9.14544 4.2071 9.15175C4.18216 9.24003 4.15722 9.32831 4.13229 9.4166C4.10735 9.50488 4.08242 9.59316 4.06371 9.68775C4.04501 9.76342 4.02631 9.83909 4.00761 9.92107C4.00761 9.93368 4.00137 9.9463 3.99514 9.95891C3.97644 10.0472 3.9515 10.1418 3.9328 10.2301C3.9141 10.3247 3.89539 10.4129 3.87669 10.5075C3.85799 10.6021 3.83929 10.6904 3.82682 10.785C3.81435 10.848 3.80812 10.9111 3.79565 10.9742C3.79565 11.0057 3.78318 11.0372 3.78318 11.0624C3.77071 11.157 3.75824 11.2516 3.74578 11.3399C3.73331 11.4345 3.72084 11.5291 3.70837 11.6237C3.6959 11.712 3.68967 11.8002 3.68343 11.8822C3.68343 11.8885 3.68343 11.9011 3.68343 11.9074C3.6772 12.002 3.66473 12.0966 3.6585 12.1912C3.65226 12.2858 3.64603 12.3867 3.6398 12.4813C3.62733 12.6768 3.62109 12.8723 3.62109 13.0677C3.62109 13.1434 3.62109 13.2254 3.62109 13.3011C3.62109 13.3767 3.62109 13.4524 3.62109 13.5281C3.62109 13.6037 3.62109 13.6731 3.62733 13.7488C3.63356 13.9632 3.65226 14.1713 3.6772 14.3857V14.3983C3.68343 14.4677 3.6959 14.537 3.70214 14.6064C3.72084 14.7451 3.73954 14.8902 3.76448 15.0289C3.86422 15.5838 4.00137 16.1261 4.1884 16.6369C4.25697 16.8324 4.33178 17.0216 4.41282 17.2044C4.46893 17.3305 4.52504 17.4504 4.58114 17.5702C4.61231 17.6269 4.63725 17.69 4.66842 17.7467C4.69959 17.8035 4.73076 17.8666 4.76193 17.9233C4.7931 17.9801 4.82427 18.0368 4.85544 18.0936C4.88661 18.1503 4.91778 18.2071 4.95519 18.2638C4.98636 18.3206 5.02376 18.3773 5.05493 18.4278C5.09234 18.4845 5.12351 18.535 5.16091 18.5917C5.19832 18.6485 5.23572 18.6989 5.27313 18.7557C5.34793 18.8629 5.42274 18.9638 5.50379 19.071C5.64717 19.2602 5.80302 19.443 5.95887 19.6133C5.97134 19.6259 5.98381 19.6385 5.99628 19.6574C6.00251 19.6701 6.01498 19.6764 6.02122 19.6827C6.05239 19.7205 6.08979 19.7583 6.12719 19.7899C6.17083 19.834 6.21447 19.8781 6.25811 19.9223C6.34539 20.0106 6.4389 20.0989 6.53241 20.1808C6.58228 20.225 6.62592 20.2628 6.67579 20.307C6.72567 20.3448 6.76931 20.3889 6.81918 20.4268C6.91892 20.5024 7.01243 20.5781 7.11218 20.6538C7.21193 20.7295 7.31167 20.7988 7.41765 20.8619C7.46752 20.8934 7.52363 20.9312 7.5735 20.9628C7.72935 21.0574 7.89144 21.1519 8.05353 21.2339C8.21561 21.3159 8.38393 21.3979 8.55225 21.4672C8.60836 21.4925 8.66447 21.5114 8.72057 21.5366C8.72057 21.5366 8.74551 21.5429 8.75798 21.5492C8.85149 21.5871 8.95123 21.6186 9.04475 21.6501C9.05098 21.6501 9.05721 21.6501 9.06968 21.6564C9.06968 21.6564 9.09462 21.6627 9.11332 21.669C9.15696 21.6816 9.2006 21.7006 9.24424 21.7132C9.26294 21.7132 9.27541 21.7195 9.29411 21.7258C9.39385 21.7573 9.49983 21.7825 9.59958 21.8078C9.66192 21.8204 9.71803 21.833 9.78037 21.8456C9.79907 21.8456 9.81154 21.8519 9.83024 21.8582C9.92375 21.8771 10.0235 21.896 10.117 21.9087C10.1232 21.9087 10.1357 21.9087 10.1419 21.9087C10.2043 21.915 10.2666 21.9276 10.329 21.9339C10.4536 21.9465 10.5783 21.9591 10.703 21.9654C10.7654 21.9654 10.8277 21.9717 10.89 21.9717C10.9524 21.9717 11.0147 21.9717 11.0771 21.9717C11.6942 21.9717 12.2927 21.8834 12.8725 21.7195C9.60581 20.7862 7.18699 17.3621 7.18699 13.2758C7.18699 9.18958 9.60581 5.76546 12.8725 4.83218C13.446 4.66823 14.0445 4.57994 14.6617 4.57994C15.5531 4.57994 16.4072 4.76281 17.1927 5.09072C17.2488 5.11595 17.3049 5.14117 17.361 5.16639C17.8099 5.36818 18.2338 5.62042 18.6328 5.9105C18.8323 6.05553 19.0255 6.21318 19.2125 6.38344C19.2624 6.42758 19.306 6.46542 19.3497 6.50956C20.0853 7.19691 20.7025 8.04821 21.17 9.00671C21.2261 9.12652 21.2822 9.24634 21.3384 9.37245C21.4443 9.61839 21.5441 9.87062 21.6314 10.1355C21.675 10.2679 21.7124 10.394 21.756 10.5264C21.7934 10.6589 21.8308 10.7913 21.862 10.93C21.8932 11.0624 21.9244 11.2012 21.9493 11.3399C21.9929 11.548 22.0241 11.7561 22.049 11.9705C22.0677 12.1092 22.0802 12.2543 22.0927 12.3993C22.0927 12.4687 22.1052 12.5443 22.1114 12.6137C22.1114 12.6894 22.1176 12.7587 22.1239 12.8344C22.1239 12.9101 22.1239 12.9795 22.1301 13.0551C22.1301 13.1308 22.1301 13.2065 22.1301 13.2821C22.1301 13.3578 22.1301 13.4335 22.1301 13.5092C22.1301 13.6037 22.1301 13.692 22.1239 13.7866C22.1239 13.8244 22.1239 13.8623 22.1239 13.9001C22.1239 13.9569 22.1239 14.0073 22.1176 14.0641C22.1176 14.1019 22.1176 14.1397 22.1114 14.1776C22.1114 14.2343 22.1052 14.2911 22.0989 14.3415C22.0989 14.3794 22.0989 14.4172 22.0927 14.4487C22.0927 14.5055 22.0864 14.5622 22.0802 14.619C22.0802 14.6568 22.074 14.6884 22.0677 14.7262C22.0677 14.783 22.0553 14.8397 22.049 14.8902C22.049 14.928 22.0428 14.9658 22.0366 15.0037C22.0303 15.0604 22.0241 15.1172 22.0179 15.1676C22.0179 15.1991 22.0116 15.2307 22.0054 15.2685C21.9992 15.3316 21.9867 15.3883 21.9805 15.4451C21.9805 15.4766 21.9742 15.5081 21.968 15.5397C21.9555 15.6279 21.9431 15.7162 21.9244 15.8045C21.9244 15.8171 21.9244 15.8234 21.9244 15.836C21.9119 15.9117 21.8994 15.9874 21.8807 16.0631C21.8807 16.0946 21.8683 16.1261 21.862 16.164C21.8496 16.2207 21.8371 16.2775 21.8308 16.3342C21.8246 16.3657 21.8184 16.3973 21.8121 16.4288C21.7997 16.4856 21.7872 16.536 21.7747 16.5928C21.7685 16.6306 21.756 16.6684 21.7498 16.7063C21.7373 16.7504 21.7249 16.8008 21.7186 16.845C21.7062 16.8828 21.6999 16.927 21.6875 16.9648C21.675 17.0089 21.6625 17.0594 21.6501 17.1035C21.6376 17.1414 21.6314 17.1792 21.6189 17.217C21.6064 17.2675 21.5877 17.3179 21.5753 17.3684C21.5628 17.3999 21.5566 17.4377 21.5441 17.4693C21.5316 17.5197 21.5129 17.5639 21.5004 17.6143C21.488 17.6522 21.4755 17.69 21.4693 17.7215C21.4443 17.7972 21.4194 17.8792 21.3945 17.9548C21.382 17.9927 21.3695 18.0305 21.3571 18.0683C21.3446 18.1125 21.3259 18.1566 21.3134 18.2008C21.301 18.2386 21.2822 18.2827 21.2698 18.3206C21.2573 18.3647 21.2386 18.4026 21.2261 18.4467C21.2137 18.4845 21.195 18.5224 21.1825 18.5539C21.1638 18.598 21.1451 18.6422 21.1326 18.6863C21.1202 18.7242 21.1015 18.762 21.089 18.7998C21.0703 18.8377 21.0578 18.8818 21.0391 18.9196C21.0204 18.9575 21.0079 19.0016 20.9892 19.0395C20.9705 19.0773 20.9518 19.1214 20.9394 19.1593C20.9207 19.1971 20.9082 19.2349 20.8895 19.2728C20.8708 19.3106 20.8521 19.3484 20.8396 19.3863C20.8209 19.4241 20.8022 19.462 20.7835 19.5061C20.7648 19.5439 20.7461 19.5818 20.7274 19.6196C20.7087 19.6574 20.69 19.6953 20.6713 19.7268C20.6588 19.752 20.6464 19.7709 20.6401 19.7899C20.6152 19.8403 20.5903 19.8908 20.5653 19.9412C20.5466 19.979 20.5217 20.0232 20.503 20.061C20.4843 20.0926 20.4718 20.1241 20.4531 20.1556C20.4282 20.1998 20.4032 20.2439 20.3845 20.2817C20.3658 20.3133 20.3534 20.3448 20.3347 20.37C20.3097 20.4142 20.2848 20.4583 20.2599 20.5024C20.2474 20.5277 20.2287 20.5529 20.2162 20.5781C20.1913 20.6222 20.1663 20.6601 20.1414 20.7042C20.1227 20.7358 20.104 20.7673 20.0853 20.7988C20.0604 20.8367 20.0354 20.8745 20.0105 20.9186C19.9918 20.9439 19.9793 20.9691 19.9606 20.9943C19.9295 21.0384 19.9045 21.0826 19.8733 21.1267C19.8609 21.1456 19.8484 21.1646 19.8297 21.1898C19.7985 21.2402 19.7674 21.2844 19.7362 21.3285C19.7362 21.3285 19.7362 21.3285 19.7362 21.3348C19.6489 21.4546 19.5616 21.5808 19.4744 21.6943C19.4432 21.7384 19.4058 21.7825 19.3746 21.8267C19.3622 21.8456 19.3435 21.8645 19.331 21.8834C19.2936 21.9276 19.2624 21.9717 19.225 22.0159C19.2125 22.0348 19.2001 22.0474 19.1876 22.0663C19.1502 22.1105 19.1128 22.1546 19.0754 22.1987C19.0629 22.2113 19.0504 22.2303 19.038 22.2429C19.0006 22.287 18.9632 22.3312 18.9258 22.3753C18.9133 22.3942 18.8946 22.4068 18.8821 22.4257C18.8447 22.4699 18.8073 22.5077 18.7699 22.5519C18.7574 22.5645 18.7387 22.5834 18.7263 22.596C18.6889 22.6402 18.6452 22.6843 18.6016 22.7284C18.3959 22.9428 18.1901 23.1509 17.972 23.3527C17.972 23.3527 17.972 23.3527 17.9657 23.3527C17.9158 23.3969 17.8722 23.441 17.8223 23.4851C17.8099 23.4978 17.8036 23.5041 17.7912 23.5104C17.7475 23.5482 17.7039 23.586 17.6602 23.6239C17.6478 23.6365 17.6291 23.6491 17.6166 23.6617C17.573 23.6995 17.5231 23.7374 17.4795 23.7752C17.467 23.7815 17.4608 23.7941 17.4483 23.8004C17.3984 23.8383 17.3485 23.8824 17.2987 23.9203C17.2987 23.9203 17.2862 23.9266 17.2862 23.9329C17.2301 23.977 17.1802 24.0148 17.1241 24.059C16.8935 24.2292 16.6566 24.3932 16.4134 24.5508C16.4072 24.5508 16.401 24.5572 16.3947 24.5635C16.3449 24.595 16.2887 24.6265 16.2389 24.6581C16.2264 24.6644 16.2139 24.677 16.2015 24.6833C16.1516 24.7148 16.0955 24.7463 16.0456 24.7779C16.0332 24.7779 16.0207 24.7905 16.0145 24.7968C15.9583 24.8283 15.9022 24.8598 15.8461 24.8914C15.8461 24.8914 15.8337 24.8914 15.8274 24.8977C15.7651 24.9292 15.709 24.9607 15.6466 24.9923C15.6466 24.9923 15.6404 24.9923 15.6342 24.9923C15.5718 25.0238 15.5095 25.0553 15.4471 25.0869C15.1916 25.213 14.9297 25.3265 14.6617 25.4337C14.6617 25.4337 14.6554 25.4337 14.6492 25.4337C14.0944 25.6481 13.5146 25.8183 12.9223 25.9319C12.3363 26.0454 11.7379 26.1021 11.1269 26.1021H14.7115C20.8209 26.1021 25.7708 20.3448 25.7708 13.238C25.7708 6.1312 20.7586 0.5 14.6492 0.5C14.0382 0.5 13.4398 0.556753 12.8538 0.67026Z" fill="white"/>
</g>
</mask>
<g mask="url(#mask2_1159_16196)">
<g id="Group_3">
<path id="Vector_9" d="M25.7068 0.5H3.58203V26.2282H25.7068V0.5Z" fill="#030A40"/>
</g>
</g>
</g>
<path id="Vector_10" d="M150.99 12.9028C150.647 8.76615 147.237 7.73198 144.943 7.73198C141.658 7.73198 138.834 9.83186 138.834 13.2181C138.865 15.6964 140.723 16.9828 143.017 17.7017C146.146 18.7989 147.418 19.2088 147.418 20.6781C147.449 21.8384 146.364 22.6834 145.093 22.6834C144.32 22.6834 142.736 22.305 142.58 20.4574H138.522C138.834 24.6256 142.4 26.0066 145.03 26.0066C148.596 26.0066 151.539 23.7491 151.476 20.2051C151.445 16.5035 148.503 15.6901 145.772 14.9397C144.158 14.4667 142.923 13.874 142.892 12.7767C142.892 11.9317 143.54 11.0552 144.906 11.0552C146.489 11.0552 146.95 11.9948 146.982 12.9028H150.978H150.99ZM136.39 12.9028C136.047 8.76615 132.637 7.73198 130.343 7.73198C127.058 7.73198 124.233 9.83186 124.233 13.2181C124.265 15.6964 126.122 16.9828 128.417 17.7017C131.546 18.7989 132.818 19.2088 132.818 20.6781C132.849 21.8384 131.764 22.6834 130.492 22.6834C129.719 22.6834 128.136 22.305 127.98 20.4574H123.922C124.233 24.6256 127.799 26.0066 130.43 26.0066C133.996 26.0066 136.939 23.7491 136.876 20.2051C136.845 16.5035 133.903 15.6901 131.172 14.9397C129.557 14.4667 128.323 13.874 128.292 12.7767C128.292 11.9317 128.94 11.0552 130.305 11.0552C131.889 11.0552 132.35 11.9948 132.381 12.9028H136.377H136.39ZM107.694 16.9134C107.694 14.246 109.496 11.5534 112.688 11.5534C115.063 11.5534 116.597 12.9659 117.289 14.5928C117.619 15.3432 117.769 16.1945 117.738 17.008C117.675 17.853 117.494 18.6728 117.108 19.4232C116.354 20.9934 114.914 22.1852 112.719 22.1852C109.172 22.1852 107.701 19.0827 107.701 16.9513V16.9197L107.694 16.9134ZM121.646 8.26168H117.706V10.7714C116.983 9.39044 115.15 7.73198 112.146 7.73198C107.514 7.73198 103.755 11.4336 103.755 16.8567C103.755 21.7185 106.853 26.0129 112.146 26.0129C114.458 26.0129 116.653 25.0102 117.706 23.005V25.4832H121.646V8.26168ZM91.5419 6.38251H94.0854C95.2325 6.38251 96.2861 6.4771 97.215 6.97527C98.1127 7.41668 98.7984 8.3878 98.7984 9.85708C98.7984 11.3264 98.1189 12.3668 97.2773 12.802C96.3484 13.3064 95.326 13.401 94.2725 13.401H91.5419V6.3762V6.38251ZM86.9225 2.27734V25.4832H91.5419V17.5188H94.3597C97.7075 17.5188 99.2597 16.9576 100.806 15.6712C102.265 14.4793 103.225 12.0957 103.225 9.80663C103.225 7.51758 102.296 5.26005 100.619 3.87905C99.2847 2.84488 97.7386 2.27734 93.861 2.27734H86.9163H86.9225ZM67.8275 25.4832H71.8859V15.9801C71.8859 13.565 72.8771 11.6227 75.7635 11.5912C78.6125 11.5912 79.4541 13.565 79.4541 16.1378V25.4832H83.5124V15.1036C83.5124 12.0642 82.4589 7.76351 76.9106 7.73198C73.8746 7.70045 72.3534 9.20757 71.6116 10.5507C71.6428 9.73727 71.6428 9.01209 71.6428 8.26168H67.8275V25.4769V25.4832ZM51.7062 15.1036C51.862 13.4073 53.5016 11.2129 56.5126 11.2129C59.4863 11.1813 61.1944 13.4704 61.3503 15.1036H51.7124H51.7062ZM65.3463 18.2377C65.6892 15.2297 64.9099 12.5308 62.834 10.3679C61.2505 8.70309 59.0187 7.73198 56.4815 7.73198C51.3383 7.73198 47.5543 12.0263 47.5543 16.9197C47.5543 21.8131 51.3072 26.0129 56.5438 26.0129C58.3081 26.0129 59.985 25.5084 61.4126 24.5058C62.8402 23.5347 64.0496 22.0906 64.8538 20.1799H60.6708C59.8977 21.5924 58.5637 22.5005 56.5812 22.5005C54.2559 22.532 51.8371 20.9934 51.6501 18.2377H65.3526H65.3463ZM42.0371 16.8882C42.0371 19.7133 39.9611 22.1852 36.8628 22.1852C35.404 22.1852 34.1011 21.5924 33.1722 20.6465C32.2434 19.707 31.6823 18.389 31.6823 16.9134C31.6823 15.4378 32.2371 14.0631 33.1411 13.1173C34.0699 12.1461 35.3417 11.5471 36.8316 11.5471C40.2729 11.5471 42.0371 14.3721 42.0371 16.8441V16.8756V16.8882ZM27.8109 31.4991H31.8693V23.1878C32.5488 24.2851 34.3505 26.0129 37.667 26.0129C42.6605 26.0129 46.0955 21.9077 46.0955 17.0143C46.0955 12.8461 43.5831 7.73198 37.6358 7.73198C34.818 7.73198 32.8294 9.04992 31.6199 10.7714V8.26168H27.8047V31.4991H27.8109Z" fill="#030A40"/>
<path id="Vector_11" d="M153.24 8.85579L153.228 7.51262L153.614 8.85579H153.913L154.3 7.51262L154.287 8.85579H154.705V7.05859H154.094L153.77 8.21889L153.433 7.05859H152.829V8.85579H153.246H153.24ZM151.837 8.85579H152.292V7.46217H152.642V7.05859H151.488V7.46217H151.837V8.85579Z" fill="#030A40"/>
</g>
</g>
</g>
</svg>
